STARTFONT 2.1
COMMENT
COMMENT Converted from OpenType font "Q:\font stuff\winfont\DejaVuSans.ttf" by "otf2bdf 3.0".
COMMENT
FONT -FreeType-DejaVu Sans-Medium-R-Normal--16-160-72-72-P-92-ISO10646-1
SIZE 16 72 72
FONTBOUNDINGBOX 43 22 -16 -5
STARTPROPERTIES 19
FOUNDRY "FreeType"
FAMILY_NAME "DejaVu Sans"
WEIGHT_NAME "Medium"
SLANT "R"
SETWIDTH_NAME "Normal"
ADD_STYLE_NAME ""
PIXEL_SIZE 16
POINT_SIZE 160
RESOLUTION_X 72
RESOLUTION_Y 72
SPACING "P"
AVERAGE_WIDTH 92
CHARSET_REGISTRY "ISO10646"
CHARSET_ENCODING "1"
FONT_ASCENT 14
FONT_DESCENT 3
COPYRIGHT "Copyright (c) 2003 by Bitstream, Inc. All Rights Reserved.  Copyright (c) 2006 by Tavmjong Bah. All Rights Reserved.  DejaVu changes are in public domain  "
_OTF_FONTFILE "Q:\font stuff\winfont\DejaVuSans.ttf"
_OTF_PSNAME "DejaVuSans"
ENDPROPERTIES
CHARS 5180
STARTCHAR 0020
ENCODING 32
SWIDTH 312 0
DWIDTH 5 0
BBX 0 0 0 0
BITMAP
ENDCHAR
STARTCHAR 0021
ENCODING 33
SWIDTH 375 0
DWIDTH 6 0
BBX 1 12 2 0
BITMAP
80
80
80
80
80
80
80
80
00
00
80
80
ENDCHAR
STARTCHAR 0022
ENCODING 34
SWIDTH 375 0
DWIDTH 6 0
BBX 4 4 1 8
BITMAP
90
90
90
90
ENDCHAR
STARTCHAR 0023
ENCODING 35
SWIDTH 812 0
DWIDTH 13 0
BBX 11 11 1 0
BITMAP
0C80
0880
0980
7FE0
1900
1100
1300
FFC0
3200
2200
2600
ENDCHAR
STARTCHAR 0024
ENCODING 36
SWIDTH 625 0
DWIDTH 10 0
BBX 7 14 2 -2
BITMAP
10
10
7C
D2
90
90
70
3C
12
12
96
7C
10
10
ENDCHAR
STARTCHAR 0025
ENCODING 37
SWIDTH 937 0
DWIDTH 15 0
BBX 13 12 1 0
BITMAP
7040
8840
8880
8980
8900
7200
0270
0488
0C88
0888
1088
1070
ENDCHAR
STARTCHAR 0026
ENCODING 38
SWIDTH 750 0
DWIDTH 12 0
BBX 10 12 1 0
BITMAP
3C00
6200
4000
4000
2000
5000
8840
8440
8240
8180
4180
3E40
ENDCHAR
STARTCHAR 0027
ENCODING 39
SWIDTH 187 0
DWIDTH 3 0
BBX 1 4 1 8
BITMAP
80
80
80
80
ENDCHAR
STARTCHAR 0028
ENCODING 40
SWIDTH 375 0
DWIDTH 6 0
BBX 4 14 1 -2
BITMAP
30
60
40
40
80
80
80
80
80
80
40
40
60
30
ENDCHAR
STARTCHAR 0029
ENCODING 41
SWIDTH 375 0
DWIDTH 6 0
BBX 4 14 1 -2
BITMAP
C0
60
20
20
10
10
10
10
10
10
20
20
60
C0
ENDCHAR
STARTCHAR 002A
ENCODING 42
SWIDTH 500 0
DWIDTH 8 0
BBX 7 8 1 4
BITMAP
10
10
92
7C
38
D6
10
10
ENDCHAR
STARTCHAR 002B
ENCODING 43
SWIDTH 812 0
DWIDTH 13 0
BBX 9 9 2 0
BITMAP
0800
0800
0800
0800
FF80
0800
0800
0800
0800
ENDCHAR
STARTCHAR 002C
ENCODING 44
SWIDTH 312 0
DWIDTH 5 0
BBX 2 4 1 -2
BITMAP
40
40
40
80
ENDCHAR
STARTCHAR 002D
ENCODING 45
SWIDTH 375 0
DWIDTH 6 0
BBX 4 1 1 4
BITMAP
F0
ENDCHAR
STARTCHAR 002E
ENCODING 46
SWIDTH 312 0
DWIDTH 5 0
BBX 1 2 2 0
BITMAP
80
80
ENDCHAR
STARTCHAR 002F
ENCODING 47
SWIDTH 312 0
DWIDTH 5 0
BBX 5 13 0 -1
BITMAP
08
08
10
10
10
20
20
20
40
40
40
C0
80
ENDCHAR
STARTCHAR 0030
ENCODING 48
SWIDTH 625 0
DWIDTH 10 0
BBX 8 12 1 0
BITMAP
3C
42
42
81
81
81
81
81
81
42
42
3C
ENDCHAR
STARTCHAR 0031
ENCODING 49
SWIDTH 625 0
DWIDTH 10 0
BBX 7 12 2 0
BITMAP
70
D0
10
10
10
10
10
10
10
10
10
FE
ENDCHAR
STARTCHAR 0032
ENCODING 50
SWIDTH 625 0
DWIDTH 10 0
BBX 7 12 1 0
BITMAP
78
C4
82
02
02
04
08
10
20
40
80
FE
ENDCHAR
STARTCHAR 0033
ENCODING 51
SWIDTH 625 0
DWIDTH 10 0
BBX 8 12 1 0
BITMAP
7C
83
01
01
03
3C
03
01
01
01
82
7C
ENDCHAR
STARTCHAR 0034
ENCODING 52
SWIDTH 625 0
DWIDTH 10 0
BBX 9 12 1 0
BITMAP
0600
0A00
0A00
1200
2200
4200
4200
8200
FF80
0200
0200
0200
ENDCHAR
STARTCHAR 0035
ENCODING 53
SWIDTH 625 0
DWIDTH 10 0
BBX 8 12 1 0
BITMAP
7E
40
40
40
7C
42
01
01
01
01
82
7C
ENDCHAR
STARTCHAR 0036
ENCODING 54
SWIDTH 625 0
DWIDTH 10 0
BBX 8 12 1 0
BITMAP
1C
62
40
80
BC
C2
81
81
81
81
42
3C
ENDCHAR
STARTCHAR 0037
ENCODING 55
SWIDTH 625 0
DWIDTH 10 0
BBX 8 12 1 0
BITMAP
FF
01
02
02
04
04
08
08
08
10
10
20
ENDCHAR
STARTCHAR 0038
ENCODING 56
SWIDTH 625 0
DWIDTH 10 0
BBX 8 12 1 0
BITMAP
3C
C3
81
81
C3
3C
C3
81
81
81
42
3C
ENDCHAR
STARTCHAR 0039
ENCODING 57
SWIDTH 625 0
DWIDTH 10 0
BBX 8 12 1 0
BITMAP
3C
42
82
81
81
81
43
3D
01
02
46
38
ENDCHAR
STARTCHAR 003A
ENCODING 58
SWIDTH 312 0
DWIDTH 5 0
BBX 1 8 2 0
BITMAP
80
80
00
00
00
00
80
80
ENDCHAR
STARTCHAR 003B
ENCODING 59
SWIDTH 312 0
DWIDTH 5 0
BBX 2 10 1 -2
BITMAP
40
40
00
00
00
00
40
40
40
80
ENDCHAR
STARTCHAR 003C
ENCODING 60
SWIDTH 812 0
DWIDTH 13 0
BBX 10 9 2 0
BITMAP
0040
0380
1C00
7000
8000
7000
1C00
0380
0040
ENDCHAR
STARTCHAR 003D
ENCODING 61
SWIDTH 812 0
DWIDTH 13 0
BBX 10 4 2 3
BITMAP
FFC0
0000
0000
FFC0
ENDCHAR
STARTCHAR 003E
ENCODING 62
SWIDTH 812 0
DWIDTH 13 0
BBX 10 9 2 0
BITMAP
8000
7000
0E00
0380
0040
0380
0E00
7000
8000
ENDCHAR
STARTCHAR 003F
ENCODING 63
SWIDTH 562 0
DWIDTH 9 0
BBX 6 12 1 0
BITMAP
78
84
04
04
0C
18
30
20
20
00
20
20
ENDCHAR
STARTCHAR 0040
ENCODING 64
SWIDTH 1000 0
DWIDTH 16 0
BBX 14 14 1 -2
BITMAP
0FC0
1830
2018
47A8
C864
9024
9024
9024
9024
C868
47B0
2000
1830
07E0
ENDCHAR
STARTCHAR 0041
ENCODING 65
SWIDTH 687 0
DWIDTH 11 0
BBX 11 12 0 0
BITMAP
0400
0400
0A00
0A00
1100
1100
2080
2080
3F80
4040
4040
8020
ENDCHAR
STARTCHAR 0042
ENCODING 66
SWIDTH 687 0
DWIDTH 11 0
BBX 9 12 1 0
BITMAP
FE00
8180
8080
8080
8180
FF00
8180
8080
8080
8080
8100
FE00
ENDCHAR
STARTCHAR 0043
ENCODING 67
SWIDTH 687 0
DWIDTH 11 0
BBX 9 12 1 0
BITMAP
1F00
2180
4000
8000
8000
8000
8000
8000
8000
4000
2180
1F00
ENDCHAR
STARTCHAR 0044
ENCODING 68
SWIDTH 750 0
DWIDTH 12 0
BBX 10 12 1 0
BITMAP
FE00
8300
8080
8040
8040
8040
8040
8040
8040
8080
8300
FE00
ENDCHAR
STARTCHAR 0045
ENCODING 69
SWIDTH 625 0
DWIDTH 10 0
BBX 8 12 1 0
BITMAP
FF
80
80
80
80
FF
80
80
80
80
80
FF
ENDCHAR
STARTCHAR 0046
ENCODING 70
SWIDTH 562 0
DWIDTH 9 0
BBX 7 12 1 0
BITMAP
FE
80
80
80
80
FC
80
80
80
80
80
80
ENDCHAR
STARTCHAR 0047
ENCODING 71
SWIDTH 750 0
DWIDTH 12 0
BBX 10 12 1 0
BITMAP
1F80
20C0
4040
8000
8000
8000
83C0
8040
8040
4040
2040
1F80
ENDCHAR
STARTCHAR 0048
ENCODING 72
SWIDTH 750 0
DWIDTH 12 0
BBX 10 12 1 0
BITMAP
8040
8040
8040
8040
8040
FFC0
8040
8040
8040
8040
8040
8040
ENDCHAR
STARTCHAR 0049
ENCODING 73
SWIDTH 312 0
DWIDTH 5 0
BBX 1 12 2 0
BITMAP
80
80
80
80
80
80
80
80
80
80
80
80
ENDCHAR
STARTCHAR 004A
ENCODING 74
SWIDTH 312 0
DWIDTH 5 0
BBX 3 15 0 -3
BITMAP
20
20
20
20
20
20
20
20
20
20
20
20
20
20
C0
ENDCHAR
STARTCHAR 004B
ENCODING 75
SWIDTH 625 0
DWIDTH 10 0
BBX 8 12 1 0
BITMAP
81
82
84
88
90
E0
A0
90
88
84
82
81
ENDCHAR
STARTCHAR 004C
ENCODING 76
SWIDTH 562 0
DWIDTH 9 0
BBX 7 12 1 0
BITMAP
80
80
80
80
80
80
80
80
80
80
80
FE
ENDCHAR
STARTCHAR 004D
ENCODING 77
SWIDTH 812 0
DWIDTH 13 0
BBX 11 12 1 0
BITMAP
C060
C060
A0A0
A0A0
A0A0
9120
9120
8A20
8A20
8420
8020
8020
ENDCHAR
STARTCHAR 004E
ENCODING 78
SWIDTH 750 0
DWIDTH 12 0
BBX 10 12 1 0
BITMAP
C040
A040
A040
9040
8840
8840
8440
8240
8240
8140
8140
80C0
ENDCHAR
STARTCHAR 004F
ENCODING 79
SWIDTH 812 0
DWIDTH 13 0
BBX 11 12 1 0
BITMAP
1F00
2080
4040
8020
8020
8020
8020
8020
8020
4040
2080
1F00
ENDCHAR
STARTCHAR 0050
ENCODING 80
SWIDTH 625 0
DWIDTH 10 0
BBX 8 12 1 0
BITMAP
FC
82
81
81
81
82
FC
80
80
80
80
80
ENDCHAR
STARTCHAR 0051
ENCODING 81
SWIDTH 812 0
DWIDTH 13 0
BBX 11 14 1 -2
BITMAP
1F00
2080
4040
8020
8020
8020
8020
8020
8020
4040
20C0
1F00
0080
0040
ENDCHAR
STARTCHAR 0052
ENCODING 82
SWIDTH 687 0
DWIDTH 11 0
BBX 9 12 1 0
BITMAP
FC00
8200
8100
8100
8100
8200
FE00
8200
8100
8100
8080
8080
ENDCHAR
STARTCHAR 0053
ENCODING 83
SWIDTH 625 0
DWIDTH 10 0
BBX 8 12 1 0
BITMAP
3C
C6
80
80
80
70
1E
03
01
81
C3
7C
ENDCHAR
STARTCHAR 0054
ENCODING 84
SWIDTH 562 0
DWIDTH 9 0
BBX 9 12 0 0
BITMAP
FF80
0800
0800
0800
0800
0800
0800
0800
0800
0800
0800
0800
ENDCHAR
STARTCHAR 0055
ENCODING 85
SWIDTH 750 0
DWIDTH 12 0
BBX 10 12 1 0
BITMAP
8040
8040
8040
8040
8040
8040
8040
8040
8040
8040
4080
3F00
ENDCHAR
STARTCHAR 0056
ENCODING 86
SWIDTH 687 0
DWIDTH 11 0
BBX 11 12 0 0
BITMAP
8020
8020
4040
4040
2080
2080
1100
1100
1100
0A00
0A00
0400
ENDCHAR
STARTCHAR 0057
ENCODING 87
SWIDTH 1062 0
DWIDTH 17 0
BBX 15 12 1 0
BITMAP
8102
8102
4284
4284
4284
2288
2448
2448
1450
1450
0820
0820
ENDCHAR
STARTCHAR 0058
ENCODING 88
SWIDTH 687 0
DWIDTH 11 0
BBX 9 12 1 0
BITMAP
C180
4100
2200
2200
1400
0800
0800
1400
2200
2200
4100
8080
ENDCHAR
STARTCHAR 0059
ENCODING 89
SWIDTH 562 0
DWIDTH 9 0
BBX 9 12 0 0
BITMAP
C080
4100
2200
2200
1400
0800
0800
0800
0800
0800
0800
0800
ENDCHAR
STARTCHAR 005A
ENCODING 90
SWIDTH 750 0
DWIDTH 12 0
BBX 10 12 1 0
BITMAP
FFC0
0040
0080
0100
0200
0400
0800
1000
2000
4000
8000
FFC0
ENDCHAR
STARTCHAR 005B
ENCODING 91
SWIDTH 375 0
DWIDTH 6 0
BBX 3 14 1 -2
BITMAP
E0
80
80
80
80
80
80
80
80
80
80
80
80
E0
ENDCHAR
STARTCHAR 005C
ENCODING 92
SWIDTH 312 0
DWIDTH 5 0
BBX 5 13 0 -1
BITMAP
80
C0
40
40
40
20
20
20
10
10
10
08
08
ENDCHAR
STARTCHAR 005D
ENCODING 93
SWIDTH 375 0
DWIDTH 6 0
BBX 3 14 2 -2
BITMAP
E0
20
20
20
20
20
20
20
20
20
20
20
20
E0
ENDCHAR
STARTCHAR 005E
ENCODING 94
SWIDTH 812 0
DWIDTH 13 0
BBX 8 4 3 8
BITMAP
18
3C
42
81
ENDCHAR
STARTCHAR 005F
ENCODING 95
SWIDTH 500 0
DWIDTH 8 0
BBX 8 1 0 -4
BITMAP
FF
ENDCHAR
STARTCHAR 0060
ENCODING 96
SWIDTH 500 0
DWIDTH 8 0
BBX 4 3 1 10
BITMAP
C0
60
30
ENDCHAR
STARTCHAR 0061
ENCODING 97
SWIDTH 562 0
DWIDTH 9 0
BBX 7 9 1 0
BITMAP
3C
46
02
7E
C2
82
82
C6
7A
ENDCHAR
STARTCHAR 0062
ENCODING 98
SWIDTH 625 0
DWIDTH 10 0
BBX 8 12 1 0
BITMAP
80
80
80
BC
C2
81
81
81
81
81
C2
BC
ENDCHAR
STARTCHAR 0063
ENCODING 99
SWIDTH 562 0
DWIDTH 9 0
BBX 7 9 1 0
BITMAP
3C
42
80
80
80
80
80
42
3C
ENDCHAR
STARTCHAR 0064
ENCODING 100
SWIDTH 625 0
DWIDTH 10 0
BBX 8 12 1 0
BITMAP
01
01
01
3D
43
81
81
81
81
81
43
3D
ENDCHAR
STARTCHAR 0065
ENCODING 101
SWIDTH 562 0
DWIDTH 9 0
BBX 7 9 1 0
BITMAP
38
44
82
82
FE
80
80
42
3C
ENDCHAR
STARTCHAR 0066
ENCODING 102
SWIDTH 375 0
DWIDTH 6 0
BBX 5 12 1 0
BITMAP
38
40
40
F0
40
40
40
40
40
40
40
40
ENDCHAR
STARTCHAR 0067
ENCODING 103
SWIDTH 625 0
DWIDTH 10 0
BBX 8 12 1 -3
BITMAP
3D
43
81
81
81
81
81
43
3D
01
42
3C
ENDCHAR
STARTCHAR 0068
ENCODING 104
SWIDTH 625 0
DWIDTH 10 0
BBX 8 12 1 0
BITMAP
80
80
80
BC
C2
81
81
81
81
81
81
81
ENDCHAR
STARTCHAR 0069
ENCODING 105
SWIDTH 187 0
DWIDTH 3 0
BBX 1 12 1 0
BITMAP
80
80
00
80
80
80
80
80
80
80
80
80
ENDCHAR
STARTCHAR 006A
ENCODING 106
SWIDTH 187 0
DWIDTH 3 0
BBX 3 15 -1 -3
BITMAP
20
20
00
20
20
20
20
20
20
20
20
20
20
20
C0
ENDCHAR
STARTCHAR 006B
ENCODING 107
SWIDTH 562 0
DWIDTH 9 0
BBX 7 12 1 0
BITMAP
80
80
80
82
84
88
90
E0
90
88
84
82
ENDCHAR
STARTCHAR 006C
ENCODING 108
SWIDTH 187 0
DWIDTH 3 0
BBX 1 12 1 0
BITMAP
80
80
80
80
80
80
80
80
80
80
80
80
ENDCHAR
STARTCHAR 006D
ENCODING 109
SWIDTH 937 0
DWIDTH 15 0
BBX 13 9 1 0
BITMAP
BCF0
C718
8208
8208
8208
8208
8208
8208
8208
ENDCHAR
STARTCHAR 006E
ENCODING 110
SWIDTH 625 0
DWIDTH 10 0
BBX 8 9 1 0
BITMAP
BC
C2
81
81
81
81
81
81
81
ENDCHAR
STARTCHAR 006F
ENCODING 111
SWIDTH 625 0
DWIDTH 10 0
BBX 8 9 1 0
BITMAP
3C
42
81
81
81
81
81
42
3C
ENDCHAR
STARTCHAR 0070
ENCODING 112
SWIDTH 625 0
DWIDTH 10 0
BBX 8 12 1 -3
BITMAP
BC
C2
81
81
81
81
81
C2
BC
80
80
80
ENDCHAR
STARTCHAR 0071
ENCODING 113
SWIDTH 625 0
DWIDTH 10 0
BBX 8 12 1 -3
BITMAP
3D
43
81
81
81
81
81
43
3D
01
01
01
ENDCHAR
STARTCHAR 0072
ENCODING 114
SWIDTH 437 0
DWIDTH 7 0
BBX 5 9 1 0
BITMAP
B8
C0
80
80
80
80
80
80
80
ENDCHAR
STARTCHAR 0073
ENCODING 115
SWIDTH 562 0
DWIDTH 9 0
BBX 7 9 1 0
BITMAP
7C
82
80
C0
78
06
02
82
7C
ENDCHAR
STARTCHAR 0074
ENCODING 116
SWIDTH 375 0
DWIDTH 6 0
BBX 5 11 0 0
BITMAP
40
40
F8
40
40
40
40
40
40
40
38
ENDCHAR
STARTCHAR 0075
ENCODING 117
SWIDTH 625 0
DWIDTH 10 0
BBX 8 9 1 0
BITMAP
81
81
81
81
81
81
81
43
3D
ENDCHAR
STARTCHAR 0076
ENCODING 118
SWIDTH 562 0
DWIDTH 9 0
BBX 9 9 0 0
BITMAP
8080
8080
4100
4100
2200
2200
1400
1C00
0800
ENDCHAR
STARTCHAR 0077
ENCODING 119
SWIDTH 812 0
DWIDTH 13 0
BBX 13 9 0 0
BITMAP
8208
8208
4510
4510
4890
28A0
28A0
1040
1040
ENDCHAR
STARTCHAR 0078
ENCODING 120
SWIDTH 625 0
DWIDTH 10 0
BBX 8 9 1 0
BITMAP
C3
42
24
24
18
24
24
42
83
ENDCHAR
STARTCHAR 0079
ENCODING 121
SWIDTH 562 0
DWIDTH 9 0
BBX 9 12 0 -3
BITMAP
8080
4100
4100
2100
2200
2200
1400
1400
0C00
0800
0800
7000
ENDCHAR
STARTCHAR 007A
ENCODING 122
SWIDTH 562 0
DWIDTH 9 0
BBX 7 9 1 0
BITMAP
FE
02
04
08
10
20
40
80
FE
ENDCHAR
STARTCHAR 007B
ENCODING 123
SWIDTH 625 0
DWIDTH 10 0
BBX 5 15 2 -3
BITMAP
18
20
20
20
20
20
20
C0
20
20
20
20
20
20
18
ENDCHAR
STARTCHAR 007C
ENCODING 124
SWIDTH 312 0
DWIDTH 5 0
BBX 1 16 2 -4
BITMAP
80
80
80
80
80
80
80
80
80
80
80
80
80
80
80
80
ENDCHAR
STARTCHAR 007D
ENCODING 125
SWIDTH 625 0
DWIDTH 10 0
BBX 5 15 2 -3
BITMAP
C0
20
20
20
20
20
20
18
20
20
20
20
20
20
C0
ENDCHAR
STARTCHAR 007E
ENCODING 126
SWIDTH 812 0
DWIDTH 13 0
BBX 10 2 2 4
BITMAP
7840
8780
ENDCHAR
STARTCHAR 00A0
ENCODING 160
SWIDTH 312 0
DWIDTH 5 0
BBX 0 0 0 0
BITMAP
ENDCHAR
STARTCHAR 00A1
ENCODING 161
SWIDTH 437 0
DWIDTH 7 0
BBX 1 12 3 0
BITMAP
80
80
00
00
80
80
80
80
80
80
80
80
ENDCHAR
STARTCHAR 00A2
ENCODING 162
SWIDTH 625 0
DWIDTH 10 0
BBX 7 13 1 -2
BITMAP
08
08
3C
6A
C8
88
88
88
88
4A
3C
08
08
ENDCHAR
STARTCHAR 00A3
ENCODING 163
SWIDTH 625 0
DWIDTH 10 0
BBX 7 12 1 0
BITMAP
1C
32
20
20
20
20
FC
20
20
20
20
FE
ENDCHAR
STARTCHAR 00A4
ENCODING 164
SWIDTH 625 0
DWIDTH 10 0
BBX 9 9 1 1
BITMAP
8080
7F00
6300
4100
4100
4100
6300
7F00
8080
ENDCHAR
STARTCHAR 00A5
ENCODING 165
SWIDTH 625 0
DWIDTH 10 0
BBX 9 12 0 0
BITMAP
8080
4100
4100
2200
1400
7700
0800
0800
7F00
0800
0800
0800
ENDCHAR
STARTCHAR 00A6
ENCODING 166
SWIDTH 312 0
DWIDTH 5 0
BBX 1 14 2 -3
BITMAP
80
80
80
80
80
80
00
00
80
80
80
80
80
80
ENDCHAR
STARTCHAR 00A7
ENCODING 167
SWIDTH 500 0
DWIDTH 8 0
BBX 7 14 1 -2
BITMAP
3C
40
40
70
78
8C
82
C2
62
3C
0C
04
04
78
ENDCHAR
STARTCHAR 00A8
ENCODING 168
SWIDTH 500 0
DWIDTH 8 0
BBX 4 2 2 10
BITMAP
90
90
ENDCHAR
STARTCHAR 00A9
ENCODING 169
SWIDTH 1000 0
DWIDTH 16 0
BBX 12 12 2 0
BITMAP
0F00
30C0
4F20
4820
9010
9010
9010
9010
4820
4F20
30C0
0F00
ENDCHAR
STARTCHAR 00AA
ENCODING 170
SWIDTH 500 0
DWIDTH 8 0
BBX 6 8 1 4
BITMAP
78
04
7C
84
8C
74
00
FC
ENDCHAR
STARTCHAR 00AB
ENCODING 171
SWIDTH 625 0
DWIDTH 10 0
BBX 8 7 1 1
BITMAP
11
33
44
88
44
33
11
ENDCHAR
STARTCHAR 00AC
ENCODING 172
SWIDTH 812 0
DWIDTH 13 0
BBX 10 4 2 3
BITMAP
FFC0
0040
0040
0040
ENDCHAR
STARTCHAR 00AD
ENCODING 173
SWIDTH 375 0
DWIDTH 6 0
BBX 4 1 1 4
BITMAP
F0
ENDCHAR
STARTCHAR 00AE
ENCODING 174
SWIDTH 1000 0
DWIDTH 16 0
BBX 12 12 2 0
BITMAP
0F00
30C0
4F20
48A0
8890
8F10
8910
8990
48A0
48E0
30C0
0F00
ENDCHAR
STARTCHAR 00AF
ENCODING 175
SWIDTH 500 0
DWIDTH 8 0
BBX 5 1 2 11
BITMAP
F8
ENDCHAR
STARTCHAR 00B0
ENCODING 176
SWIDTH 500 0
DWIDTH 8 0
BBX 5 5 2 7
BITMAP
70
88
88
88
70
ENDCHAR
STARTCHAR 00B1
ENCODING 177
SWIDTH 812 0
DWIDTH 13 0
BBX 9 10 2 0
BITMAP
0800
0800
0800
FF80
0800
0800
0800
0000
0000
FF80
ENDCHAR
STARTCHAR 00B2
ENCODING 178
SWIDTH 375 0
DWIDTH 6 0
BBX 5 7 1 5
BITMAP
F0
08
08
10
20
40
F8
ENDCHAR
STARTCHAR 00B3
ENCODING 179
SWIDTH 375 0
DWIDTH 6 0
BBX 5 7 1 5
BITMAP
F0
08
08
70
08
08
F0
ENDCHAR
STARTCHAR 00B4
ENCODING 180
SWIDTH 500 0
DWIDTH 8 0
BBX 4 3 3 10
BITMAP
30
60
C0
ENDCHAR
STARTCHAR 00B5
ENCODING 181
SWIDTH 625 0
DWIDTH 10 0
BBX 9 12 1 -3
BITMAP
8100
8100
8100
8100
8100
8100
8100
C300
BD80
8000
8000
8000
ENDCHAR
STARTCHAR 00B6
ENCODING 182
SWIDTH 625 0
DWIDTH 10 0
BBX 7 14 1 -2
BITMAP
3E
7A
FA
FA
FA
7A
3A
0A
0A
0A
0A
0A
0A
0A
ENDCHAR
STARTCHAR 00B7
ENCODING 183
SWIDTH 312 0
DWIDTH 5 0
BBX 1 2 2 5
BITMAP
80
80
ENDCHAR
STARTCHAR 00B8
ENCODING 184
SWIDTH 500 0
DWIDTH 8 0
BBX 3 2 2 -2
BITMAP
20
E0
ENDCHAR
STARTCHAR 00B9
ENCODING 185
SWIDTH 375 0
DWIDTH 6 0
BBX 5 7 1 5
BITMAP
E0
20
20
20
20
20
F8
ENDCHAR
STARTCHAR 00BA
ENCODING 186
SWIDTH 500 0
DWIDTH 8 0
BBX 6 8 1 4
BITMAP
78
CC
84
84
CC
78
00
FC
ENDCHAR
STARTCHAR 00BB
ENCODING 187
SWIDTH 625 0
DWIDTH 10 0
BBX 8 7 2 1
BITMAP
88
CC
22
11
22
CC
88
ENDCHAR
STARTCHAR 00BC
ENCODING 188
SWIDTH 1000 0
DWIDTH 16 0
BBX 13 12 1 0
BITMAP
E060
2040
2080
2080
2100
2210
FA30
0450
0850
0890
10F8
3010
ENDCHAR
STARTCHAR 00BD
ENCODING 189
SWIDTH 1000 0
DWIDTH 16 0
BBX 14 12 1 0
BITMAP
E060
2040
2080
2080
2100
2278
FA04
0404
0808
0810
1020
307C
ENDCHAR
STARTCHAR 00BE
ENCODING 190
SWIDTH 1000 0
DWIDTH 16 0
BBX 13 12 1 0
BITMAP
F060
0840
0880
7080
0900
0A10
F230
0450
0850
0890
10F8
3010
ENDCHAR
STARTCHAR 00BF
ENCODING 191
SWIDTH 625 0
DWIDTH 10 0
BBX 6 12 2 0
BITMAP
10
10
00
10
10
30
60
C0
80
80
84
78
ENDCHAR
STARTCHAR 00C0
ENCODING 192
SWIDTH 687 0
DWIDTH 11 0
BBX 11 15 0 0
BITMAP
1800
0C00
0000
0400
0400
0A00
0A00
1100
1100
2080
2080
3F80
4040
4040
8020
ENDCHAR
STARTCHAR 00C1
ENCODING 193
SWIDTH 687 0
DWIDTH 11 0
BBX 11 15 0 0
BITMAP
0600
0C00
0000
0400
0400
0A00
0A00
1100
1100
2080
2080
3F80
4040
4040
8020
ENDCHAR
STARTCHAR 00C2
ENCODING 194
SWIDTH 687 0
DWIDTH 11 0
BBX 11 15 0 0
BITMAP
0E00
1B00
0000
0400
0400
0A00
0A00
1100
1100
2080
2080
3F80
4040
4040
8020
ENDCHAR
STARTCHAR 00C3
ENCODING 195
SWIDTH 687 0
DWIDTH 11 0
BBX 11 15 0 0
BITMAP
1D00
1700
0000
0400
0400
0A00
0A00
1100
1100
2080
2080
3F80
4040
4040
8020
ENDCHAR
STARTCHAR 00C4
ENCODING 196
SWIDTH 687 0
DWIDTH 11 0
BBX 11 15 0 0
BITMAP
0A00
0A00
0000
0400
0400
0A00
0A00
1100
1100
2080
2080
3F80
4040
4040
8020
ENDCHAR
STARTCHAR 00C5
ENCODING 197
SWIDTH 687 0
DWIDTH 11 0
BBX 11 15 0 0
BITMAP
0E00
1100
1100
0E00
0A00
1100
1100
1100
2080
2080
4040
7FC0
4040
8020
8020
ENDCHAR
STARTCHAR 00C6
ENCODING 198
SWIDTH 1000 0
DWIDTH 16 0
BBX 15 12 0 0
BITMAP
07FE
0900
0900
1100
1100
11FE
2100
2100
7F00
4100
4100
81FE
ENDCHAR
STARTCHAR 00C7
ENCODING 199
SWIDTH 687 0
DWIDTH 11 0
BBX 9 15 1 -3
BITMAP
1F00
2180
4000
8000
8000
8000
8000
8000
8000
4000
2180
1F00
0000
0400
1C00
ENDCHAR
STARTCHAR 00C8
ENCODING 200
SWIDTH 625 0
DWIDTH 10 0
BBX 8 15 1 0
BITMAP
30
18
00
FF
80
80
80
80
FF
80
80
80
80
80
FF
ENDCHAR
STARTCHAR 00C9
ENCODING 201
SWIDTH 625 0
DWIDTH 10 0
BBX 8 15 1 0
BITMAP
0C
18
00
FF
80
80
80
80
FF
80
80
80
80
80
FF
ENDCHAR
STARTCHAR 00CA
ENCODING 202
SWIDTH 625 0
DWIDTH 10 0
BBX 8 15 1 0
BITMAP
1C
36
00
FF
80
80
80
80
FF
80
80
80
80
80
FF
ENDCHAR
STARTCHAR 00CB
ENCODING 203
SWIDTH 625 0
DWIDTH 10 0
BBX 8 15 1 0
BITMAP
24
24
00
FF
80
80
80
80
FF
80
80
80
80
80
FF
ENDCHAR
STARTCHAR 00CC
ENCODING 204
SWIDTH 312 0
DWIDTH 5 0
BBX 3 15 0 0
BITMAP
C0
60
00
20
20
20
20
20
20
20
20
20
20
20
20
ENDCHAR
STARTCHAR 00CD
ENCODING 205
SWIDTH 312 0
DWIDTH 5 0
BBX 3 15 1 0
BITMAP
60
C0
00
40
40
40
40
40
40
40
40
40
40
40
40
ENDCHAR
STARTCHAR 00CE
ENCODING 206
SWIDTH 312 0
DWIDTH 5 0
BBX 5 15 0 0
BITMAP
70
D8
00
20
20
20
20
20
20
20
20
20
20
20
20
ENDCHAR
STARTCHAR 00CF
ENCODING 207
SWIDTH 312 0
DWIDTH 5 0
BBX 5 15 0 0
BITMAP
88
88
00
20
20
20
20
20
20
20
20
20
20
20
20
ENDCHAR
STARTCHAR 00D0
ENCODING 208
SWIDTH 812 0
DWIDTH 13 0
BBX 12 12 0 0
BITMAP
3F80
20C0
2020
2010
2010
FC10
2010
2010
2010
2020
20C0
3F80
ENDCHAR
STARTCHAR 00D1
ENCODING 209
SWIDTH 750 0
DWIDTH 12 0
BBX 10 15 1 0
BITMAP
1A00
1600
0000
C040
A040
A040
9040
8840
8840
8440
8240
8240
8140
8140
80C0
ENDCHAR
STARTCHAR 00D2
ENCODING 210
SWIDTH 812 0
DWIDTH 13 0
BBX 11 15 1 0
BITMAP
1800
0C00
0000
1F00
2080
4040
8020
8020
8020
8020
8020
8020
4040
2080
1F00
ENDCHAR
STARTCHAR 00D3
ENCODING 211
SWIDTH 812 0
DWIDTH 13 0
BBX 11 15 1 0
BITMAP
0600
0C00
0000
1F00
2080
4040
8020
8020
8020
8020
8020
8020
4040
2080
1F00
ENDCHAR
STARTCHAR 00D4
ENCODING 212
SWIDTH 812 0
DWIDTH 13 0
BBX 11 15 1 0
BITMAP
0E00
1B00
0000
1F00
2080
4040
8020
8020
8020
8020
8020
8020
4040
2080
1F00
ENDCHAR
STARTCHAR 00D5
ENCODING 213
SWIDTH 812 0
DWIDTH 13 0
BBX 11 15 1 0
BITMAP
1D00
1700
0000
1F00
2080
4040
8020
8020
8020
8020
8020
8020
4040
2080
1F00
ENDCHAR
STARTCHAR 00D6
ENCODING 214
SWIDTH 812 0
DWIDTH 13 0
BBX 11 15 1 0
BITMAP
0A00
0A00
0000
1F00
2080
4040
8020
8020
8020
8020
8020
8020
4040
2080
1F00
ENDCHAR
STARTCHAR 00D7
ENCODING 215
SWIDTH 812 0
DWIDTH 13 0
BBX 9 9 2 1
BITMAP
8080
4100
2200
1400
0800
1400
2200
4100
8080
ENDCHAR
STARTCHAR 00D8
ENCODING 216
SWIDTH 812 0
DWIDTH 13 0
BBX 11 12 1 0
BITMAP
1F20
20C0
40C0
8120
8220
8420
8420
8820
9020
6040
6080
9F00
ENDCHAR
STARTCHAR 00D9
ENCODING 217
SWIDTH 750 0
DWIDTH 12 0
BBX 10 15 1 0
BITMAP
1800
0C00
0000
8040
8040
8040
8040
8040
8040
8040
8040
8040
8040
4080
3F00
ENDCHAR
STARTCHAR 00DA
ENCODING 218
SWIDTH 750 0
DWIDTH 12 0
BBX 10 15 1 0
BITMAP
0600
0C00
0000
8040
8040
8040
8040
8040
8040
8040
8040
8040
8040
4080
3F00
ENDCHAR
STARTCHAR 00DB
ENCODING 219
SWIDTH 750 0
DWIDTH 12 0
BBX 10 15 1 0
BITMAP
0C00
1200
0000
8040
8040
8040
8040
8040
8040
8040
8040
8040
8040
4080
3F00
ENDCHAR
STARTCHAR 00DC
ENCODING 220
SWIDTH 750 0
DWIDTH 12 0
BBX 10 15 1 0
BITMAP
1200
1200
0000
8040
8040
8040
8040
8040
8040
8040
8040
8040
8040
4080
3F00
ENDCHAR
STARTCHAR 00DD
ENCODING 221
SWIDTH 562 0
DWIDTH 9 0
BBX 9 15 0 0
BITMAP
0600
0C00
0000
C080
4100
2200
2200
1400
0800
0800
0800
0800
0800
0800
0800
ENDCHAR
STARTCHAR 00DE
ENCODING 222
SWIDTH 625 0
DWIDTH 10 0
BBX 8 12 1 0
BITMAP
80
80
FC
82
81
81
81
82
FC
80
80
80
ENDCHAR
STARTCHAR 00DF
ENCODING 223
SWIDTH 625 0
DWIDTH 10 0
BBX 8 12 1 0
BITMAP
7C
C6
82
8E
90
90
98
8E
83
81
81
BE
ENDCHAR
STARTCHAR 00E0
ENCODING 224
SWIDTH 562 0
DWIDTH 9 0
BBX 7 13 1 0
BITMAP
60
30
18
00
3C
46
02
7E
C2
82
82
C6
7A
ENDCHAR
STARTCHAR 00E1
ENCODING 225
SWIDTH 562 0
DWIDTH 9 0
BBX 7 13 1 0
BITMAP
06
0C
18
00
3C
46
02
7E
C2
82
82
C6
7A
ENDCHAR
STARTCHAR 00E2
ENCODING 226
SWIDTH 562 0
DWIDTH 9 0
BBX 7 13 1 0
BITMAP
10
28
44
00
3C
46
02
7E
C2
82
82
C6
7A
ENDCHAR
STARTCHAR 00E3
ENCODING 227
SWIDTH 562 0
DWIDTH 9 0
BBX 7 12 1 0
BITMAP
74
5C
00
3C
46
02
7E
C2
82
82
C6
7A
ENDCHAR
STARTCHAR 00E4
ENCODING 228
SWIDTH 562 0
DWIDTH 9 0
BBX 7 12 1 0
BITMAP
24
24
00
3C
46
02
7E
C2
82
82
C6
7A
ENDCHAR
STARTCHAR 00E5
ENCODING 229
SWIDTH 562 0
DWIDTH 9 0
BBX 7 14 1 0
BITMAP
18
24
24
18
00
3C
46
02
7E
C2
82
82
C6
7A
ENDCHAR
STARTCHAR 00E6
ENCODING 230
SWIDTH 1000 0
DWIDTH 16 0
BBX 14 9 1 0
BITMAP
3DF0
4708
0204
7E04
C3FC
8200
8200
C504
78F8
ENDCHAR
STARTCHAR 00E7
ENCODING 231
SWIDTH 562 0
DWIDTH 9 0
BBX 7 12 1 -3
BITMAP
3C
42
80
80
80
80
80
42
3C
00
08
38
ENDCHAR
STARTCHAR 00E8
ENCODING 232
SWIDTH 562 0
DWIDTH 9 0
BBX 7 13 1 0
BITMAP
60
30
18
00
38
44
82
82
FE
80
80
42
3C
ENDCHAR
STARTCHAR 00E9
ENCODING 233
SWIDTH 562 0
DWIDTH 9 0
BBX 7 13 1 0
BITMAP
06
0C
18
00
38
44
82
82
FE
80
80
42
3C
ENDCHAR
STARTCHAR 00EA
ENCODING 234
SWIDTH 562 0
DWIDTH 9 0
BBX 7 13 1 0
BITMAP
10
28
44
00
38
44
82
82
FE
80
80
42
3C
ENDCHAR
STARTCHAR 00EB
ENCODING 235
SWIDTH 562 0
DWIDTH 9 0
BBX 7 12 1 0
BITMAP
24
24
00
38
44
82
82
FE
80
80
42
3C
ENDCHAR
STARTCHAR 00EC
ENCODING 236
SWIDTH 187 0
DWIDTH 3 0
BBX 4 13 -1 0
BITMAP
C0
60
30
00
20
20
20
20
20
20
20
20
20
ENDCHAR
STARTCHAR 00ED
ENCODING 237
SWIDTH 187 0
DWIDTH 3 0
BBX 4 13 1 0
BITMAP
30
60
C0
00
80
80
80
80
80
80
80
80
80
ENDCHAR
STARTCHAR 00EE
ENCODING 238
SWIDTH 187 0
DWIDTH 3 0
BBX 5 13 -1 0
BITMAP
20
50
88
00
20
20
20
20
20
20
20
20
20
ENDCHAR
STARTCHAR 00EF
ENCODING 239
SWIDTH 187 0
DWIDTH 3 0
BBX 5 12 -1 0
BITMAP
88
88
00
20
20
20
20
20
20
20
20
20
ENDCHAR
STARTCHAR 00F0
ENCODING 240
SWIDTH 625 0
DWIDTH 10 0
BBX 8 12 1 1
BITMAP
6C
30
CC
3E
43
81
81
81
81
81
42
3C
ENDCHAR
STARTCHAR 00F1
ENCODING 241
SWIDTH 625 0
DWIDTH 10 0
BBX 8 12 1 0
BITMAP
74
5C
00
BC
C2
81
81
81
81
81
81
81
ENDCHAR
STARTCHAR 00F2
ENCODING 242
SWIDTH 625 0
DWIDTH 10 0
BBX 8 13 1 0
BITMAP
60
30
18
00
3C
42
81
81
81
81
81
42
3C
ENDCHAR
STARTCHAR 00F3
ENCODING 243
SWIDTH 625 0
DWIDTH 10 0
BBX 8 13 1 0
BITMAP
06
0C
18
00
3C
42
81
81
81
81
81
42
3C
ENDCHAR
STARTCHAR 00F4
ENCODING 244
SWIDTH 625 0
DWIDTH 10 0
BBX 8 13 1 0
BITMAP
18
18
24
00
3C
42
81
81
81
81
81
42
3C
ENDCHAR
STARTCHAR 00F5
ENCODING 245
SWIDTH 625 0
DWIDTH 10 0
BBX 8 12 1 0
BITMAP
34
2C
00
3C
42
81
81
81
81
81
42
3C
ENDCHAR
STARTCHAR 00F6
ENCODING 246
SWIDTH 625 0
DWIDTH 10 0
BBX 8 12 1 0
BITMAP
24
24
00
3C
42
81
81
81
81
81
42
3C
ENDCHAR
STARTCHAR 00F7
ENCODING 247
SWIDTH 812 0
DWIDTH 13 0
BBX 10 7 2 1
BITMAP
0C00
0C00
0000
FFC0
0000
0C00
0C00
ENDCHAR
STARTCHAR 00F8
ENCODING 248
SWIDTH 625 0
DWIDTH 10 0
BBX 8 9 1 0
BITMAP
3D
42
85
89
89
91
A1
42
BC
ENDCHAR
STARTCHAR 00F9
ENCODING 249
SWIDTH 625 0
DWIDTH 10 0
BBX 8 13 1 0
BITMAP
60
30
18
00
81
81
81
81
81
81
81
43
3D
ENDCHAR
STARTCHAR 00FA
ENCODING 250
SWIDTH 625 0
DWIDTH 10 0
BBX 8 13 1 0
BITMAP
06
0C
18
00
81
81
81
81
81
81
81
43
3D
ENDCHAR
STARTCHAR 00FB
ENCODING 251
SWIDTH 625 0
DWIDTH 10 0
BBX 8 13 1 0
BITMAP
18
18
24
00
81
81
81
81
81
81
81
43
3D
ENDCHAR
STARTCHAR 00FC
ENCODING 252
SWIDTH 625 0
DWIDTH 10 0
BBX 8 12 1 0
BITMAP
24
24
00
81
81
81
81
81
81
81
43
3D
ENDCHAR
STARTCHAR 00FD
ENCODING 253
SWIDTH 562 0
DWIDTH 9 0
BBX 9 16 0 -3
BITMAP
0300
0600
0C00
0000
8080
4100
4100
2100
2200
2200
1400
1400
0C00
0800
0800
7000
ENDCHAR
STARTCHAR 00FE
ENCODING 254
SWIDTH 625 0
DWIDTH 10 0
BBX 8 15 1 -3
BITMAP
80
80
80
BC
C2
81
81
81
81
81
C2
BC
80
80
80
ENDCHAR
STARTCHAR 00FF
ENCODING 255
SWIDTH 562 0
DWIDTH 9 0
BBX 9 15 0 -3
BITMAP
1400
1400
0000
8080
4100
4100
2100
2200
2200
1400
1400
0C00
0800
0800
7000
ENDCHAR
STARTCHAR 0100
ENCODING 256
SWIDTH 687 0
DWIDTH 11 0
BBX 11 14 0 0
BITMAP
1F00
0000
0400
0400
0A00
0A00
1100
1100
2080
2080
3F80
4040
4040
8020
ENDCHAR
STARTCHAR 0101
ENCODING 257
SWIDTH 562 0
DWIDTH 9 0
BBX 7 12 1 0
BITMAP
3C
00
00
3C
46
02
7E
C2
82
82
C6
7A
ENDCHAR
STARTCHAR 0102
ENCODING 258
SWIDTH 687 0
DWIDTH 11 0
BBX 11 15 0 0
BITMAP
1100
0E00
0000
0400
0400
0A00
0A00
1100
1100
2080
2080
3F80
4040
4040
8020
ENDCHAR
STARTCHAR 0103
ENCODING 259
SWIDTH 562 0
DWIDTH 9 0
BBX 7 12 1 0
BITMAP
44
38
00
3C
46
02
7E
C2
82
82
C6
7A
ENDCHAR
STARTCHAR 0104
ENCODING 260
SWIDTH 687 0
DWIDTH 11 0
BBX 12 15 0 -3
BITMAP
0400
0400
0A00
0A00
1100
1100
2080
2080
3F80
4040
4040
8020
0000
0040
0070
ENDCHAR
STARTCHAR 0105
ENCODING 261
SWIDTH 562 0
DWIDTH 9 0
BBX 9 12 1 -3
BITMAP
3C00
4600
0200
7E00
C200
8200
8200
C600
7A00
0000
0200
0380
ENDCHAR
STARTCHAR 0106
ENCODING 262
SWIDTH 687 0
DWIDTH 11 0
BBX 9 15 1 0
BITMAP
0600
0C00
0000
1F00
2180
4000
8000
8000
8000
8000
8000
8000
4000
2180
1F00
ENDCHAR
STARTCHAR 0107
ENCODING 263
SWIDTH 562 0
DWIDTH 9 0
BBX 7 13 1 0
BITMAP
06
0C
18
00
3C
42
80
80
80
80
80
42
3C
ENDCHAR
STARTCHAR 0108
ENCODING 264
SWIDTH 687 0
DWIDTH 11 0
BBX 9 15 1 0
BITMAP
0E00
1B00
0000
1F00
2180
4000
8000
8000
8000
8000
8000
8000
4000
2180
1F00
ENDCHAR
STARTCHAR 0109
ENCODING 265
SWIDTH 562 0
DWIDTH 9 0
BBX 7 13 1 0
BITMAP
08
14
22
00
3C
42
80
80
80
80
80
42
3C
ENDCHAR
STARTCHAR 010A
ENCODING 266
SWIDTH 687 0
DWIDTH 11 0
BBX 9 15 1 0
BITMAP
0600
0600
0000
1F00
2180
4000
8000
8000
8000
8000
8000
8000
4000
2180
1F00
ENDCHAR
STARTCHAR 010B
ENCODING 267
SWIDTH 562 0
DWIDTH 9 0
BBX 7 12 1 0
BITMAP
10
10
00
3C
42
80
80
80
80
80
42
3C
ENDCHAR
STARTCHAR 010C
ENCODING 268
SWIDTH 687 0
DWIDTH 11 0
BBX 9 15 1 0
BITMAP
1B00
0E00
0000
1F00
2180
4000
8000
8000
8000
8000
8000
8000
4000
2180
1F00
ENDCHAR
STARTCHAR 010D
ENCODING 269
SWIDTH 562 0
DWIDTH 9 0
BBX 7 13 1 0
BITMAP
22
14
08
00
3C
42
80
80
80
80
80
42
3C
ENDCHAR
STARTCHAR 010E
ENCODING 270
SWIDTH 750 0
DWIDTH 12 0
BBX 10 15 1 0
BITMAP
1B00
0E00
0000
FE00
8300
8080
8040
8040
8040
8040
8040
8040
8080
8300
FE00
ENDCHAR
STARTCHAR 010F
ENCODING 271
SWIDTH 625 0
DWIDTH 10 0
BBX 10 12 1 0
BITMAP
0140
0140
0140
3D00
4300
8100
8100
8100
8100
8100
4300
3D00
ENDCHAR
STARTCHAR 0110
ENCODING 272
SWIDTH 750 0
DWIDTH 12 0
BBX 12 12 0 0
BITMAP
3F80
20C0
2020
2010
2010
FC10
2010
2010
2010
2020
20C0
3F80
ENDCHAR
STARTCHAR 0111
ENCODING 273
SWIDTH 625 0
DWIDTH 10 0
BBX 9 12 1 0
BITMAP
0100
0F80
0100
3D00
4300
8100
8100
8100
8100
8100
4300
3D00
ENDCHAR
STARTCHAR 0112
ENCODING 274
SWIDTH 625 0
DWIDTH 10 0
BBX 8 14 1 0
BITMAP
3E
00
FF
80
80
80
80
FF
80
80
80
80
80
FF
ENDCHAR
STARTCHAR 0113
ENCODING 275
SWIDTH 562 0
DWIDTH 9 0
BBX 7 12 1 0
BITMAP
7C
00
00
38
44
82
82
FE
80
80
42
3C
ENDCHAR
STARTCHAR 0114
ENCODING 276
SWIDTH 625 0
DWIDTH 10 0
BBX 8 15 1 0
BITMAP
22
1C
00
FF
80
80
80
80
FF
80
80
80
80
80
FF
ENDCHAR
STARTCHAR 0115
ENCODING 277
SWIDTH 562 0
DWIDTH 9 0
BBX 7 12 1 0
BITMAP
44
38
00
38
44
82
82
FE
80
80
42
3C
ENDCHAR
STARTCHAR 0116
ENCODING 278
SWIDTH 625 0
DWIDTH 10 0
BBX 8 15 1 0
BITMAP
18
18
00
FF
80
80
80
80
FF
80
80
80
80
80
FF
ENDCHAR
STARTCHAR 0117
ENCODING 279
SWIDTH 562 0
DWIDTH 9 0
BBX 7 12 1 0
BITMAP
10
10
00
38
44
82
82
FE
80
80
42
3C
ENDCHAR
STARTCHAR 0118
ENCODING 280
SWIDTH 625 0
DWIDTH 10 0
BBX 9 15 1 -3
BITMAP
FF00
8000
8000
8000
8000
FF00
8000
8000
8000
8000
8000
FF00
0000
0200
0380
ENDCHAR
STARTCHAR 0119
ENCODING 281
SWIDTH 562 0
DWIDTH 9 0
BBX 8 12 1 -3
BITMAP
38
44
82
82
FE
80
80
42
3C
00
04
07
ENDCHAR
STARTCHAR 011A
ENCODING 282
SWIDTH 625 0
DWIDTH 10 0
BBX 8 15 1 0
BITMAP
36
1C
00
FF
80
80
80
80
FF
80
80
80
80
80
FF
ENDCHAR
STARTCHAR 011B
ENCODING 283
SWIDTH 562 0
DWIDTH 9 0
BBX 7 13 1 0
BITMAP
44
28
10
00
38
44
82
82
FE
80
80
42
3C
ENDCHAR
STARTCHAR 011C
ENCODING 284
SWIDTH 750 0
DWIDTH 12 0
BBX 10 15 1 0
BITMAP
0600
0900
0000
1F80
20C0
4040
8000
8000
8000
83C0
8040
8040
4040
2040
1F80
ENDCHAR
STARTCHAR 011D
ENCODING 285
SWIDTH 625 0
DWIDTH 10 0
BBX 8 16 1 -3
BITMAP
18
3C
24
00
3D
43
81
81
81
81
81
43
3D
01
42
3C
ENDCHAR
STARTCHAR 011E
ENCODING 286
SWIDTH 750 0
DWIDTH 12 0
BBX 10 15 1 0
BITMAP
1100
0E00
0000
1F80
20C0
4040
8000
8000
8000
83C0
8040
8040
4040
2040
1F80
ENDCHAR
STARTCHAR 011F
ENCODING 287
SWIDTH 625 0
DWIDTH 10 0
BBX 8 15 1 -3
BITMAP
22
1C
00
3D
43
81
81
81
81
81
43
3D
01
42
3C
ENDCHAR
STARTCHAR 0120
ENCODING 288
SWIDTH 750 0
DWIDTH 12 0
BBX 10 15 1 0
BITMAP
0600
0600
0000
1F80
20C0
4040
8000
8000
8000
83C0
8040
8040
4040
2040
1F80
ENDCHAR
STARTCHAR 0121
ENCODING 289
SWIDTH 625 0
DWIDTH 10 0
BBX 8 15 1 -3
BITMAP
10
10
00
3D
43
81
81
81
81
81
43
3D
01
42
3C
ENDCHAR
STARTCHAR 0122
ENCODING 290
SWIDTH 750 0
DWIDTH 12 0
BBX 10 16 1 -4
BITMAP
1F80
20C0
4040
8000
8000
8000
83C0
8040
8040
4040
2040
1F80
0000
0600
0400
0400
ENDCHAR
STARTCHAR 0123
ENCODING 291
SWIDTH 625 0
DWIDTH 10 0
BBX 8 15 1 -3
BITMAP
08
08
00
3D
43
81
81
81
81
81
43
3D
01
42
3C
ENDCHAR
STARTCHAR 0124
ENCODING 292
SWIDTH 750 0
DWIDTH 12 0
BBX 10 15 1 0
BITMAP
0C00
1200
0000
8040
8040
8040
8040
8040
FFC0
8040
8040
8040
8040
8040
8040
ENDCHAR
STARTCHAR 0125
ENCODING 293
SWIDTH 625 0
DWIDTH 10 0
BBX 10 15 -1 0
BITMAP
7000
D800
0000
2000
2000
2000
2F00
3080
2040
2040
2040
2040
2040
2040
2040
ENDCHAR
STARTCHAR 0126
ENCODING 294
SWIDTH 937 0
DWIDTH 15 0
BBX 12 12 2 0
BITMAP
4020
4020
FFF0
4020
4020
7FE0
4020
4020
4020
4020
4020
4020
ENDCHAR
STARTCHAR 0127
ENCODING 295
SWIDTH 687 0
DWIDTH 11 0
BBX 9 12 1 0
BITMAP
4000
F800
4000
5E00
6100
4080
4080
4080
4080
4080
4080
4080
ENDCHAR
STARTCHAR 0128
ENCODING 296
SWIDTH 312 0
DWIDTH 5 0
BBX 5 15 0 0
BITMAP
E8
B8
00
20
20
20
20
20
20
20
20
20
20
20
20
ENDCHAR
STARTCHAR 0129
ENCODING 297
SWIDTH 187 0
DWIDTH 3 0
BBX 5 12 -1 0
BITMAP
E8
B8
00
20
20
20
20
20
20
20
20
20
ENDCHAR
STARTCHAR 012A
ENCODING 298
SWIDTH 312 0
DWIDTH 5 0
BBX 5 14 0 0
BITMAP
F8
00
20
20
20
20
20
20
20
20
20
20
20
20
ENDCHAR
STARTCHAR 012B
ENCODING 299
SWIDTH 187 0
DWIDTH 3 0
BBX 5 12 -1 0
BITMAP
F8
00
00
20
20
20
20
20
20
20
20
20
ENDCHAR
STARTCHAR 012C
ENCODING 300
SWIDTH 312 0
DWIDTH 5 0
BBX 5 15 0 0
BITMAP
88
70
00
20
20
20
20
20
20
20
20
20
20
20
20
ENDCHAR
STARTCHAR 012D
ENCODING 301
SWIDTH 187 0
DWIDTH 3 0
BBX 5 12 -1 0
BITMAP
88
70
00
20
20
20
20
20
20
20
20
20
ENDCHAR
STARTCHAR 012E
ENCODING 302
SWIDTH 312 0
DWIDTH 5 0
BBX 3 15 2 -3
BITMAP
80
80
80
80
80
80
80
80
80
80
80
80
00
80
E0
ENDCHAR
STARTCHAR 012F
ENCODING 303
SWIDTH 187 0
DWIDTH 3 0
BBX 4 15 1 -3
BITMAP
80
80
00
80
80
80
80
80
80
80
80
80
00
40
70
ENDCHAR
STARTCHAR 0130
ENCODING 304
SWIDTH 312 0
DWIDTH 5 0
BBX 1 15 2 0
BITMAP
80
80
00
80
80
80
80
80
80
80
80
80
80
80
80
ENDCHAR
STARTCHAR 0131
ENCODING 305
SWIDTH 187 0
DWIDTH 3 0
BBX 1 9 1 0
BITMAP
80
80
80
80
80
80
80
80
80
ENDCHAR
STARTCHAR 0132
ENCODING 306
SWIDTH 562 0
DWIDTH 9 0
BBX 6 15 2 -3
BITMAP
84
84
84
84
84
84
84
84
84
84
84
84
04
04
18
ENDCHAR
STARTCHAR 0133
ENCODING 307
SWIDTH 437 0
DWIDTH 7 0
BBX 5 15 1 -3
BITMAP
88
88
00
88
88
88
88
88
88
88
88
88
08
08
30
ENDCHAR
STARTCHAR 0134
ENCODING 308
SWIDTH 312 0
DWIDTH 5 0
BBX 5 18 0 -3
BITMAP
70
D8
00
20
20
20
20
20
20
20
20
20
20
20
20
20
20
C0
ENDCHAR
STARTCHAR 0135
ENCODING 309
SWIDTH 187 0
DWIDTH 3 0
BBX 5 16 -1 -3
BITMAP
20
50
88
00
20
20
20
20
20
20
20
20
20
20
20
C0
ENDCHAR
STARTCHAR 0136
ENCODING 310
SWIDTH 625 0
DWIDTH 10 0
BBX 8 16 1 -4
BITMAP
81
82
84
88
90
E0
A0
90
88
84
82
81
00
0C
08
08
ENDCHAR
STARTCHAR 0137
ENCODING 311
SWIDTH 562 0
DWIDTH 9 0
BBX 7 16 1 -4
BITMAP
80
80
80
82
84
88
90
E0
90
88
84
82
00
18
10
10
ENDCHAR
STARTCHAR 0138
ENCODING 312
SWIDTH 562 0
DWIDTH 9 0
BBX 7 9 1 0
BITMAP
82
84
88
90
E0
90
88
84
82
ENDCHAR
STARTCHAR 0139
ENCODING 313
SWIDTH 562 0
DWIDTH 9 0
BBX 7 15 1 0
BITMAP
30
60
00
80
80
80
80
80
80
80
80
80
80
80
FE
ENDCHAR
STARTCHAR 013A
ENCODING 314
SWIDTH 187 0
DWIDTH 3 0
BBX 3 15 1 0
BITMAP
60
C0
00
80
80
80
80
80
80
80
80
80
80
80
80
ENDCHAR
STARTCHAR 013B
ENCODING 315
SWIDTH 562 0
DWIDTH 9 0
BBX 7 16 1 -4
BITMAP
80
80
80
80
80
80
80
80
80
80
80
FE
00
18
10
10
ENDCHAR
STARTCHAR 013C
ENCODING 316
SWIDTH 187 0
DWIDTH 3 0
BBX 2 16 1 -4
BITMAP
80
80
80
80
80
80
80
80
80
80
80
80
00
C0
80
80
ENDCHAR
STARTCHAR 013D
ENCODING 317
SWIDTH 562 0
DWIDTH 9 0
BBX 7 12 1 0
BITMAP
88
88
88
80
80
80
80
80
80
80
80
FE
ENDCHAR
STARTCHAR 013E
ENCODING 318
SWIDTH 375 0
DWIDTH 6 0
BBX 4 12 1 0
BITMAP
90
90
90
80
80
80
80
80
80
80
80
80
ENDCHAR
STARTCHAR 013F
ENCODING 319
SWIDTH 562 0
DWIDTH 9 0
BBX 7 12 1 0
BITMAP
80
80
80
80
84
84
80
80
80
80
80
FE
ENDCHAR
STARTCHAR 0140
ENCODING 320
SWIDTH 312 0
DWIDTH 5 0
BBX 4 12 1 0
BITMAP
80
80
80
80
90
90
80
80
80
80
80
80
ENDCHAR
STARTCHAR 0141
ENCODING 321
SWIDTH 562 0
DWIDTH 9 0
BBX 9 12 0 0
BITMAP
2000
2000
2000
2400
2C00
3000
2000
E000
2000
2000
2000
3F80
ENDCHAR
STARTCHAR 0142
ENCODING 322
SWIDTH 187 0
DWIDTH 3 0
BBX 3 12 0 0
BITMAP
40
40
40
40
60
40
C0
40
40
40
40
40
ENDCHAR
STARTCHAR 0143
ENCODING 323
SWIDTH 750 0
DWIDTH 12 0
BBX 10 15 1 0
BITMAP
0600
0C00
0000
C040
A040
A040
9040
8840
8840
8440
8240
8240
8140
8140
80C0
ENDCHAR
STARTCHAR 0144
ENCODING 324
SWIDTH 625 0
DWIDTH 10 0
BBX 8 13 1 0
BITMAP
06
0C
18
00
BC
C2
81
81
81
81
81
81
81
ENDCHAR
STARTCHAR 0145
ENCODING 325
SWIDTH 750 0
DWIDTH 12 0
BBX 10 16 1 -4
BITMAP
C040
A040
A040
9040
8840
8840
8440
8240
8240
8140
8140
80C0
0000
0C00
0800
0800
ENDCHAR
STARTCHAR 0146
ENCODING 326
SWIDTH 625 0
DWIDTH 10 0
BBX 8 13 1 -4
BITMAP
BC
C2
81
81
81
81
81
81
81
00
18
10
10
ENDCHAR
STARTCHAR 0147
ENCODING 327
SWIDTH 750 0
DWIDTH 12 0
BBX 10 15 1 0
BITMAP
1200
0C00
0000
C040
A040
A040
9040
8840
8840
8440
8240
8240
8140
8140
80C0
ENDCHAR
STARTCHAR 0148
ENCODING 328
SWIDTH 625 0
DWIDTH 10 0
BBX 8 13 1 0
BITMAP
24
18
18
00
BC
C2
81
81
81
81
81
81
81
ENDCHAR
STARTCHAR 0149
ENCODING 329
SWIDTH 812 0
DWIDTH 13 0
BBX 11 12 1 0
BITMAP
4000
4000
4000
9780
1840
1020
1020
1020
1020
1020
1020
1020
ENDCHAR
STARTCHAR 014A
ENCODING 330
SWIDTH 750 0
DWIDTH 12 0
BBX 9 15 1 -3
BITMAP
BE00
E100
C080
8080
8080
8080
8080
8080
8080
8080
8080
8080
0080
0080
0300
ENDCHAR
STARTCHAR 014B
ENCODING 331
SWIDTH 625 0
DWIDTH 10 0
BBX 8 12 1 -3
BITMAP
BC
C2
81
81
81
81
81
81
81
01
01
1E
ENDCHAR
STARTCHAR 014C
ENCODING 332
SWIDTH 812 0
DWIDTH 13 0
BBX 11 14 1 0
BITMAP
1F00
0000
1F00
2080
4040
8020
8020
8020
8020
8020
8020
4040
2080
1F00
ENDCHAR
STARTCHAR 014D
ENCODING 333
SWIDTH 625 0
DWIDTH 10 0
BBX 8 12 1 0
BITMAP
3C
00
00
3C
42
81
81
81
81
81
42
3C
ENDCHAR
STARTCHAR 014E
ENCODING 334
SWIDTH 812 0
DWIDTH 13 0
BBX 11 15 1 0
BITMAP
1100
0E00
0000
1F00
2080
4040
8020
8020
8020
8020
8020
8020
4040
2080
1F00
ENDCHAR
STARTCHAR 014F
ENCODING 335
SWIDTH 625 0
DWIDTH 10 0
BBX 8 12 1 0
BITMAP
24
18
00
3C
42
81
81
81
81
81
42
3C
ENDCHAR
STARTCHAR 0150
ENCODING 336
SWIDTH 812 0
DWIDTH 13 0
BBX 11 15 1 0
BITMAP
0900
1200
0000
1F00
2080
4040
8020
8020
8020
8020
8020
8020
4040
2080
1F00
ENDCHAR
STARTCHAR 0151
ENCODING 337
SWIDTH 625 0
DWIDTH 10 0
BBX 8 13 1 0
BITMAP
1B
12
24
00
3C
42
81
81
81
81
81
42
3C
ENDCHAR
STARTCHAR 0152
ENCODING 338
SWIDTH 1062 0
DWIDTH 17 0
BBX 15 12 1 0
BITMAP
1FFE
2100
4100
8100
8100
81FE
8100
8100
8100
4100
2100
1FFE
ENDCHAR
STARTCHAR 0153
ENCODING 339
SWIDTH 937 0
DWIDTH 15 0
BBX 13 9 1 0
BITMAP
38E0
4510
8208
8208
83F8
8200
8200
4508
38F0
ENDCHAR
STARTCHAR 0154
ENCODING 340
SWIDTH 687 0
DWIDTH 11 0
BBX 9 15 1 0
BITMAP
0C00
1800
0000
FC00
8200
8100
8100
8100
8200
FE00
8200
8100
8100
8080
8080
ENDCHAR
STARTCHAR 0155
ENCODING 341
SWIDTH 437 0
DWIDTH 7 0
BBX 7 13 1 0
BITMAP
06
0C
18
00
B8
C0
80
80
80
80
80
80
80
ENDCHAR
STARTCHAR 0156
ENCODING 342
SWIDTH 687 0
DWIDTH 11 0
BBX 9 16 1 -4
BITMAP
FC00
8200
8100
8100
8100
8200
FE00
8200
8100
8100
8080
8080
0000
0C00
0800
0800
ENDCHAR
STARTCHAR 0157
ENCODING 343
SWIDTH 437 0
DWIDTH 7 0
BBX 5 13 1 -4
BITMAP
B8
C0
80
80
80
80
80
80
80
00
C0
80
80
ENDCHAR
STARTCHAR 0158
ENCODING 344
SWIDTH 687 0
DWIDTH 11 0
BBX 9 15 1 0
BITMAP
3600
1C00
0000
FC00
8200
8100
8100
8100
8200
FE00
8200
8100
8100
8080
8080
ENDCHAR
STARTCHAR 0159
ENCODING 345
SWIDTH 437 0
DWIDTH 7 0
BBX 5 13 1 0
BITMAP
88
50
20
00
B8
C0
80
80
80
80
80
80
80
ENDCHAR
STARTCHAR 015A
ENCODING 346
SWIDTH 625 0
DWIDTH 10 0
BBX 8 15 1 0
BITMAP
0C
18
00
3C
C6
80
80
80
70
1E
03
01
81
C3
7C
ENDCHAR
STARTCHAR 015B
ENCODING 347
SWIDTH 562 0
DWIDTH 9 0
BBX 7 13 1 0
BITMAP
06
0C
18
00
7C
82
80
C0
78
06
02
82
7C
ENDCHAR
STARTCHAR 015C
ENCODING 348
SWIDTH 625 0
DWIDTH 10 0
BBX 8 15 1 0
BITMAP
18
24
00
3C
C6
80
80
80
70
1E
03
01
81
C3
7C
ENDCHAR
STARTCHAR 015D
ENCODING 349
SWIDTH 562 0
DWIDTH 9 0
BBX 7 13 1 0
BITMAP
10
28
44
00
7C
82
80
C0
78
06
02
82
7C
ENDCHAR
STARTCHAR 015E
ENCODING 350
SWIDTH 625 0
DWIDTH 10 0
BBX 8 15 1 -3
BITMAP
3C
C6
80
80
80
70
1E
03
01
81
C3
7C
00
08
38
ENDCHAR
STARTCHAR 015F
ENCODING 351
SWIDTH 562 0
DWIDTH 9 0
BBX 7 12 1 -3
BITMAP
7C
82
80
C0
78
06
02
82
7C
00
10
70
ENDCHAR
STARTCHAR 0160
ENCODING 352
SWIDTH 625 0
DWIDTH 10 0
BBX 8 15 1 0
BITMAP
24
18
00
3C
C6
80
80
80
70
1E
03
01
81
C3
7C
ENDCHAR
STARTCHAR 0161
ENCODING 353
SWIDTH 562 0
DWIDTH 9 0
BBX 7 13 1 0
BITMAP
44
28
10
00
7C
82
80
C0
78
06
02
82
7C
ENDCHAR
STARTCHAR 0162
ENCODING 354
SWIDTH 562 0
DWIDTH 9 0
BBX 9 15 0 -3
BITMAP
FF80
0800
0800
0800
0800
0800
0800
0800
0800
0800
0800
0800
0000
0400
1C00
ENDCHAR
STARTCHAR 0163
ENCODING 355
SWIDTH 375 0
DWIDTH 6 0
BBX 5 14 0 -3
BITMAP
40
40
F8
40
40
40
40
40
40
40
38
00
08
38
ENDCHAR
STARTCHAR 0164
ENCODING 356
SWIDTH 562 0
DWIDTH 9 0
BBX 9 15 0 0
BITMAP
3600
1C00
0000
FF80
0800
0800
0800
0800
0800
0800
0800
0800
0800
0800
0800
ENDCHAR
STARTCHAR 0165
ENCODING 357
SWIDTH 375 0
DWIDTH 6 0
BBX 5 13 0 0
BITMAP
08
08
48
40
F8
40
40
40
40
40
40
40
38
ENDCHAR
STARTCHAR 0166
ENCODING 358
SWIDTH 562 0
DWIDTH 9 0
BBX 9 12 0 0
BITMAP
FF80
0800
0800
0800
0800
0800
3E00
0800
0800
0800
0800
0800
ENDCHAR
STARTCHAR 0167
ENCODING 359
SWIDTH 375 0
DWIDTH 6 0
BBX 5 11 0 0
BITMAP
40
40
F8
40
40
E0
40
40
40
40
38
ENDCHAR
STARTCHAR 0168
ENCODING 360
SWIDTH 750 0
DWIDTH 12 0
BBX 10 15 1 0
BITMAP
1A00
1600
0000
8040
8040
8040
8040
8040
8040
8040
8040
8040
8040
4080
3F00
ENDCHAR
STARTCHAR 0169
ENCODING 361
SWIDTH 625 0
DWIDTH 10 0
BBX 8 12 1 0
BITMAP
34
2C
00
81
81
81
81
81
81
81
43
3D
ENDCHAR
STARTCHAR 016A
ENCODING 362
SWIDTH 750 0
DWIDTH 12 0
BBX 10 14 1 0
BITMAP
1E00
0000
8040
8040
8040
8040
8040
8040
8040
8040
8040
8040
4080
3F00
ENDCHAR
STARTCHAR 016B
ENCODING 363
SWIDTH 625 0
DWIDTH 10 0
BBX 8 12 1 0
BITMAP
3C
00
00
81
81
81
81
81
81
81
43
3D
ENDCHAR
STARTCHAR 016C
ENCODING 364
SWIDTH 750 0
DWIDTH 12 0
BBX 10 15 1 0
BITMAP
1200
0C00
0000
8040
8040
8040
8040
8040
8040
8040
8040
8040
8040
4080
3F00
ENDCHAR
STARTCHAR 016D
ENCODING 365
SWIDTH 625 0
DWIDTH 10 0
BBX 8 12 1 0
BITMAP
24
18
00
81
81
81
81
81
81
81
43
3D
ENDCHAR
STARTCHAR 016E
ENCODING 366
SWIDTH 750 0
DWIDTH 12 0
BBX 10 15 1 0
BITMAP
0C00
1200
1200
8C40
8040
8040
8040
8040
8040
8040
8040
8040
8040
4080
3F00
ENDCHAR
STARTCHAR 016F
ENCODING 367
SWIDTH 625 0
DWIDTH 10 0
BBX 8 14 1 0
BITMAP
18
24
24
18
00
81
81
81
81
81
81
81
43
3D
ENDCHAR
STARTCHAR 0170
ENCODING 368
SWIDTH 750 0
DWIDTH 12 0
BBX 10 15 1 0
BITMAP
0900
1200
0000
8040
8040
8040
8040
8040
8040
8040
8040
8040
8040
4080
3F00
ENDCHAR
STARTCHAR 0171
ENCODING 369
SWIDTH 625 0
DWIDTH 10 0
BBX 8 13 1 0
BITMAP
1B
12
24
00
81
81
81
81
81
81
81
43
3D
ENDCHAR
STARTCHAR 0172
ENCODING 370
SWIDTH 750 0
DWIDTH 12 0
BBX 10 15 1 -3
BITMAP
8040
8040
8040
8040
8040
8040
8040
8040
8040
8040
4080
3F00
0000
0800
0E00
ENDCHAR
STARTCHAR 0173
ENCODING 371
SWIDTH 625 0
DWIDTH 10 0
BBX 9 12 1 -3
BITMAP
8100
8100
8100
8100
8100
8100
8100
4300
3D00
0000
0200
0380
ENDCHAR
STARTCHAR 0174
ENCODING 372
SWIDTH 1062 0
DWIDTH 17 0
BBX 15 15 1 0
BITMAP
0380
06C0
0000
8102
8102
4284
4284
4284
2288
2448
2448
1450
1450
0820
0820
ENDCHAR
STARTCHAR 0175
ENCODING 373
SWIDTH 812 0
DWIDTH 13 0
BBX 13 13 0 0
BITMAP
0200
0500
0880
0000
8208
8208
4510
4510
4890
28A0
28A0
1040
1040
ENDCHAR
STARTCHAR 0176
ENCODING 374
SWIDTH 562 0
DWIDTH 9 0
BBX 9 15 0 0
BITMAP
1C00
3600
0000
C080
4100
2200
2200
1400
0800
0800
0800
0800
0800
0800
0800
ENDCHAR
STARTCHAR 0177
ENCODING 375
SWIDTH 562 0
DWIDTH 9 0
BBX 9 16 0 -3
BITMAP
0800
1400
2200
0000
8080
4100
4100
2100
2200
2200
1400
1400
0C00
0800
0800
7000
ENDCHAR
STARTCHAR 0178
ENCODING 376
SWIDTH 562 0
DWIDTH 9 0
BBX 9 15 0 0
BITMAP
1400
1400
0000
C080
4100
2200
2200
1400
0800
0800
0800
0800
0800
0800
0800
ENDCHAR
STARTCHAR 0179
ENCODING 377
SWIDTH 750 0
DWIDTH 12 0
BBX 10 15 1 0
BITMAP
0C00
1800
0000
FFC0
0040
0080
0100
0200
0400
0800
1000
2000
4000
8000
FFC0
ENDCHAR
STARTCHAR 017A
ENCODING 378
SWIDTH 562 0
DWIDTH 9 0
BBX 7 13 1 0
BITMAP
06
0C
18
00
FE
02
04
08
10
20
40
80
FE
ENDCHAR
STARTCHAR 017B
ENCODING 379
SWIDTH 750 0
DWIDTH 12 0
BBX 10 15 1 0
BITMAP
1800
1800
0000
FFC0
0040
0080
0100
0200
0400
0800
1000
2000
4000
8000
FFC0
ENDCHAR
STARTCHAR 017C
ENCODING 380
SWIDTH 562 0
DWIDTH 9 0
BBX 7 12 1 0
BITMAP
20
20
00
FE
02
04
08
10
20
40
80
FE
ENDCHAR
STARTCHAR 017D
ENCODING 381
SWIDTH 750 0
DWIDTH 12 0
BBX 10 15 1 0
BITMAP
3600
1C00
0000
FFC0
0040
0080
0100
0200
0400
0800
1000
2000
4000
8000
FFC0
ENDCHAR
STARTCHAR 017E
ENCODING 382
SWIDTH 562 0
DWIDTH 9 0
BBX 7 13 1 0
BITMAP
44
28
10
00
FE
02
04
08
10
20
40
80
FE
ENDCHAR
STARTCHAR 017F
ENCODING 383
SWIDTH 375 0
DWIDTH 6 0
BBX 5 12 1 0
BITMAP
38
40
40
C0
40
40
40
40
40
40
40
40
ENDCHAR
STARTCHAR 0180
ENCODING 384
SWIDTH 625 0
DWIDTH 10 0
BBX 9 12 0 0
BITMAP
4000
F800
4000
5E00
6100
4080
4080
4080
4080
4080
6100
5E00
ENDCHAR
STARTCHAR 0181
ENCODING 385
SWIDTH 750 0
DWIDTH 12 0
BBX 12 12 -2 0
BITMAP
7FC0
D030
9010
1010
1030
1FE0
1030
1010
1010
1010
1020
1FC0
ENDCHAR
STARTCHAR 0182
ENCODING 386
SWIDTH 687 0
DWIDTH 11 0
BBX 9 12 1 0
BITMAP
FF00
8000
8000
8000
8000
FE00
8100
8080
8080
8080
8100
FE00
ENDCHAR
STARTCHAR 0183
ENCODING 387
SWIDTH 625 0
DWIDTH 10 0
BBX 8 12 1 0
BITMAP
FE
80
80
BC
C2
81
81
81
81
81
C2
BC
ENDCHAR
STARTCHAR 0184
ENCODING 388
SWIDTH 750 0
DWIDTH 12 0
BBX 11 12 0 0
BITMAP
2000
6000
E000
2000
2000
3F80
2040
2020
2020
2020
2040
3F80
ENDCHAR
STARTCHAR 0185
ENCODING 389
SWIDTH 625 0
DWIDTH 10 0
BBX 9 12 0 0
BITMAP
4000
4000
C000
DE00
6100
4080
4080
4080
4080
4080
6100
5E00
ENDCHAR
STARTCHAR 0186
ENCODING 390
SWIDTH 687 0
DWIDTH 11 0
BBX 9 12 1 0
BITMAP
7C00
8200
0100
0080
0080
0080
0080
0080
0080
0100
8200
7C00
ENDCHAR
STARTCHAR 0187
ENCODING 391
SWIDTH 687 0
DWIDTH 11 0
BBX 12 15 1 0
BITMAP
0070
00C0
0080
1F80
2180
4000
8000
8000
8000
8000
8000
8000
4000
2180
1F00
ENDCHAR
STARTCHAR 0188
ENCODING 392
SWIDTH 562 0
DWIDTH 9 0
BBX 9 12 1 0
BITMAP
0180
0380
0200
3E00
4200
8000
8000
8000
8000
8000
4200
3C00
ENDCHAR
STARTCHAR 0189
ENCODING 393
SWIDTH 750 0
DWIDTH 12 0
BBX 12 12 0 0
BITMAP
3F80
20C0
2020
2010
2010
FC10
2010
2010
2010
2020
20C0
3F80
ENDCHAR
STARTCHAR 018A
ENCODING 394
SWIDTH 812 0
DWIDTH 13 0
BBX 13 12 -2 0
BITMAP
7FC0
D060
9010
1008
1008
1008
1008
1008
1008
1010
1060
1FC0
ENDCHAR
STARTCHAR 018B
ENCODING 395
SWIDTH 687 0
DWIDTH 11 0
BBX 9 12 1 0
BITMAP
3F80
0080
0080
0080
0080
3F80
4080
8080
8080
8080
4080
3F80
ENDCHAR
STARTCHAR 018C
ENCODING 396
SWIDTH 625 0
DWIDTH 10 0
BBX 8 12 1 0
BITMAP
7F
01
01
3D
43
81
81
81
81
81
43
3D
ENDCHAR
STARTCHAR 018D
ENCODING 397
SWIDTH 625 0
DWIDTH 10 0
BBX 8 12 1 -3
BITMAP
3C
42
81
81
81
81
81
42
3C
02
42
3C
ENDCHAR
STARTCHAR 018E
ENCODING 398
SWIDTH 687 0
DWIDTH 11 0
BBX 8 12 1 0
BITMAP
FF
01
01
01
01
FF
01
01
01
01
01
FF
ENDCHAR
STARTCHAR 018F
ENCODING 399
SWIDTH 812 0
DWIDTH 13 0
BBX 11 12 1 0
BITMAP
7F00
4080
0040
0020
0020
0020
FFE0
8020
8020
4040
2080
1F00
ENDCHAR
STARTCHAR 0190
ENCODING 400
SWIDTH 562 0
DWIDTH 9 0
BBX 7 12 1 0
BITMAP
3C
C2
80
80
40
38
C0
80
80
80
42
3C
ENDCHAR
STARTCHAR 0191
ENCODING 401
SWIDTH 562 0
DWIDTH 9 0
BBX 9 15 -1 -3
BITMAP
3F80
2000
2000
2000
2000
3F00
2000
2000
2000
2000
2000
2000
2000
2000
C000
ENDCHAR
STARTCHAR 0192
ENCODING 402
SWIDTH 375 0
DWIDTH 6 0
BBX 7 15 -1 -3
BITMAP
0E
10
10
3C
10
10
10
10
10
10
10
10
10
10
E0
ENDCHAR
STARTCHAR 0193
ENCODING 403
SWIDTH 750 0
DWIDTH 12 0
BBX 13 15 1 0
BITMAP
0038
0060
0040
1FC0
20C0
4040
8000
8000
8000
83C0
8040
8040
4040
2040
1F80
ENDCHAR
STARTCHAR 0194
ENCODING 404
SWIDTH 687 0
DWIDTH 11 0
BBX 11 15 0 -3
BITMAP
8020
4040
4040
2080
3180
1100
1B00
0A00
0600
0400
0A00
0A00
1100
1100
0E00
ENDCHAR
STARTCHAR 0195
ENCODING 405
SWIDTH 937 0
DWIDTH 15 0
BBX 13 12 1 0
BITMAP
8000
8000
8000
BC20
C210
8108
8108
8108
8108
8108
8110
80E0
ENDCHAR
STARTCHAR 0196
ENCODING 406
SWIDTH 375 0
DWIDTH 6 0
BBX 4 12 2 0
BITMAP
80
80
80
80
80
80
80
80
80
80
C0
70
ENDCHAR
STARTCHAR 0197
ENCODING 407
SWIDTH 312 0
DWIDTH 5 0
BBX 6 12 -1 0
BITMAP
10
10
10
10
10
10
FC
10
10
10
10
10
ENDCHAR
STARTCHAR 0198
ENCODING 408
SWIDTH 750 0
DWIDTH 12 0
BBX 10 12 1 0
BITMAP
8380
8640
8C40
9800
B000
E000
A000
9000
8800
8400
8200
8100
ENDCHAR
STARTCHAR 0199
ENCODING 409
SWIDTH 562 0
DWIDTH 9 0
BBX 7 12 1 0
BITMAP
70
80
80
82
84
88
90
E0
90
88
84
82
ENDCHAR
STARTCHAR 019A
ENCODING 410
SWIDTH 187 0
DWIDTH 3 0
BBX 3 12 0 0
BITMAP
40
40
40
40
40
40
E0
40
40
40
40
40
ENDCHAR
STARTCHAR 019B
ENCODING 411
SWIDTH 562 0
DWIDTH 9 0
BBX 9 12 0 0
BITMAP
2C00
7800
D000
0800
1800
1400
3400
2200
2200
4100
4100
8080
ENDCHAR
STARTCHAR 019C
ENCODING 412
SWIDTH 937 0
DWIDTH 15 0
BBX 13 12 1 0
BITMAP
8208
8208
8208
8208
8208
8208
8208
8208
8208
8208
4718
79E8
ENDCHAR
STARTCHAR 019D
ENCODING 413
SWIDTH 750 0
DWIDTH 12 0
BBX 12 15 -1 -3
BITMAP
3010
2810
2810
2410
2210
2210
2110
2090
2090
2050
2050
2030
2000
2000
C000
ENDCHAR
STARTCHAR 019E
ENCODING 414
SWIDTH 625 0
DWIDTH 10 0
BBX 8 12 1 -3
BITMAP
BE
C3
81
81
81
81
81
81
81
01
01
01
ENDCHAR
STARTCHAR 019F
ENCODING 415
SWIDTH 812 0
DWIDTH 13 0
BBX 11 12 1 0
BITMAP
1F00
2080
4040
8020
8020
FFE0
8020
8020
C020
4040
2080
1F00
ENDCHAR
STARTCHAR 01A0
ENCODING 416
SWIDTH 937 0
DWIDTH 15 0
BBX 11 12 1 0
BITMAP
1F20
20A0
4060
8020
8020
8020
8020
8020
8020
4040
2080
1F00
ENDCHAR
STARTCHAR 01A1
ENCODING 417
SWIDTH 625 0
DWIDTH 10 0
BBX 9 10 1 0
BITMAP
0080
3C80
4380
8100
8100
8100
8100
8100
4200
3C00
ENDCHAR
STARTCHAR 01A2
ENCODING 418
SWIDTH 937 0
DWIDTH 15 0
BBX 12 12 1 0
BITMAP
1FE0
20B0
4090
8090
8090
8090
8090
8090
8090
4090
2190
1E10
ENDCHAR
STARTCHAR 01A3
ENCODING 419
SWIDTH 750 0
DWIDTH 12 0
BBX 9 12 1 -3
BITMAP
3F00
4280
8280
8280
8280
8280
8280
4280
3C80
0080
0080
0080
ENDCHAR
STARTCHAR 01A4
ENCODING 420
SWIDTH 625 0
DWIDTH 10 0
BBX 11 12 -2 0
BITMAP
7F80
D040
9020
1020
1020
1040
1F80
1000
1000
1000
1000
1000
ENDCHAR
STARTCHAR 01A5
ENCODING 421
SWIDTH 625 0
DWIDTH 10 0
BBX 8 15 1 -3
BITMAP
78
80
80
BC
C2
81
81
81
81
81
C2
BC
80
80
80
ENDCHAR
STARTCHAR 01A6
ENCODING 422
SWIDTH 687 0
DWIDTH 11 0
BBX 9 14 1 -2
BITMAP
8000
8000
FC00
8200
8100
8100
8100
8300
FE00
8200
8100
8100
0080
0080
ENDCHAR
STARTCHAR 01A7
ENCODING 423
SWIDTH 625 0
DWIDTH 10 0
BBX 8 12 1 0
BITMAP
3C
63
01
01
01
0E
78
80
80
81
C3
3E
ENDCHAR
STARTCHAR 01A8
ENCODING 424
SWIDTH 562 0
DWIDTH 9 0
BBX 7 9 1 0
BITMAP
7C
82
02
06
3C
C0
80
82
7C
ENDCHAR
STARTCHAR 01A9
ENCODING 425
SWIDTH 625 0
DWIDTH 10 0
BBX 7 12 1 0
BITMAP
FE
C0
60
20
10
08
10
30
20
40
C0
FE
ENDCHAR
STARTCHAR 01AA
ENCODING 426
SWIDTH 312 0
DWIDTH 5 0
BBX 8 15 -2 -3
BITMAP
F0
88
FC
08
08
08
08
08
08
08
08
08
08
08
07
ENDCHAR
STARTCHAR 01AB
ENCODING 427
SWIDTH 375 0
DWIDTH 6 0
BBX 5 14 0 -3
BITMAP
40
40
F8
40
40
40
40
40
40
40
38
08
08
30
ENDCHAR
STARTCHAR 01AC
ENCODING 428
SWIDTH 562 0
DWIDTH 9 0
BBX 9 12 0 0
BITMAP
7F80
8800
8800
0800
0800
0800
0800
0800
0800
0800
0800
0800
ENDCHAR
STARTCHAR 01AD
ENCODING 429
SWIDTH 375 0
DWIDTH 6 0
BBX 5 12 0 0
BITMAP
38
40
40
F8
40
40
40
40
40
40
40
38
ENDCHAR
STARTCHAR 01AE
ENCODING 430
SWIDTH 562 0
DWIDTH 9 0
BBX 9 15 0 -3
BITMAP
FF80
0800
0800
0800
0800
0800
0800
0800
0800
0800
0800
0800
0800
0800
0600
ENDCHAR
STARTCHAR 01AF
ENCODING 431
SWIDTH 875 0
DWIDTH 14 0
BBX 12 12 1 0
BITMAP
8050
8050
8070
8040
8040
8040
8040
8040
8040
8040
4080
3F00
ENDCHAR
STARTCHAR 01B0
ENCODING 432
SWIDTH 625 0
DWIDTH 10 0
BBX 10 10 1 0
BITMAP
0040
8140
81C0
8100
8100
8100
8100
8100
4300
3D00
ENDCHAR
STARTCHAR 01B1
ENCODING 433
SWIDTH 812 0
DWIDTH 13 0
BBX 12 12 0 0
BITMAP
F8F0
1040
2020
6020
4010
4010
4010
4010
4010
2020
1040
0F80
ENDCHAR
STARTCHAR 01B2
ENCODING 434
SWIDTH 750 0
DWIDTH 12 0
BBX 9 12 1 0
BITMAP
8000
8000
8300
8100
8080
8080
8080
8080
8080
8100
C300
7C00
ENDCHAR
STARTCHAR 01B3
ENCODING 435
SWIDTH 750 0
DWIDTH 12 0
BBX 12 12 0 0
BITMAP
C0E0
4110
2210
2200
1400
0800
0800
0800
0800
0800
0800
0800
ENDCHAR
STARTCHAR 01B4
ENCODING 436
SWIDTH 750 0
DWIDTH 12 0
BBX 11 12 0 -3
BITMAP
81C0
4120
4120
6200
2200
2600
1400
1400
0800
0800
1800
7000
ENDCHAR
STARTCHAR 01B5
ENCODING 437
SWIDTH 750 0
DWIDTH 12 0
BBX 10 12 1 0
BITMAP
FFC0
0040
0080
0100
0200
7F80
0800
1000
2000
4000
8000
FFC0
ENDCHAR
STARTCHAR 01B6
ENCODING 438
SWIDTH 562 0
DWIDTH 9 0
BBX 7 9 1 0
BITMAP
FE
02
04
08
7E
20
40
80
FE
ENDCHAR
STARTCHAR 01B7
ENCODING 439
SWIDTH 687 0
DWIDTH 11 0
BBX 9 12 1 0
BITMAP
FF00
0200
0600
0C00
0800
1E00
0100
0080
0080
8080
C100
7E00
ENDCHAR
STARTCHAR 01B8
ENCODING 440
SWIDTH 687 0
DWIDTH 11 0
BBX 9 12 1 0
BITMAP
7F80
2000
3000
1800
0800
3C00
4000
8000
8000
8080
4180
3F00
ENDCHAR
STARTCHAR 01B9
ENCODING 441
SWIDTH 562 0
DWIDTH 9 0
BBX 8 12 1 -3
BITMAP
7F
40
20
10
08
04
3C
40
80
80
C1
3E
ENDCHAR
STARTCHAR 01BA
ENCODING 442
SWIDTH 500 0
DWIDTH 8 0
BBX 7 12 1 -4
BITMAP
FE
06
0C
18
30
3C
06
06
7C
C0
C2
7E
ENDCHAR
STARTCHAR 01BB
ENCODING 443
SWIDTH 625 0
DWIDTH 10 0
BBX 8 12 1 0
BITMAP
7C
EE
02
03
02
06
7E
18
30
60
C0
FF
ENDCHAR
STARTCHAR 01BC
ENCODING 444
SWIDTH 625 0
DWIDTH 10 0
BBX 9 12 0 0
BITMAP
7F00
4000
4000
4000
4000
7E00
0100
0080
0080
8080
C100
3E00
ENDCHAR
STARTCHAR 01BD
ENCODING 445
SWIDTH 562 0
DWIDTH 9 0
BBX 8 12 0 -3
BITMAP
7E
40
40
40
40
7C
02
01
01
01
82
7C
ENDCHAR
STARTCHAR 01BE
ENCODING 446
SWIDTH 500 0
DWIDTH 8 0
BBX 6 11 1 0
BITMAP
20
20
F8
20
30
1C
04
04
04
0C
F8
ENDCHAR
STARTCHAR 01BF
ENCODING 447
SWIDTH 625 0
DWIDTH 10 0
BBX 8 12 1 -3
BITMAP
9E
E3
C1
81
83
86
8C
98
B0
C0
80
80
ENDCHAR
STARTCHAR 01C0
ENCODING 448
SWIDTH 250 0
DWIDTH 4 0
BBX 1 15 1 -3
BITMAP
80
80
80
80
80
80
80
80
80
80
80
80
80
80
80
ENDCHAR
STARTCHAR 01C1
ENCODING 449
SWIDTH 500 0
DWIDTH 8 0
BBX 4 15 1 -3
BITMAP
90
90
90
90
90
90
90
90
90
90
90
90
90
90
90
ENDCHAR
STARTCHAR 01C2
ENCODING 450
SWIDTH 437 0
DWIDTH 7 0
BBX 7 15 0 -3
BITMAP
10
10
10
10
10
FE
10
10
FE
10
10
10
10
10
10
ENDCHAR
STARTCHAR 01C3
ENCODING 451
SWIDTH 312 0
DWIDTH 5 0
BBX 1 12 1 0
BITMAP
80
80
80
80
80
80
80
80
00
00
80
80
ENDCHAR
STARTCHAR 01C4
ENCODING 452
SWIDTH 1437 0
DWIDTH 23 0
BBX 21 15 1 0
BITMAP
0006C0
000380
000000
FE1FF8
830008
808010
804020
804040
804080
804100
804200
804400
808800
831000
FE1FF8
ENDCHAR
STARTCHAR 01C5
ENCODING 453
SWIDTH 1312 0
DWIDTH 21 0
BBX 19 13 1 0
BITMAP
000440
FE0280
830100
808000
804FE0
804020
804040
804080
804100
804200
808400
830800
FE0FE0
ENDCHAR
STARTCHAR 01C6
ENCODING 454
SWIDTH 1125 0
DWIDTH 18 0
BBX 16 13 1 0
BITMAP
0022
0114
0108
0100
3D7F
4301
8102
8104
8108
8110
8120
4340
3D7F
ENDCHAR
STARTCHAR 01C7
ENCODING 455
SWIDTH 812 0
DWIDTH 13 0
BBX 11 15 1 -3
BITMAP
8020
8020
8020
8020
8020
8020
8020
8020
8020
8020
8020
FE20
0020
0020
00C0
ENDCHAR
STARTCHAR 01C8
ENCODING 456
SWIDTH 812 0
DWIDTH 13 0
BBX 10 15 1 -3
BITMAP
8040
8040
8000
8040
8040
8040
8040
8040
8040
8040
8040
FE40
0040
0040
0180
ENDCHAR
STARTCHAR 01C9
ENCODING 457
SWIDTH 437 0
DWIDTH 7 0
BBX 4 15 1 -3
BITMAP
90
90
80
90
90
90
90
90
90
90
90
90
10
10
60
ENDCHAR
STARTCHAR 01CA
ENCODING 458
SWIDTH 937 0
DWIDTH 15 0
BBX 13 15 1 -3
BITMAP
C048
A048
A048
9048
8848
8848
8448
8248
8248
8148
8148
80C8
0008
0008
0030
ENDCHAR
STARTCHAR 01CB
ENCODING 459
SWIDTH 937 0
DWIDTH 15 0
BBX 11 15 1 -3
BITMAP
C060
A060
A040
9060
8860
8860
8460
8260
8260
8160
8160
80E0
0020
0020
00C0
ENDCHAR
STARTCHAR 01CC
ENCODING 460
SWIDTH 812 0
DWIDTH 13 0
BBX 10 15 1 -3
BITMAP
0040
0040
0000
BC40
C240
8140
8140
8140
8140
8140
8140
8140
0040
0040
0180
ENDCHAR
STARTCHAR 01CD
ENCODING 461
SWIDTH 687 0
DWIDTH 11 0
BBX 11 15 0 0
BITMAP
1B00
0E00
0000
0400
0400
0A00
0A00
1100
1100
2080
2080
3F80
4040
4040
8020
ENDCHAR
STARTCHAR 01CE
ENCODING 462
SWIDTH 562 0
DWIDTH 9 0
BBX 7 13 1 0
BITMAP
44
28
10
00
3C
46
02
7E
C2
82
82
C6
7A
ENDCHAR
STARTCHAR 01CF
ENCODING 463
SWIDTH 312 0
DWIDTH 5 0
BBX 5 15 0 0
BITMAP
D8
70
00
20
20
20
20
20
20
20
20
20
20
20
20
ENDCHAR
STARTCHAR 01D0
ENCODING 464
SWIDTH 187 0
DWIDTH 3 0
BBX 5 13 -1 0
BITMAP
88
50
20
00
20
20
20
20
20
20
20
20
20
ENDCHAR
STARTCHAR 01D1
ENCODING 465
SWIDTH 812 0
DWIDTH 13 0
BBX 11 15 1 0
BITMAP
1B00
0E00
0000
1F00
2080
4040
8020
8020
8020
8020
8020
8020
4040
2080
1F00
ENDCHAR
STARTCHAR 01D2
ENCODING 466
SWIDTH 625 0
DWIDTH 10 0
BBX 8 13 1 0
BITMAP
24
3C
18
00
3C
42
81
81
81
81
81
42
3C
ENDCHAR
STARTCHAR 01D3
ENCODING 467
SWIDTH 750 0
DWIDTH 12 0
BBX 10 15 1 0
BITMAP
1200
0C00
0000
8040
8040
8040
8040
8040
8040
8040
8040
8040
8040
4080
3F00
ENDCHAR
STARTCHAR 01D4
ENCODING 468
SWIDTH 625 0
DWIDTH 10 0
BBX 8 13 1 0
BITMAP
24
3C
18
00
81
81
81
81
81
81
81
43
3D
ENDCHAR
STARTCHAR 01D5
ENCODING 469
SWIDTH 750 0
DWIDTH 12 0
BBX 10 16 1 0
BITMAP
3E00
2400
2400
0000
8040
8040
8040
8040
8040
8040
8040
8040
8040
8040
4080
3F00
ENDCHAR
STARTCHAR 01D6
ENCODING 470
SWIDTH 625 0
DWIDTH 10 0
BBX 8 14 1 0
BITMAP
3E
00
24
24
00
81
81
81
81
81
81
81
43
3D
ENDCHAR
STARTCHAR 01D7
ENCODING 471
SWIDTH 750 0
DWIDTH 12 0
BBX 10 17 1 0
BITMAP
0600
0C00
2400
2400
0000
8040
8040
8040
8040
8040
8040
8040
8040
8040
8040
4080
3F00
ENDCHAR
STARTCHAR 01D8
ENCODING 472
SWIDTH 625 0
DWIDTH 10 0
BBX 8 15 1 0
BITMAP
0C
18
48
48
00
00
81
81
81
81
81
81
81
43
3D
ENDCHAR
STARTCHAR 01D9
ENCODING 473
SWIDTH 750 0
DWIDTH 12 0
BBX 10 17 1 0
BITMAP
3600
1C00
2400
2400
0000
8040
8040
8040
8040
8040
8040
8040
8040
8040
8040
4080
3F00
ENDCHAR
STARTCHAR 01DA
ENCODING 474
SWIDTH 625 0
DWIDTH 10 0
BBX 8 15 1 0
BITMAP
36
1C
24
24
00
00
81
81
81
81
81
81
81
43
3D
ENDCHAR
STARTCHAR 01DB
ENCODING 475
SWIDTH 750 0
DWIDTH 12 0
BBX 10 17 1 0
BITMAP
3000
1800
2400
2400
0000
8040
8040
8040
8040
8040
8040
8040
8040
8040
8040
4080
3F00
ENDCHAR
STARTCHAR 01DC
ENCODING 476
SWIDTH 625 0
DWIDTH 10 0
BBX 8 15 1 0
BITMAP
60
30
48
48
00
00
81
81
81
81
81
81
81
43
3D
ENDCHAR
STARTCHAR 01DD
ENCODING 477
SWIDTH 625 0
DWIDTH 10 0
BBX 7 9 1 0
BITMAP
78
84
02
02
FE
82
82
44
38
ENDCHAR
STARTCHAR 01DE
ENCODING 478
SWIDTH 687 0
DWIDTH 11 0
BBX 11 16 0 0
BITMAP
1F00
1200
1200
0000
0400
0400
0A00
0A00
1100
1100
2080
2080
3F80
4040
4040
8020
ENDCHAR
STARTCHAR 01DF
ENCODING 479
SWIDTH 562 0
DWIDTH 9 0
BBX 7 14 1 0
BITMAP
3E
00
24
24
00
3C
46
02
7E
C2
82
82
C6
7A
ENDCHAR
STARTCHAR 01E0
ENCODING 480
SWIDTH 687 0
DWIDTH 11 0
BBX 11 16 0 0
BITMAP
1F00
0C00
0C00
0000
0400
0400
0A00
0A00
1100
1100
2080
2080
3F80
4040
4040
8020
ENDCHAR
STARTCHAR 01E1
ENCODING 481
SWIDTH 562 0
DWIDTH 9 0
BBX 7 14 1 0
BITMAP
7C
30
30
00
00
3C
46
02
7E
C2
82
82
C6
7A
ENDCHAR
STARTCHAR 01E2
ENCODING 482
SWIDTH 1000 0
DWIDTH 16 0
BBX 15 14 0 0
BITMAP
00F8
0000
07FE
0900
0900
1100
1100
11FE
2100
2100
7F00
4100
4100
81FE
ENDCHAR
STARTCHAR 01E3
ENCODING 483
SWIDTH 1000 0
DWIDTH 16 0
BBX 14 12 1 0
BITMAP
07C0
0000
0000
3DF0
4708
0204
7E04
C3FC
8200
8200
C504
78F8
ENDCHAR
STARTCHAR 01E4
ENCODING 484
SWIDTH 750 0
DWIDTH 12 0
BBX 11 12 1 0
BITMAP
1F80
20C0
4040
8000
8000
8000
83C0
8040
81E0
4040
2040
1F80
ENDCHAR
STARTCHAR 01E5
ENCODING 485
SWIDTH 625 0
DWIDTH 10 0
BBX 9 12 1 -3
BITMAP
3D00
4300
8100
8100
8100
8100
8100
4300
3D00
7F80
4600
3C00
ENDCHAR
STARTCHAR 01E6
ENCODING 486
SWIDTH 750 0
DWIDTH 12 0
BBX 10 15 1 0
BITMAP
0900
0600
0000
1F80
20C0
4040
8000
8000
8000
83C0
8040
8040
4040
2040
1F80
ENDCHAR
STARTCHAR 01E7
ENCODING 487
SWIDTH 625 0
DWIDTH 10 0
BBX 8 16 1 -3
BITMAP
22
14
08
00
3D
43
81
81
81
81
81
43
3D
01
42
3C
ENDCHAR
STARTCHAR 01E8
ENCODING 488
SWIDTH 625 0
DWIDTH 10 0
BBX 8 15 1 0
BITMAP
36
1C
00
81
82
84
88
90
E0
A0
90
88
84
82
81
ENDCHAR
STARTCHAR 01E9
ENCODING 489
SWIDTH 562 0
DWIDTH 9 0
BBX 9 15 -1 0
BITMAP
D800
7000
0000
2000
2000
2000
2080
2100
2200
2400
3800
2400
2200
2100
2080
ENDCHAR
STARTCHAR 01EA
ENCODING 490
SWIDTH 812 0
DWIDTH 13 0
BBX 11 15 1 -3
BITMAP
1F00
2080
4040
8020
8020
8020
8020
8020
8020
4040
2080
1F00
0000
0800
0E00
ENDCHAR
STARTCHAR 01EB
ENCODING 491
SWIDTH 625 0
DWIDTH 10 0
BBX 8 12 1 -3
BITMAP
3C
42
81
81
81
81
81
42
3C
00
10
1C
ENDCHAR
STARTCHAR 01EC
ENCODING 492
SWIDTH 812 0
DWIDTH 13 0
BBX 11 17 1 -3
BITMAP
1F00
0000
1F00
2080
4040
8020
8020
8020
8020
8020
8020
4040
2080
1F00
0000
0800
0E00
ENDCHAR
STARTCHAR 01ED
ENCODING 493
SWIDTH 625 0
DWIDTH 10 0
BBX 8 15 1 -3
BITMAP
3E
00
00
3C
42
81
81
81
81
81
42
3C
00
10
1C
ENDCHAR
STARTCHAR 01EE
ENCODING 494
SWIDTH 687 0
DWIDTH 11 0
BBX 9 15 1 0
BITMAP
3600
1C00
0000
FF00
0200
0600
0C00
0800
1E00
0100
0080
0080
8080
C100
7E00
ENDCHAR
STARTCHAR 01EF
ENCODING 495
SWIDTH 562 0
DWIDTH 9 0
BBX 8 16 1 -3
BITMAP
44
28
10
00
FE
02
04
08
10
20
3C
02
01
01
83
7C
ENDCHAR
STARTCHAR 01F0
ENCODING 496
SWIDTH 250 0
DWIDTH 4 0
BBX 5 16 -1 -3
BITMAP
88
50
20
00
20
20
20
20
20
20
20
20
20
20
20
C0
ENDCHAR
STARTCHAR 01F1
ENCODING 497
SWIDTH 1437 0
DWIDTH 23 0
BBX 21 12 1 0
BITMAP
FE1FF8
830008
808010
804020
804040
804080
804100
804200
804400
808800
831000
FE1FF8
ENDCHAR
STARTCHAR 01F2
ENCODING 498
SWIDTH 1312 0
DWIDTH 21 0
BBX 19 12 1 0
BITMAP
FE0000
830000
808000
804FE0
804020
804040
804080
804100
804200
808400
830800
FE0FE0
ENDCHAR
STARTCHAR 01F3
ENCODING 499
SWIDTH 1125 0
DWIDTH 18 0
BBX 16 12 1 0
BITMAP
0100
0100
0100
3D7F
4301
8102
8104
8108
8110
8120
4340
3D7F
ENDCHAR
STARTCHAR 01F4
ENCODING 500
SWIDTH 750 0
DWIDTH 12 0
BBX 10 15 1 0
BITMAP
0600
0C00
0000
1F80
20C0
4040
8000
8000
8000
83C0
8040
8040
4040
2040
1F80
ENDCHAR
STARTCHAR 01F5
ENCODING 501
SWIDTH 625 0
DWIDTH 10 0
BBX 8 16 1 -3
BITMAP
0C
18
30
00
3D
43
81
81
81
81
81
43
3D
01
42
3C
ENDCHAR
STARTCHAR 01F6
ENCODING 502
SWIDTH 1125 0
DWIDTH 18 0
BBX 16 12 1 0
BITMAP
8040
8040
8040
8041
8041
FFC1
8041
8041
8041
8041
8063
803E
ENDCHAR
STARTCHAR 01F7
ENCODING 503
SWIDTH 625 0
DWIDTH 10 0
BBX 8 15 1 -3
BITMAP
9E
E3
C1
81
81
82
86
8C
98
E0
C0
80
80
80
80
ENDCHAR
STARTCHAR 01F8
ENCODING 504
SWIDTH 750 0
DWIDTH 12 0
BBX 10 15 1 0
BITMAP
1800
0C00
0000
C040
A040
A040
9040
8840
8840
8440
8240
8240
8140
8140
80C0
ENDCHAR
STARTCHAR 01F9
ENCODING 505
SWIDTH 625 0
DWIDTH 10 0
BBX 8 13 1 0
BITMAP
30
18
0C
00
BC
C2
81
81
81
81
81
81
81
ENDCHAR
STARTCHAR 01FA
ENCODING 506
SWIDTH 687 0
DWIDTH 11 0
BBX 11 15 0 0
BITMAP
0E60
11C0
1100
0E00
0A00
1100
1100
1100
2080
2080
4040
7FC0
4040
8020
8020
ENDCHAR
STARTCHAR 01FB
ENCODING 507
SWIDTH 562 0
DWIDTH 9 0
BBX 9 15 1 0
BITMAP
0180
1B00
2400
2400
1800
0000
3C00
4600
0200
7E00
C200
8200
8200
C600
7A00
ENDCHAR
STARTCHAR 01FC
ENCODING 508
SWIDTH 1000 0
DWIDTH 16 0
BBX 15 15 0 0
BITMAP
0060
00C0
0000
07FE
0900
0900
1100
1100
11FE
2100
2100
7F00
4100
4100
81FE
ENDCHAR
STARTCHAR 01FD
ENCODING 509
SWIDTH 1000 0
DWIDTH 16 0
BBX 14 13 1 0
BITMAP
0180
0300
0600
0000
3DF0
4708
0204
7E04
C3FC
8200
8200
C504
78F8
ENDCHAR
STARTCHAR 01FE
ENCODING 510
SWIDTH 812 0
DWIDTH 13 0
BBX 11 15 1 -1
BITMAP
0600
0C00
0000
1F20
20C0
40C0
8120
8220
8420
8420
8820
9020
6040
6080
9F00
ENDCHAR
STARTCHAR 01FF
ENCODING 511
SWIDTH 625 0
DWIDTH 10 0
BBX 8 13 1 -1
BITMAP
0C
18
30
00
3D
42
85
89
89
91
A1
42
BC
ENDCHAR
STARTCHAR 0200
ENCODING 512
SWIDTH 687 0
DWIDTH 11 0
BBX 11 15 0 0
BITMAP
1200
0B00
0000
0400
0400
0A00
0A00
1100
1100
2080
2080
3F80
4040
4040
8020
ENDCHAR
STARTCHAR 0201
ENCODING 513
SWIDTH 562 0
DWIDTH 9 0
BBX 7 13 1 0
BITMAP
D8
48
24
00
3C
46
02
7E
C2
82
82
C6
7A
ENDCHAR
STARTCHAR 0202
ENCODING 514
SWIDTH 687 0
DWIDTH 11 0
BBX 11 14 0 0
BITMAP
1E00
1200
0400
0400
0A00
0A00
1100
1100
2080
2080
3F80
4040
4040
8020
ENDCHAR
STARTCHAR 0203
ENCODING 515
SWIDTH 562 0
DWIDTH 9 0
BBX 7 12 1 0
BITMAP
38
44
00
3C
46
02
7E
C2
82
82
C6
7A
ENDCHAR
STARTCHAR 0204
ENCODING 516
SWIDTH 625 0
DWIDTH 10 0
BBX 8 15 1 0
BITMAP
48
2C
00
FF
80
80
80
80
FF
80
80
80
80
80
FF
ENDCHAR
STARTCHAR 0205
ENCODING 517
SWIDTH 562 0
DWIDTH 9 0
BBX 7 13 1 0
BITMAP
D8
48
24
00
38
44
82
82
FE
80
80
42
3C
ENDCHAR
STARTCHAR 0206
ENCODING 518
SWIDTH 625 0
DWIDTH 10 0
BBX 8 14 1 0
BITMAP
3C
24
FF
80
80
80
80
FF
80
80
80
80
80
FF
ENDCHAR
STARTCHAR 0207
ENCODING 519
SWIDTH 562 0
DWIDTH 9 0
BBX 7 12 1 0
BITMAP
38
44
00
38
44
82
82
FE
80
80
42
3C
ENDCHAR
STARTCHAR 0208
ENCODING 520
SWIDTH 312 0
DWIDTH 5 0
BBX 5 15 0 0
BITMAP
90
58
00
20
20
20
20
20
20
20
20
20
20
20
20
ENDCHAR
STARTCHAR 0209
ENCODING 521
SWIDTH 187 0
DWIDTH 3 0
BBX 6 13 -1 0
BITMAP
D8
48
24
00
20
20
20
20
20
20
20
20
20
ENDCHAR
STARTCHAR 020A
ENCODING 522
SWIDTH 312 0
DWIDTH 5 0
BBX 4 14 0 0
BITMAP
F0
90
20
20
20
20
20
20
20
20
20
20
20
20
ENDCHAR
STARTCHAR 020B
ENCODING 523
SWIDTH 187 0
DWIDTH 3 0
BBX 5 12 -1 0
BITMAP
70
88
00
20
20
20
20
20
20
20
20
20
ENDCHAR
STARTCHAR 020C
ENCODING 524
SWIDTH 812 0
DWIDTH 13 0
BBX 11 15 1 0
BITMAP
1200
0B00
0000
1F00
2080
4040
8020
8020
8020
8020
8020
8020
4040
2080
1F00
ENDCHAR
STARTCHAR 020D
ENCODING 525
SWIDTH 625 0
DWIDTH 10 0
BBX 8 13 1 0
BITMAP
D8
48
24
00
3C
42
81
81
81
81
81
42
3C
ENDCHAR
STARTCHAR 020E
ENCODING 526
SWIDTH 812 0
DWIDTH 13 0
BBX 11 14 1 0
BITMAP
1E00
1200
1F00
2080
4040
8020
8020
8020
8020
8020
8020
4040
2080
1F00
ENDCHAR
STARTCHAR 020F
ENCODING 527
SWIDTH 625 0
DWIDTH 10 0
BBX 8 12 1 0
BITMAP
38
44
00
3C
42
81
81
81
81
81
42
3C
ENDCHAR
STARTCHAR 0210
ENCODING 528
SWIDTH 687 0
DWIDTH 11 0
BBX 9 15 1 0
BITMAP
4800
2C00
0000
FC00
8200
8100
8100
8100
8200
FE00
8200
8100
8100
8080
8080
ENDCHAR
STARTCHAR 0211
ENCODING 529
SWIDTH 437 0
DWIDTH 7 0
BBX 6 13 0 0
BITMAP
D8
48
24
00
5C
60
40
40
40
40
40
40
40
ENDCHAR
STARTCHAR 0212
ENCODING 530
SWIDTH 687 0
DWIDTH 11 0
BBX 9 14 1 0
BITMAP
3C00
2400
FC00
8200
8100
8100
8100
8200
FE00
8200
8100
8100
8080
8080
ENDCHAR
STARTCHAR 0213
ENCODING 531
SWIDTH 437 0
DWIDTH 7 0
BBX 5 12 1 0
BITMAP
70
88
00
B8
C0
80
80
80
80
80
80
80
ENDCHAR
STARTCHAR 0214
ENCODING 532
SWIDTH 750 0
DWIDTH 12 0
BBX 10 15 1 0
BITMAP
2400
1600
0000
8040
8040
8040
8040
8040
8040
8040
8040
8040
8040
4080
3F00
ENDCHAR
STARTCHAR 0215
ENCODING 533
SWIDTH 625 0
DWIDTH 10 0
BBX 8 13 1 0
BITMAP
6C
24
12
00
81
81
81
81
81
81
81
43
3D
ENDCHAR
STARTCHAR 0216
ENCODING 534
SWIDTH 750 0
DWIDTH 12 0
BBX 10 14 1 0
BITMAP
1E00
1200
8040
8040
8040
8040
8040
8040
8040
8040
8040
8040
4080
3F00
ENDCHAR
STARTCHAR 0217
ENCODING 535
SWIDTH 625 0
DWIDTH 10 0
BBX 8 12 1 0
BITMAP
38
44
00
81
81
81
81
81
81
81
43
3D
ENDCHAR
STARTCHAR 0218
ENCODING 536
SWIDTH 625 0
DWIDTH 10 0
BBX 8 16 1 -4
BITMAP
3C
C6
80
80
80
70
1E
03
01
81
C3
7C
00
18
10
10
ENDCHAR
STARTCHAR 0219
ENCODING 537
SWIDTH 562 0
DWIDTH 9 0
BBX 7 13 1 -4
BITMAP
7C
82
80
C0
78
06
02
82
7C
00
30
20
20
ENDCHAR
STARTCHAR 021A
ENCODING 538
SWIDTH 562 0
DWIDTH 9 0
BBX 9 16 0 -4
BITMAP
FF80
0800
0800
0800
0800
0800
0800
0800
0800
0800
0800
0800
0000
0C00
0800
0800
ENDCHAR
STARTCHAR 021B
ENCODING 539
SWIDTH 375 0
DWIDTH 6 0
BBX 5 15 0 -4
BITMAP
40
40
F8
40
40
40
40
40
40
40
38
00
18
10
10
ENDCHAR
STARTCHAR 021C
ENCODING 540
SWIDTH 625 0
DWIDTH 10 0
BBX 8 15 1 -4
BITMAP
3C
7E
03
03
02
06
0C
3E
03
03
03
06
0C
38
E0
ENDCHAR
STARTCHAR 021D
ENCODING 541
SWIDTH 500 0
DWIDTH 8 0
BBX 6 12 1 -4
BITMAP
78
8C
04
04
08
38
44
04
04
0C
38
E0
ENDCHAR
STARTCHAR 021E
ENCODING 542
SWIDTH 750 0
DWIDTH 12 0
BBX 10 15 1 0
BITMAP
1B00
0E00
0000
8040
8040
8040
8040
8040
FFC0
8040
8040
8040
8040
8040
8040
ENDCHAR
STARTCHAR 021F
ENCODING 543
SWIDTH 625 0
DWIDTH 10 0
BBX 10 15 -1 0
BITMAP
D800
7000
0000
2000
2000
2000
2F00
3080
2040
2040
2040
2040
2040
2040
2040
ENDCHAR
STARTCHAR 0220
ENCODING 544
SWIDTH 750 0
DWIDTH 12 0
BBX 9 15 1 -2
BITMAP
BE00
E100
C080
8080
8080
8080
8080
8080
8080
8080
8080
8080
0080
0080
0080
ENDCHAR
STARTCHAR 0221
ENCODING 545
SWIDTH 812 0
DWIDTH 13 0
BBX 12 13 1 -1
BITMAP
0300
0300
0300
3B00
6700
C300
8300
8300
8360
C3B0
47A0
7DE0
0300
ENDCHAR
STARTCHAR 0222
ENCODING 546
SWIDTH 750 0
DWIDTH 12 0
BBX 10 12 1 0
BITMAP
0300
70C0
C040
8040
C080
3F00
4080
8040
8040
8040
4080
3F00
ENDCHAR
STARTCHAR 0223
ENCODING 547
SWIDTH 562 0
DWIDTH 9 0
BBX 7 10 1 0
BITMAP
82
82
C6
38
C6
82
82
82
C6
7C
ENDCHAR
STARTCHAR 0224
ENCODING 548
SWIDTH 750 0
DWIDTH 12 0
BBX 10 15 1 -3
BITMAP
FFC0
0040
0080
0100
0200
0400
0800
1000
2000
4000
8000
FFC0
0040
0040
0780
ENDCHAR
STARTCHAR 0225
ENCODING 549
SWIDTH 562 0
DWIDTH 9 0
BBX 7 12 1 -3
BITMAP
FE
02
04
08
10
20
40
80
FE
02
02
3C
ENDCHAR
STARTCHAR 0226
ENCODING 550
SWIDTH 687 0
DWIDTH 11 0
BBX 11 15 0 0
BITMAP
0C00
0C00
0000
0400
0400
0A00
0A00
1100
1100
2080
2080
3F80
4040
4040
8020
ENDCHAR
STARTCHAR 0227
ENCODING 551
SWIDTH 562 0
DWIDTH 9 0
BBX 7 12 1 0
BITMAP
10
10
00
3C
46
02
7E
C2
82
82
C6
7A
ENDCHAR
STARTCHAR 0228
ENCODING 552
SWIDTH 625 0
DWIDTH 10 0
BBX 8 15 1 -3
BITMAP
FF
80
80
80
80
FF
80
80
80
80
80
FF
00
08
38
ENDCHAR
STARTCHAR 0229
ENCODING 553
SWIDTH 562 0
DWIDTH 9 0
BBX 7 12 1 -3
BITMAP
38
44
82
82
FE
80
80
42
3C
00
08
38
ENDCHAR
STARTCHAR 022A
ENCODING 554
SWIDTH 812 0
DWIDTH 13 0
BBX 11 16 1 0
BITMAP
1F00
1200
1200
0000
1F00
2080
4040
8020
8020
8020
8020
8020
8020
4040
2080
1F00
ENDCHAR
STARTCHAR 022B
ENCODING 555
SWIDTH 625 0
DWIDTH 10 0
BBX 8 14 1 0
BITMAP
3E
00
24
24
00
3C
42
81
81
81
81
81
42
3C
ENDCHAR
STARTCHAR 022C
ENCODING 556
SWIDTH 812 0
DWIDTH 13 0
BBX 11 16 1 0
BITMAP
1F00
1D00
1700
0000
1F00
2080
4040
8020
8020
8020
8020
8020
8020
4040
2080
1F00
ENDCHAR
STARTCHAR 022D
ENCODING 557
SWIDTH 625 0
DWIDTH 10 0
BBX 8 13 1 0
BITMAP
7C
74
5C
00
3C
42
81
81
81
81
81
42
3C
ENDCHAR
STARTCHAR 022E
ENCODING 558
SWIDTH 812 0
DWIDTH 13 0
BBX 11 15 1 0
BITMAP
0C00
0C00
0000
1F00
2080
4040
8020
8020
8020
8020
8020
8020
4040
2080
1F00
ENDCHAR
STARTCHAR 022F
ENCODING 559
SWIDTH 625 0
DWIDTH 10 0
BBX 8 12 1 0
BITMAP
10
10
00
3C
42
81
81
81
81
81
42
3C
ENDCHAR
STARTCHAR 0230
ENCODING 560
SWIDTH 812 0
DWIDTH 13 0
BBX 11 16 1 0
BITMAP
1F00
0C00
0C00
0000
1F00
2080
4040
8020
8020
8020
8020
8020
8020
4040
2080
1F00
ENDCHAR
STARTCHAR 0231
ENCODING 561
SWIDTH 625 0
DWIDTH 10 0
BBX 8 14 1 0
BITMAP
3E
00
10
10
00
3C
42
81
81
81
81
81
42
3C
ENDCHAR
STARTCHAR 0232
ENCODING 562
SWIDTH 562 0
DWIDTH 9 0
BBX 9 14 0 0
BITMAP
1F00
0000
C080
4100
2200
2200
1400
0800
0800
0800
0800
0800
0800
0800
ENDCHAR
STARTCHAR 0233
ENCODING 563
SWIDTH 562 0
DWIDTH 9 0
BBX 9 15 0 -3
BITMAP
1F00
0000
0000
8080
4100
4100
2100
2200
2200
1400
1400
0C00
0800
0800
7000
ENDCHAR
STARTCHAR 0234
ENCODING 564
SWIDTH 500 0
DWIDTH 8 0
BBX 6 13 1 -1
BITMAP
C0
C0
C0
C0
C0
C0
C0
C0
D8
FC
EC
78
C0
ENDCHAR
STARTCHAR 0235
ENCODING 565
SWIDTH 812 0
DWIDTH 13 0
BBX 12 10 1 -2
BITMAP
DC00
E600
C300
C300
C300
C360
C3B0
C3B0
C1E0
0300
ENDCHAR
STARTCHAR 0236
ENCODING 566
SWIDTH 500 0
DWIDTH 8 0
BBX 7 12 0 -1
BITMAP
60
60
FC
60
60
60
60
6C
7E
76
3C
60
ENDCHAR
STARTCHAR 0237
ENCODING 567
SWIDTH 187 0
DWIDTH 3 0
BBX 3 12 -1 -3
BITMAP
20
20
20
20
20
20
20
20
20
20
20
C0
ENDCHAR
STARTCHAR 0238
ENCODING 568
SWIDTH 1062 0
DWIDTH 17 0
BBX 15 12 1 0
BITMAP
0100
0100
0100
3D78
4384
8102
8102
8102
8102
8102
4384
3D78
ENDCHAR
STARTCHAR 0239
ENCODING 569
SWIDTH 1062 0
DWIDTH 17 0
BBX 15 12 1 -3
BITMAP
3D78
4384
8102
8102
8102
8102
8102
4384
3D78
0100
0100
0100
ENDCHAR
STARTCHAR 023A
ENCODING 570
SWIDTH 687 0
DWIDTH 11 0
BBX 11 12 0 0
BITMAP
0420
0E40
0A80
1B00
1B00
1700
3580
2880
7F80
60C0
6040
C060
ENDCHAR
STARTCHAR 023B
ENCODING 571
SWIDTH 687 0
DWIDTH 11 0
BBX 11 12 0 0
BITMAP
0FA0
1CC0
3080
6180
6300
6600
6400
6800
7000
2000
7840
CFC0
ENDCHAR
STARTCHAR 023C
ENCODING 572
SWIDTH 562 0
DWIDTH 9 0
BBX 7 9 1 0
BITMAP
3E
66
C4
C8
90
A0
C0
E2
BE
ENDCHAR
STARTCHAR 023D
ENCODING 573
SWIDTH 562 0
DWIDTH 9 0
BBX 9 12 -1 0
BITMAP
2000
2000
2000
2000
2000
F800
2000
2000
2000
2000
2000
3F80
ENDCHAR
STARTCHAR 023E
ENCODING 574
SWIDTH 625 0
DWIDTH 10 0
BBX 10 12 0 0
BITMAP
FFC0
FFC0
0D80
0F00
0E00
0C00
0C00
1C00
3C00
6C00
4C00
8C00
ENDCHAR
STARTCHAR 023F
ENCODING 575
SWIDTH 500 0
DWIDTH 8 0
BBX 7 13 1 -4
BITMAP
7C
C4
80
C0
78
0C
06
84
FC
30
18
0C
02
ENDCHAR
STARTCHAR 0240
ENCODING 576
SWIDTH 500 0
DWIDTH 8 0
BBX 7 13 1 -4
BITMAP
FE
06
0C
18
30
20
40
C0
E0
30
18
0C
06
ENDCHAR
STARTCHAR 0241
ENCODING 577
SWIDTH 625 0
DWIDTH 10 0
BBX 9 12 1 0
BITMAP
7F00
8180
0080
0080
0080
0100
1E00
1000
1000
1000
1000
1000
ENDCHAR
STARTCHAR 0242
ENCODING 578
SWIDTH 500 0
DWIDTH 8 0
BBX 7 9 1 0
BITMAP
78
8C
02
02
02
04
38
20
20
ENDCHAR
STARTCHAR 0243
ENCODING 579
SWIDTH 687 0
DWIDTH 11 0
BBX 11 12 -1 0
BITMAP
3F80
2060
2020
2020
2060
3FC0
2060
2020
FC20
2020
2040
3F80
ENDCHAR
STARTCHAR 0244
ENCODING 580
SWIDTH 750 0
DWIDTH 12 0
BBX 12 12 0 0
BITMAP
4020
4020
4020
4020
4020
FFF0
4020
4020
4020
4020
2040
1F80
ENDCHAR
STARTCHAR 0245
ENCODING 581
SWIDTH 687 0
DWIDTH 11 0
BBX 11 12 0 0
BITMAP
0E00
0A00
0A00
1100
1100
3180
2080
2080
4040
4040
4040
8020
ENDCHAR
STARTCHAR 0246
ENCODING 582
SWIDTH 625 0
DWIDTH 10 0
BBX 7 14 2 -1
BITMAP
06
FE
FE
8C
88
88
FE
90
B0
A0
A0
E0
FE
40
ENDCHAR
STARTCHAR 0247
ENCODING 583
SWIDTH 625 0
DWIDTH 10 0
BBX 8 11 1 -1
BITMAP
06
3C
6E
CB
89
FF
90
F0
61
3F
40
ENDCHAR
STARTCHAR 0248
ENCODING 584
SWIDTH 312 0
DWIDTH 5 0
BBX 4 15 0 -3
BITMAP
20
20
20
20
20
20
F0
20
20
20
20
20
20
20
C0
ENDCHAR
STARTCHAR 0249
ENCODING 585
SWIDTH 187 0
DWIDTH 3 0
BBX 4 15 -1 -3
BITMAP
20
20
00
20
20
20
20
70
20
20
20
20
20
20
C0
ENDCHAR
STARTCHAR 024A
ENCODING 586
SWIDTH 812 0
DWIDTH 13 0
BBX 12 15 1 -3
BITMAP
1E40
21C0
40C0
8040
8040
8040
8040
8040
8040
40C0
21C0
1E40
0040
0070
0030
ENDCHAR
STARTCHAR 024B
ENCODING 587
SWIDTH 625 0
DWIDTH 10 0
BBX 10 12 1 -3
BITMAP
3D00
4300
8100
8100
8100
8100
8100
4300
3D00
0100
0100
00C0
ENDCHAR
STARTCHAR 024C
ENCODING 588
SWIDTH 687 0
DWIDTH 11 0
BBX 11 12 -1 0
BITMAP
3F00
2080
2040
2040
2040
2080
FF80
2080
2040
2040
2020
2020
ENDCHAR
STARTCHAR 024D
ENCODING 589
SWIDTH 437 0
DWIDTH 7 0
BBX 6 9 0 0
BITMAP
5C
60
40
40
E0
40
40
40
40
ENDCHAR
STARTCHAR 024E
ENCODING 590
SWIDTH 625 0
DWIDTH 10 0
BBX 10 12 0 0
BITMAP
C0C0
4180
FFC0
3300
1600
1C00
0C00
0C00
0C00
0C00
0C00
0C00
ENDCHAR
STARTCHAR 024F
ENCODING 591
SWIDTH 562 0
DWIDTH 9 0
BBX 9 12 0 -4
BITMAP
4180
4100
6100
2300
FF80
1600
1400
1C00
0C00
0800
1800
7000
ENDCHAR
STARTCHAR 0250
ENCODING 592
SWIDTH 562 0
DWIDTH 9 0
BBX 7 9 1 0
BITMAP
BC
C6
82
82
86
FC
80
C4
78
ENDCHAR
STARTCHAR 0251
ENCODING 593
SWIDTH 625 0
DWIDTH 10 0
BBX 8 9 1 0
BITMAP
3D
43
81
81
81
81
81
43
3D
ENDCHAR
STARTCHAR 0252
ENCODING 594
SWIDTH 625 0
DWIDTH 10 0
BBX 8 9 1 0
BITMAP
BC
C2
81
81
81
81
81
C2
BC
ENDCHAR
STARTCHAR 0253
ENCODING 595
SWIDTH 625 0
DWIDTH 10 0
BBX 8 12 1 0
BITMAP
78
C0
80
BC
C2
81
81
81
81
81
C2
BC
ENDCHAR
STARTCHAR 0254
ENCODING 596
SWIDTH 562 0
DWIDTH 9 0
BBX 7 9 1 0
BITMAP
78
84
02
02
02
02
02
84
78
ENDCHAR
STARTCHAR 0255
ENCODING 597
SWIDTH 562 0
DWIDTH 9 0
BBX 7 10 1 -1
BITMAP
3C
42
80
80
80
80
9C
72
3E
20
ENDCHAR
STARTCHAR 0256
ENCODING 598
SWIDTH 625 0
DWIDTH 10 0
BBX 10 15 1 -3
BITMAP
0100
0100
0100
3D00
4300
8100
8100
8100
8100
8100
4300
3D00
0100
0100
00C0
ENDCHAR
STARTCHAR 0257
ENCODING 599
SWIDTH 687 0
DWIDTH 11 0
BBX 11 12 1 0
BITMAP
00E0
0100
0100
3D00
4300
8100
8100
8100
8100
8100
4300
3C00
ENDCHAR
STARTCHAR 0258
ENCODING 600
SWIDTH 562 0
DWIDTH 9 0
BBX 7 9 1 0
BITMAP
38
44
82
82
FE
02
02
84
78
ENDCHAR
STARTCHAR 0259
ENCODING 601
SWIDTH 625 0
DWIDTH 10 0
BBX 7 9 1 0
BITMAP
78
84
02
02
FE
82
82
44
38
ENDCHAR
STARTCHAR 025A
ENCODING 602
SWIDTH 750 0
DWIDTH 12 0
BBX 11 9 1 0
BITMAP
7800
8580
0280
0E80
3260
6200
8200
4400
7800
ENDCHAR
STARTCHAR 025B
ENCODING 603
SWIDTH 500 0
DWIDTH 8 0
BBX 6 9 1 0
BITMAP
7C
C0
80
80
70
80
80
C0
7C
ENDCHAR
STARTCHAR 025C
ENCODING 604
SWIDTH 562 0
DWIDTH 9 0
BBX 7 9 1 0
BITMAP
7C
86
02
06
3C
06
02
86
7C
ENDCHAR
STARTCHAR 025D
ENCODING 605
SWIDTH 812 0
DWIDTH 13 0
BBX 12 9 1 0
BITMAP
7C00
86C0
03C0
0640
3830
0600
0200
8600
7C00
ENDCHAR
STARTCHAR 025E
ENCODING 606
SWIDTH 687 0
DWIDTH 11 0
BBX 9 9 1 0
BITMAP
3F00
6180
8080
8180
8E00
8180
8080
6180
3F00
ENDCHAR
STARTCHAR 025F
ENCODING 607
SWIDTH 187 0
DWIDTH 3 0
BBX 4 12 -1 -3
BITMAP
20
20
20
20
70
20
20
20
20
20
20
C0
ENDCHAR
STARTCHAR 0260
ENCODING 608
SWIDTH 687 0
DWIDTH 11 0
BBX 11 15 1 -3
BITMAP
00E0
0100
0100
3D00
4300
8100
8100
8100
8100
8100
4300
3D00
0100
4200
3C00
ENDCHAR
STARTCHAR 0261
ENCODING 609
SWIDTH 625 0
DWIDTH 10 0
BBX 8 12 1 -3
BITMAP
3F
41
81
81
81
81
81
43
3D
01
42
3C
ENDCHAR
STARTCHAR 0262
ENCODING 610
SWIDTH 625 0
DWIDTH 10 0
BBX 8 9 1 0
BITMAP
3E
41
80
80
80
83
81
41
3F
ENDCHAR
STARTCHAR 0263
ENCODING 611
SWIDTH 687 0
DWIDTH 11 0
BBX 9 12 1 -3
BITMAP
8080
4100
2200
2200
1400
1400
0800
1C00
3600
2200
2200
1C00
ENDCHAR
STARTCHAR 0264
ENCODING 612
SWIDTH 687 0
DWIDTH 11 0
BBX 9 9 1 0
BITMAP
C180
4100
2200
1400
0800
1C00
2200
2200
1C00
ENDCHAR
STARTCHAR 0265
ENCODING 613
SWIDTH 625 0
DWIDTH 10 0
BBX 8 12 1 -3
BITMAP
81
81
81
81
81
81
81
43
3D
01
01
01
ENDCHAR
STARTCHAR 0266
ENCODING 614
SWIDTH 625 0
DWIDTH 10 0
BBX 8 12 1 0
BITMAP
78
80
80
BC
C2
81
81
81
81
81
81
81
ENDCHAR
STARTCHAR 0267
ENCODING 615
SWIDTH 625 0
DWIDTH 10 0
BBX 8 15 1 -4
BITMAP
78
80
80
BC
C2
81
81
81
81
81
81
81
01
01
1E
ENDCHAR
STARTCHAR 0268
ENCODING 616
SWIDTH 187 0
DWIDTH 3 0
BBX 3 12 0 0
BITMAP
40
40
00
40
40
40
40
E0
40
40
40
40
ENDCHAR
STARTCHAR 0269
ENCODING 617
SWIDTH 312 0
DWIDTH 5 0
BBX 3 9 1 0
BITMAP
80
80
80
80
80
80
80
80
60
ENDCHAR
STARTCHAR 026A
ENCODING 618
SWIDTH 375 0
DWIDTH 6 0
BBX 3 9 1 0
BITMAP
E0
40
40
40
40
40
40
40
E0
ENDCHAR
STARTCHAR 026B
ENCODING 619
SWIDTH 437 0
DWIDTH 7 0
BBX 5 12 1 0
BITMAP
20
20
20
20
20
E8
B8
20
20
20
20
20
ENDCHAR
STARTCHAR 026C
ENCODING 620
SWIDTH 437 0
DWIDTH 7 0
BBX 5 12 1 0
BITMAP
20
20
20
20
E0
A0
F8
20
20
20
20
20
ENDCHAR
STARTCHAR 026D
ENCODING 621
SWIDTH 250 0
DWIDTH 4 0
BBX 3 15 1 -3
BITMAP
80
80
80
80
80
80
80
80
80
80
80
80
80
80
60
ENDCHAR
STARTCHAR 026E
ENCODING 622
SWIDTH 687 0
DWIDTH 11 0
BBX 9 15 1 -3
BITMAP
8000
8000
8000
FF00
8100
8200
8400
8800
9000
9E00
8100
8080
0080
4180
3E00
ENDCHAR
STARTCHAR 026F
ENCODING 623
SWIDTH 937 0
DWIDTH 15 0
BBX 13 9 1 0
BITMAP
8208
8208
8208
8208
8208
8208
8208
C718
79E0
ENDCHAR
STARTCHAR 0270
ENCODING 624
SWIDTH 937 0
DWIDTH 15 0
BBX 13 12 1 -3
BITMAP
8208
8208
8208
8208
8208
8208
8208
C718
79E8
0008
0008
0008
ENDCHAR
STARTCHAR 0271
ENCODING 625
SWIDTH 937 0
DWIDTH 15 0
BBX 13 12 1 -3
BITMAP
BC70
C798
8208
8208
8208
8208
8208
8208
8208
0008
0008
00F0
ENDCHAR
STARTCHAR 0272
ENCODING 626
SWIDTH 625 0
DWIDTH 10 0
BBX 10 12 -1 -3
BITMAP
2F00
3080
2040
2040
2040
2040
2040
2040
2040
2000
2000
C000
ENDCHAR
STARTCHAR 0273
ENCODING 627
SWIDTH 625 0
DWIDTH 10 0
BBX 10 12 1 -3
BITMAP
BC00
C200
8100
8100
8100
8100
8100
8100
8100
0100
0100
00C0
ENDCHAR
STARTCHAR 0274
ENCODING 628
SWIDTH 625 0
DWIDTH 10 0
BBX 8 9 1 0
BITMAP
C1
A1
A1
91
89
89
85
85
83
ENDCHAR
STARTCHAR 0275
ENCODING 629
SWIDTH 625 0
DWIDTH 10 0
BBX 7 9 1 0
BITMAP
38
44
82
82
FE
82
82
44
38
ENDCHAR
STARTCHAR 0276
ENCODING 630
SWIDTH 812 0
DWIDTH 13 0
BBX 11 9 1 0
BITMAP
3FE0
4400
8400
8400
87E0
8400
8400
4400
3FE0
ENDCHAR
STARTCHAR 0277
ENCODING 631
SWIDTH 687 0
DWIDTH 11 0
BBX 9 9 1 0
BITMAP
3E00
6300
C180
8080
8880
8880
8880
D580
7700
ENDCHAR
STARTCHAR 0278
ENCODING 632
SWIDTH 687 0
DWIDTH 11 0
BBX 9 15 1 -3
BITMAP
0800
0800
0800
3E00
4900
8880
8880
8880
8880
8880
4900
3E00
0800
0800
0800
ENDCHAR
STARTCHAR 0279
ENCODING 633
SWIDTH 437 0
DWIDTH 7 0
BBX 5 9 0 0
BITMAP
08
08
08
08
08
08
08
18
E8
ENDCHAR
STARTCHAR 027A
ENCODING 634
SWIDTH 437 0
DWIDTH 7 0
BBX 5 12 0 0
BITMAP
08
08
08
08
08
08
08
08
08
08
18
E8
ENDCHAR
STARTCHAR 027B
ENCODING 635
SWIDTH 437 0
DWIDTH 7 0
BBX 7 12 0 -3
BITMAP
08
08
08
08
08
08
08
18
E8
08
08
06
ENDCHAR
STARTCHAR 027C
ENCODING 636
SWIDTH 437 0
DWIDTH 7 0
BBX 5 12 1 -3
BITMAP
B8
C0
80
80
80
80
80
80
80
80
80
80
ENDCHAR
STARTCHAR 027D
ENCODING 637
SWIDTH 437 0
DWIDTH 7 0
BBX 5 12 1 -2
BITMAP
B8
C0
80
80
80
80
80
80
80
80
80
78
ENDCHAR
STARTCHAR 027E
ENCODING 638
SWIDTH 500 0
DWIDTH 8 0
BBX 5 9 1 0
BITMAP
38
40
40
40
40
40
40
40
F0
ENDCHAR
STARTCHAR 027F
ENCODING 639
SWIDTH 500 0
DWIDTH 8 0
BBX 5 9 1 0
BITMAP
E0
10
10
10
10
10
10
10
38
ENDCHAR
STARTCHAR 0280
ENCODING 640
SWIDTH 625 0
DWIDTH 10 0
BBX 7 9 1 0
BITMAP
F8
84
84
84
F8
8C
84
84
86
ENDCHAR
STARTCHAR 0281
ENCODING 641
SWIDTH 625 0
DWIDTH 10 0
BBX 7 9 1 0
BITMAP
82
84
84
8C
F8
84
84
84
F8
ENDCHAR
STARTCHAR 0282
ENCODING 642
SWIDTH 500 0
DWIDTH 8 0
BBX 7 12 1 -3
BITMAP
7C
82
80
C0
78
06
02
82
FC
80
80
78
ENDCHAR
STARTCHAR 0283
ENCODING 643
SWIDTH 312 0
DWIDTH 5 0
BBX 6 15 -1 -3
BITMAP
1C
20
20
20
20
20
20
20
20
20
20
20
20
20
C0
ENDCHAR
STARTCHAR 0284
ENCODING 644
SWIDTH 312 0
DWIDTH 5 0
BBX 6 15 -1 -3
BITMAP
1C
20
20
60
20
20
20
78
20
20
20
20
20
20
C0
ENDCHAR
STARTCHAR 0285
ENCODING 645
SWIDTH 437 0
DWIDTH 7 0
BBX 6 12 0 -3
BITMAP
E0
10
10
10
10
10
10
10
10
10
10
0C
ENDCHAR
STARTCHAR 0286
ENCODING 646
SWIDTH 312 0
DWIDTH 5 0
BBX 8 15 -2 -3
BITMAP
07
08
08
08
08
08
08
08
08
08
08
08
FC
88
F0
ENDCHAR
STARTCHAR 0287
ENCODING 647
SWIDTH 375 0
DWIDTH 6 0
BBX 5 11 0 -2
BITMAP
E0
10
10
10
10
10
10
10
F8
10
10
ENDCHAR
STARTCHAR 0288
ENCODING 648
SWIDTH 375 0
DWIDTH 6 0
BBX 5 14 0 -3
BITMAP
40
40
F8
40
40
40
40
40
40
40
40
40
40
38
ENDCHAR
STARTCHAR 0289
ENCODING 649
SWIDTH 625 0
DWIDTH 10 0
BBX 10 9 0 0
BITMAP
4080
4080
4080
4080
FFC0
4080
4080
2180
1E80
ENDCHAR
STARTCHAR 028A
ENCODING 650
SWIDTH 562 0
DWIDTH 9 0
BBX 7 9 1 0
BITMAP
EE
6C
44
82
82
82
82
44
38
ENDCHAR
STARTCHAR 028B
ENCODING 651
SWIDTH 500 0
DWIDTH 8 0
BBX 6 9 1 0
BITMAP
90
88
84
84
84
84
84
88
70
ENDCHAR
STARTCHAR 028C
ENCODING 652
SWIDTH 562 0
DWIDTH 9 0
BBX 9 9 0 0
BITMAP
1C00
1400
3400
2200
2200
4100
4100
4100
8080
ENDCHAR
STARTCHAR 028D
ENCODING 653
SWIDTH 812 0
DWIDTH 13 0
BBX 13 9 0 0
BITMAP
1040
1040
28A0
28A0
4890
4510
4510
8208
8208
ENDCHAR
STARTCHAR 028E
ENCODING 654
SWIDTH 562 0
DWIDTH 9 0
BBX 9 12 0 0
BITMAP
0700
0C00
0800
0800
1800
1400
2400
2200
6200
4100
4100
8080
ENDCHAR
STARTCHAR 028F
ENCODING 655
SWIDTH 562 0
DWIDTH 9 0
BBX 7 9 1 0
BITMAP
82
44
6C
28
10
10
10
10
10
ENDCHAR
STARTCHAR 0290
ENCODING 656
SWIDTH 562 0
DWIDTH 9 0
BBX 9 12 1 -3
BITMAP
FE00
0200
0400
0800
1000
2000
4000
8000
FE00
0200
0200
0180
ENDCHAR
STARTCHAR 0291
ENCODING 657
SWIDTH 562 0
DWIDTH 9 0
BBX 7 10 1 -1
BITMAP
FE
02
04
08
10
20
4E
92
FE
10
ENDCHAR
STARTCHAR 0292
ENCODING 658
SWIDTH 625 0
DWIDTH 10 0
BBX 8 12 1 -3
BITMAP
FE
02
04
08
10
20
3C
02
01
01
83
7C
ENDCHAR
STARTCHAR 0293
ENCODING 659
SWIDTH 562 0
DWIDTH 9 0
BBX 8 12 1 -4
BITMAP
FE
06
0C
18
30
38
3C
06
02
7E
C6
FF
ENDCHAR
STARTCHAR 0294
ENCODING 660
SWIDTH 500 0
DWIDTH 8 0
BBX 6 12 1 0
BITMAP
70
88
04
04
04
08
30
20
20
20
20
20
ENDCHAR
STARTCHAR 0295
ENCODING 661
SWIDTH 500 0
DWIDTH 8 0
BBX 6 12 1 0
BITMAP
38
44
80
80
80
40
30
10
10
10
10
10
ENDCHAR
STARTCHAR 0296
ENCODING 662
SWIDTH 500 0
DWIDTH 8 0
BBX 6 12 1 0
BITMAP
20
20
20
20
20
30
08
04
04
04
88
70
ENDCHAR
STARTCHAR 0297
ENCODING 663
SWIDTH 562 0
DWIDTH 9 0
BBX 7 15 1 -3
BITMAP
3C
42
80
80
80
80
80
80
80
80
80
80
80
42
3C
ENDCHAR
STARTCHAR 0298
ENCODING 664
SWIDTH 812 0
DWIDTH 13 0
BBX 11 12 1 -1
BITMAP
1E00
3380
60C0
C040
C060
C460
CC60
C060
C040
40C0
7180
3F00
ENDCHAR
STARTCHAR 0299
ENCODING 665
SWIDTH 562 0
DWIDTH 9 0
BBX 7 9 1 0
BITMAP
FC
86
82
86
FC
82
82
82
FC
ENDCHAR
STARTCHAR 029A
ENCODING 666
SWIDTH 687 0
DWIDTH 11 0
BBX 9 9 1 0
BITMAP
7E00
C300
8080
C080
3880
C080
8080
C300
7E00
ENDCHAR
STARTCHAR 029B
ENCODING 667
SWIDTH 687 0
DWIDTH 11 0
BBX 11 12 1 0
BITMAP
01E0
0100
0300
3F00
4100
8000
8000
8000
8300
8100
4100
3F00
ENDCHAR
STARTCHAR 029C
ENCODING 668
SWIDTH 625 0
DWIDTH 10 0
BBX 8 9 1 0
BITMAP
81
81
81
81
FF
81
81
81
81
ENDCHAR
STARTCHAR 029D
ENCODING 669
SWIDTH 187 0
DWIDTH 3 0
BBX 6 15 -3 -3
BITMAP
08
08
00
08
08
08
08
08
08
08
08
08
FC
88
F0
ENDCHAR
STARTCHAR 029E
ENCODING 670
SWIDTH 687 0
DWIDTH 11 0
BBX 7 12 2 -4
BITMAP
C2
62
32
1A
0E
0A
32
62
C2
02
02
02
ENDCHAR
STARTCHAR 029F
ENCODING 671
SWIDTH 437 0
DWIDTH 7 0
BBX 6 9 1 0
BITMAP
80
80
80
80
80
80
80
80
FC
ENDCHAR
STARTCHAR 02A0
ENCODING 672
SWIDTH 750 0
DWIDTH 12 0
BBX 11 15 1 -3
BITMAP
00E0
0100
0100
3D00
4300
8100
8100
8100
8100
8100
4300
3D00
0100
0100
0100
ENDCHAR
STARTCHAR 02A1
ENCODING 673
SWIDTH 500 0
DWIDTH 8 0
BBX 6 12 1 0
BITMAP
70
88
04
04
04
08
30
20
20
F8
20
20
ENDCHAR
STARTCHAR 02A2
ENCODING 674
SWIDTH 500 0
DWIDTH 8 0
BBX 6 12 1 0
BITMAP
38
44
80
80
80
40
30
10
10
7C
10
10
ENDCHAR
STARTCHAR 02A3
ENCODING 675
SWIDTH 1000 0
DWIDTH 16 0
BBX 15 12 1 0
BITMAP
0300
0300
0300
3BFE
6706
C30C
8318
8330
8360
C340
4780
7FFE
ENDCHAR
STARTCHAR 02A4
ENCODING 676
SWIDTH 1062 0
DWIDTH 17 0
BBX 15 15 1 -3
BITMAP
0300
0300
0300
3BFE
6706
C30C
8318
8330
8338
C33C
4706
7F02
0002
0006
00FC
ENDCHAR
STARTCHAR 02A5
ENCODING 677
SWIDTH 1000 0
DWIDTH 16 0
BBX 15 13 1 0
BITMAP
0300
0300
0300
3BFE
6706
C30C
8318
8330
8360
C35C
4794
7FFC
0030
ENDCHAR
STARTCHAR 02A6
ENCODING 678
SWIDTH 812 0
DWIDTH 13 0
BBX 12 11 0 0
BITMAP
6000
6000
FDF0
6310
6200
6300
61E0
6030
6010
2010
3FF0
ENDCHAR
STARTCHAR 02A7
ENCODING 679
SWIDTH 625 0
DWIDTH 10 0
BBX 10 15 0 -3
BITMAP
01C0
6300
6200
FE00
6200
6200
6200
6200
6200
6200
2200
3E00
0200
0200
0E00
ENDCHAR
STARTCHAR 02A8
ENCODING 680
SWIDTH 750 0
DWIDTH 12 0
BBX 12 12 0 -1
BITMAP
6000
6000
FDE0
6310
6600
6400
6400
6400
67E0
2730
3FE0
0100
ENDCHAR
STARTCHAR 02A9
ENCODING 681
SWIDTH 875 0
DWIDTH 14 0
BBX 13 15 0 -3
BITMAP
3C00
2000
2000
FEF0
2330
2218
2218
2218
2218
2218
2218
2218
0018
0018
00F0
ENDCHAR
STARTCHAR 02AA
ENCODING 682
SWIDTH 625 0
DWIDTH 10 0
BBX 8 12 2 0
BITMAP
80
80
80
BE
E2
C0
E0
BC
86
83
C2
FE
ENDCHAR
STARTCHAR 02AB
ENCODING 683
SWIDTH 625 0
DWIDTH 10 0
BBX 8 12 1 0
BITMAP
80
80
80
FF
81
82
84
88
90
A0
C0
FF
ENDCHAR
STARTCHAR 02AC
ENCODING 684
SWIDTH 500 0
DWIDTH 8 0
BBX 8 10 0 0
BITMAP
59
5A
5A
26
24
89
5A
5A
66
26
ENDCHAR
STARTCHAR 02AD
ENCODING 685
SWIDTH 500 0
DWIDTH 8 0
BBX 7 8 1 2
BITMAP
FE
82
82
00
00
FE
82
82
ENDCHAR
STARTCHAR 02AE
ENCODING 686
SWIDTH 625 0
DWIDTH 10 0
BBX 9 15 0 -3
BITMAP
8000
4000
4000
4080
4080
4080
4080
4080
4080
4080
6180
3E80
0080
0080
0080
ENDCHAR
STARTCHAR 02AF
ENCODING 687
SWIDTH 687 0
DWIDTH 11 0
BBX 11 15 0 -3
BITMAP
8000
4000
4000
4080
4080
4080
4080
4080
4080
4080
6180
3E80
0080
0080
0060
ENDCHAR
STARTCHAR 02B0
ENCODING 688
SWIDTH 500 0
DWIDTH 8 0
BBX 5 7 1 5
BITMAP
80
80
F0
88
88
88
88
ENDCHAR
STARTCHAR 02B1
ENCODING 689
SWIDTH 500 0
DWIDTH 8 0
BBX 5 7 1 5
BITMAP
E0
80
F0
88
88
88
88
ENDCHAR
STARTCHAR 02B2
ENCODING 690
SWIDTH 187 0
DWIDTH 3 0
BBX 2 9 0 3
BITMAP
40
00
40
40
40
40
40
40
C0
ENDCHAR
STARTCHAR 02B3
ENCODING 691
SWIDTH 250 0
DWIDTH 4 0
BBX 3 5 1 6
BITMAP
E0
80
80
80
80
ENDCHAR
STARTCHAR 02B4
ENCODING 692
SWIDTH 312 0
DWIDTH 5 0
BBX 3 5 1 5
BITMAP
20
20
20
20
E0
ENDCHAR
STARTCHAR 02B5
ENCODING 693
SWIDTH 312 0
DWIDTH 5 0
BBX 4 7 1 3
BITMAP
20
20
20
20
E0
20
30
ENDCHAR
STARTCHAR 02B6
ENCODING 694
SWIDTH 375 0
DWIDTH 6 0
BBX 5 5 0 6
BITMAP
88
90
F0
90
F0
ENDCHAR
STARTCHAR 02B7
ENCODING 695
SWIDTH 500 0
DWIDTH 8 0
BBX 7 5 1 6
BITMAP
B2
B4
B4
CC
48
ENDCHAR
STARTCHAR 02B8
ENCODING 696
SWIDTH 375 0
DWIDTH 6 0
BBX 4 7 1 4
BITMAP
90
90
A0
60
60
40
80
ENDCHAR
STARTCHAR 02B9
ENCODING 697
SWIDTH 250 0
DWIDTH 4 0
BBX 2 4 1 9
BITMAP
C0
C0
80
80
ENDCHAR
STARTCHAR 02BA
ENCODING 698
SWIDTH 437 0
DWIDTH 7 0
BBX 5 4 1 9
BITMAP
D8
D8
90
90
ENDCHAR
STARTCHAR 02BB
ENCODING 699
SWIDTH 312 0
DWIDTH 5 0
BBX 2 4 1 8
BITMAP
40
80
80
80
ENDCHAR
STARTCHAR 02BC
ENCODING 700
SWIDTH 312 0
DWIDTH 5 0
BBX 2 4 1 8
BITMAP
40
40
40
80
ENDCHAR
STARTCHAR 02BD
ENCODING 701
SWIDTH 312 0
DWIDTH 5 0
BBX 2 4 2 10
BITMAP
80
80
80
40
ENDCHAR
STARTCHAR 02BE
ENCODING 702
SWIDTH 312 0
DWIDTH 5 0
BBX 2 4 1 8
BITMAP
80
40
40
80
ENDCHAR
STARTCHAR 02BF
ENCODING 703
SWIDTH 312 0
DWIDTH 5 0
BBX 2 4 1 8
BITMAP
40
80
80
40
ENDCHAR
STARTCHAR 02C0
ENCODING 704
SWIDTH 375 0
DWIDTH 6 0
BBX 4 7 1 5
BITMAP
E0
10
10
60
40
40
40
ENDCHAR
STARTCHAR 02C1
ENCODING 705
SWIDTH 375 0
DWIDTH 6 0
BBX 4 7 1 5
BITMAP
70
80
80
60
20
20
20
ENDCHAR
STARTCHAR 02C2
ENCODING 706
SWIDTH 500 0
DWIDTH 8 0
BBX 4 4 2 9
BITMAP
30
C0
C0
30
ENDCHAR
STARTCHAR 02C3
ENCODING 707
SWIDTH 500 0
DWIDTH 8 0
BBX 4 4 2 9
BITMAP
C0
30
30
C0
ENDCHAR
STARTCHAR 02C4
ENCODING 708
SWIDTH 500 0
DWIDTH 8 0
BBX 5 4 2 9
BITMAP
20
50
50
88
ENDCHAR
STARTCHAR 02C5
ENCODING 709
SWIDTH 500 0
DWIDTH 8 0
BBX 5 4 2 9
BITMAP
88
50
50
20
ENDCHAR
STARTCHAR 02C6
ENCODING 710
SWIDTH 500 0
DWIDTH 8 0
BBX 5 3 2 10
BITMAP
20
50
88
ENDCHAR
STARTCHAR 02C7
ENCODING 711
SWIDTH 500 0
DWIDTH 8 0
BBX 5 3 2 10
BITMAP
88
50
20
ENDCHAR
STARTCHAR 02C8
ENCODING 712
SWIDTH 312 0
DWIDTH 5 0
BBX 1 4 2 8
BITMAP
80
80
80
80
ENDCHAR
STARTCHAR 02C9
ENCODING 713
SWIDTH 500 0
DWIDTH 8 0
BBX 5 1 2 11
BITMAP
F8
ENDCHAR
STARTCHAR 02CA
ENCODING 714
SWIDTH 500 0
DWIDTH 8 0
BBX 3 3 3 9
BITMAP
20
60
C0
ENDCHAR
STARTCHAR 02CB
ENCODING 715
SWIDTH 500 0
DWIDTH 8 0
BBX 3 3 2 9
BITMAP
80
C0
60
ENDCHAR
STARTCHAR 02CC
ENCODING 716
SWIDTH 312 0
DWIDTH 5 0
BBX 1 4 2 -2
BITMAP
80
80
80
80
ENDCHAR
STARTCHAR 02CD
ENCODING 717
SWIDTH 500 0
DWIDTH 8 0
BBX 5 1 2 -2
BITMAP
F8
ENDCHAR
STARTCHAR 02CE
ENCODING 718
SWIDTH 500 0
DWIDTH 8 0
BBX 3 3 2 -3
BITMAP
80
40
20
ENDCHAR
STARTCHAR 02CF
ENCODING 719
SWIDTH 500 0
DWIDTH 8 0
BBX 3 3 3 -3
BITMAP
20
40
80
ENDCHAR
STARTCHAR 02D0
ENCODING 720
SWIDTH 312 0
DWIDTH 5 0
BBX 3 8 1 0
BITMAP
E0
40
40
00
00
40
40
E0
ENDCHAR
STARTCHAR 02D1
ENCODING 721
SWIDTH 312 0
DWIDTH 5 0
BBX 3 3 1 5
BITMAP
E0
40
40
ENDCHAR
STARTCHAR 02D2
ENCODING 722
SWIDTH 312 0
DWIDTH 5 0
BBX 2 4 1 4
BITMAP
80
40
40
80
ENDCHAR
STARTCHAR 02D3
ENCODING 723
SWIDTH 312 0
DWIDTH 5 0
BBX 2 4 1 4
BITMAP
40
80
80
40
ENDCHAR
STARTCHAR 02D4
ENCODING 724
SWIDTH 500 0
DWIDTH 8 0
BBX 4 3 2 4
BITMAP
60
60
F0
ENDCHAR
STARTCHAR 02D5
ENCODING 725
SWIDTH 500 0
DWIDTH 8 0
BBX 4 3 2 4
BITMAP
F0
60
60
ENDCHAR
STARTCHAR 02D6
ENCODING 726
SWIDTH 375 0
DWIDTH 6 0
BBX 4 5 1 2
BITMAP
20
20
F0
20
20
ENDCHAR
STARTCHAR 02D7
ENCODING 727
SWIDTH 312 0
DWIDTH 5 0
BBX 3 1 1 3
BITMAP
E0
ENDCHAR
STARTCHAR 02D8
ENCODING 728
SWIDTH 500 0
DWIDTH 8 0
BBX 5 2 2 10
BITMAP
88
70
ENDCHAR
STARTCHAR 02D9
ENCODING 729
SWIDTH 500 0
DWIDTH 8 0
BBX 2 2 3 10
BITMAP
C0
C0
ENDCHAR
STARTCHAR 02DA
ENCODING 730
SWIDTH 500 0
DWIDTH 8 0
BBX 4 4 2 10
BITMAP
60
90
90
60
ENDCHAR
STARTCHAR 02DB
ENCODING 731
SWIDTH 500 0
DWIDTH 8 0
BBX 3 2 3 -2
BITMAP
80
E0
ENDCHAR
STARTCHAR 02DC
ENCODING 732
SWIDTH 500 0
DWIDTH 8 0
BBX 5 2 1 10
BITMAP
E8
B8
ENDCHAR
STARTCHAR 02DD
ENCODING 733
SWIDTH 500 0
DWIDTH 8 0
BBX 6 3 2 10
BITMAP
6C
48
90
ENDCHAR
STARTCHAR 02DE
ENCODING 734
SWIDTH 312 0
DWIDTH 5 0
BBX 5 4 0 4
BITMAP
70
F0
30
18
ENDCHAR
STARTCHAR 02DF
ENCODING 735
SWIDTH 500 0
DWIDTH 8 0
BBX 4 3 2 9
BITMAP
F0
60
F0
ENDCHAR
STARTCHAR 02E0
ENCODING 736
SWIDTH 437 0
DWIDTH 7 0
BBX 4 7 1 4
BITMAP
D0
50
20
50
50
90
70
ENDCHAR
STARTCHAR 02E1
ENCODING 737
SWIDTH 187 0
DWIDTH 3 0
BBX 1 7 1 5
BITMAP
80
80
80
80
80
80
80
ENDCHAR
STARTCHAR 02E2
ENCODING 738
SWIDTH 375 0
DWIDTH 6 0
BBX 4 5 1 6
BITMAP
F0
80
70
10
E0
ENDCHAR
STARTCHAR 02E3
ENCODING 739
SWIDTH 437 0
DWIDTH 7 0
BBX 5 5 1 6
BITMAP
48
70
20
50
88
ENDCHAR
STARTCHAR 02E4
ENCODING 740
SWIDTH 375 0
DWIDTH 6 0
BBX 4 7 1 5
BITMAP
70
80
80
60
20
20
20
ENDCHAR
STARTCHAR 02E5
ENCODING 741
SWIDTH 500 0
DWIDTH 8 0
BBX 4 11 2 0
BITMAP
F0
10
10
10
10
10
10
10
10
10
10
ENDCHAR
STARTCHAR 02E6
ENCODING 742
SWIDTH 500 0
DWIDTH 8 0
BBX 4 11 2 0
BITMAP
10
10
F0
10
10
10
10
10
10
10
10
ENDCHAR
STARTCHAR 02E7
ENCODING 743
SWIDTH 500 0
DWIDTH 8 0
BBX 4 11 2 0
BITMAP
10
10
10
10
10
F0
10
10
10
10
10
ENDCHAR
STARTCHAR 02E8
ENCODING 744
SWIDTH 500 0
DWIDTH 8 0
BBX 4 11 2 0
BITMAP
10
10
10
10
10
10
10
10
F0
10
10
ENDCHAR
STARTCHAR 02E9
ENCODING 745
SWIDTH 500 0
DWIDTH 8 0
BBX 4 11 2 0
BITMAP
10
10
10
10
10
10
10
10
10
10
F0
ENDCHAR
STARTCHAR 02EC
ENCODING 748
SWIDTH 500 0
DWIDTH 8 0
BBX 5 4 2 -4
BITMAP
88
50
50
20
ENDCHAR
STARTCHAR 02ED
ENCODING 749
SWIDTH 500 0
DWIDTH 8 0
BBX 5 3 2 10
BITMAP
F8
00
F8
ENDCHAR
STARTCHAR 02EE
ENCODING 750
SWIDTH 500 0
DWIDTH 8 0
BBX 5 4 1 8
BITMAP
48
48
48
90
ENDCHAR
STARTCHAR 02F3
ENCODING 755
SWIDTH 500 0
DWIDTH 8 0
BBX 4 4 2 -4
BITMAP
60
90
90
60
ENDCHAR
STARTCHAR 02F7
ENCODING 759
SWIDTH 500 0
DWIDTH 8 0
BBX 5 2 1 -3
BITMAP
E8
B8
ENDCHAR
STARTCHAR 0300
ENCODING 768
SWIDTH 0 0
DWIDTH 0 0
BBX 4 3 -7 9
BITMAP
C0
60
30
ENDCHAR
STARTCHAR 0301
ENCODING 769
SWIDTH 0 0
DWIDTH 0 0
BBX 4 3 -5 9
BITMAP
30
60
C0
ENDCHAR
STARTCHAR 0302
ENCODING 770
SWIDTH 0 0
DWIDTH 0 0
BBX 5 3 -7 9
BITMAP
20
50
88
ENDCHAR
STARTCHAR 0303
ENCODING 771
SWIDTH 0 0
DWIDTH 0 0
BBX 5 2 -7 10
BITMAP
E8
B8
ENDCHAR
STARTCHAR 0304
ENCODING 772
SWIDTH 0 0
DWIDTH 0 0
BBX 5 1 -6 11
BITMAP
F8
ENDCHAR
STARTCHAR 0305
ENCODING 773
SWIDTH 0 0
DWIDTH 0 0
BBX 8 1 -8 11
BITMAP
FF
ENDCHAR
STARTCHAR 0306
ENCODING 774
SWIDTH 0 0
DWIDTH 0 0
BBX 5 2 -6 10
BITMAP
88
70
ENDCHAR
STARTCHAR 0307
ENCODING 775
SWIDTH 0 0
DWIDTH 0 0
BBX 1 2 -5 9
BITMAP
80
80
ENDCHAR
STARTCHAR 0308
ENCODING 776
SWIDTH 0 0
DWIDTH 0 0
BBX 4 2 -6 9
BITMAP
90
90
ENDCHAR
STARTCHAR 0309
ENCODING 777
SWIDTH 0 0
DWIDTH 0 0
BBX 3 3 -5 10
BITMAP
E0
20
40
ENDCHAR
STARTCHAR 030A
ENCODING 778
SWIDTH 0 0
DWIDTH 0 0
BBX 4 4 -6 10
BITMAP
60
90
90
60
ENDCHAR
STARTCHAR 030B
ENCODING 779
SWIDTH 0 0
DWIDTH 0 0
BBX 6 3 -6 10
BITMAP
6C
48
90
ENDCHAR
STARTCHAR 030C
ENCODING 780
SWIDTH 0 0
DWIDTH 0 0
BBX 5 3 -6 9
BITMAP
88
50
20
ENDCHAR
STARTCHAR 030D
ENCODING 781
SWIDTH 0 0
DWIDTH 0 0
BBX 1 3 -4 10
BITMAP
80
80
80
ENDCHAR
STARTCHAR 030E
ENCODING 782
SWIDTH 0 0
DWIDTH 0 0
BBX 5 3 -6 10
BITMAP
88
88
88
ENDCHAR
STARTCHAR 030F
ENCODING 783
SWIDTH 0 0
DWIDTH 0 0
BBX 6 3 -8 10
BITMAP
D8
48
24
ENDCHAR
STARTCHAR 0310
ENCODING 784
SWIDTH 0 0
DWIDTH 0 0
BBX 5 5 -6 10
BITMAP
40
40
00
88
70
ENDCHAR
STARTCHAR 0311
ENCODING 785
SWIDTH 0 0
DWIDTH 0 0
BBX 5 2 -7 10
BITMAP
70
88
ENDCHAR
STARTCHAR 0312
ENCODING 786
SWIDTH 0 0
DWIDTH 0 0
BBX 1 2 -3 8
BITMAP
80
80
ENDCHAR
STARTCHAR 0313
ENCODING 787
SWIDTH 0 0
DWIDTH 0 0
BBX 2 4 -5 9
BITMAP
C0
C0
40
C0
ENDCHAR
STARTCHAR 0314
ENCODING 788
SWIDTH 0 0
DWIDTH 0 0
BBX 2 4 -5 9
BITMAP
C0
C0
80
C0
ENDCHAR
STARTCHAR 0315
ENCODING 789
SWIDTH 0 0
DWIDTH 0 0
BBX 2 3 -1 10
BITMAP
C0
C0
80
ENDCHAR
STARTCHAR 0316
ENCODING 790
SWIDTH 0 0
DWIDTH 0 0
BBX 4 3 -7 -4
BITMAP
C0
60
30
ENDCHAR
STARTCHAR 0317
ENCODING 791
SWIDTH 0 0
DWIDTH 0 0
BBX 4 3 -5 -4
BITMAP
30
60
C0
ENDCHAR
STARTCHAR 0318
ENCODING 792
SWIDTH 0 0
DWIDTH 0 0
BBX 2 2 -6 -3
BITMAP
40
C0
ENDCHAR
STARTCHAR 0319
ENCODING 793
SWIDTH 0 0
DWIDTH 0 0
BBX 3 2 -5 -3
BITMAP
80
60
ENDCHAR
STARTCHAR 031A
ENCODING 794
SWIDTH 0 0
DWIDTH 0 0
BBX 4 4 -3 11
BITMAP
F0
30
30
30
ENDCHAR
STARTCHAR 031B
ENCODING 795
SWIDTH 0 0
DWIDTH 0 0
BBX 2 3 -1 7
BITMAP
40
40
C0
ENDCHAR
STARTCHAR 031C
ENCODING 796
SWIDTH 0 0
DWIDTH 0 0
BBX 2 3 -5 -4
BITMAP
40
80
40
ENDCHAR
STARTCHAR 031D
ENCODING 797
SWIDTH 0 0
DWIDTH 0 0
BBX 4 3 -6 -4
BITMAP
60
60
F0
ENDCHAR
STARTCHAR 031E
ENCODING 798
SWIDTH 0 0
DWIDTH 0 0
BBX 4 3 -6 -4
BITMAP
F0
60
60
ENDCHAR
STARTCHAR 031F
ENCODING 799
SWIDTH 0 0
DWIDTH 0 0
BBX 4 2 -6 -3
BITMAP
40
F0
ENDCHAR
STARTCHAR 0320
ENCODING 800
SWIDTH 0 0
DWIDTH 0 0
BBX 4 1 -6 -2
BITMAP
F0
ENDCHAR
STARTCHAR 0321
ENCODING 801
SWIDTH 0 0
DWIDTH 0 0
BBX 5 4 -5 -4
BITMAP
18
18
10
F0
ENDCHAR
STARTCHAR 0322
ENCODING 802
SWIDTH 0 0
DWIDTH 0 0
BBX 5 4 -5 -4
BITMAP
80
80
C0
F8
ENDCHAR
STARTCHAR 0323
ENCODING 803
SWIDTH 0 0
DWIDTH 0 0
BBX 2 2 -5 -3
BITMAP
C0
C0
ENDCHAR
STARTCHAR 0324
ENCODING 804
SWIDTH 0 0
DWIDTH 0 0
BBX 4 2 -6 -3
BITMAP
90
90
ENDCHAR
STARTCHAR 0325
ENCODING 805
SWIDTH 0 0
DWIDTH 0 0
BBX 3 3 -6 -4
BITMAP
E0
A0
E0
ENDCHAR
STARTCHAR 0326
ENCODING 806
SWIDTH 0 0
DWIDTH 0 0
BBX 2 3 -5 -4
BITMAP
C0
80
80
ENDCHAR
STARTCHAR 0327
ENCODING 807
SWIDTH 0 0
DWIDTH 0 0
BBX 3 2 -6 -2
BITMAP
20
E0
ENDCHAR
STARTCHAR 0328
ENCODING 808
SWIDTH 0 0
DWIDTH 0 0
BBX 3 2 -5 -2
BITMAP
80
E0
ENDCHAR
STARTCHAR 0329
ENCODING 809
SWIDTH 0 0
DWIDTH 0 0
BBX 1 3 -4 -4
BITMAP
80
80
80
ENDCHAR
STARTCHAR 032A
ENCODING 810
SWIDTH 0 0
DWIDTH 0 0
BBX 4 2 -6 -3
BITMAP
F0
90
ENDCHAR
STARTCHAR 032B
ENCODING 811
SWIDTH 0 0
DWIDTH 0 0
BBX 6 3 -7 -4
BITMAP
A4
FC
48
ENDCHAR
STARTCHAR 032C
ENCODING 812
SWIDTH 0 0
DWIDTH 0 0
BBX 5 3 -6 -4
BITMAP
88
50
20
ENDCHAR
STARTCHAR 032D
ENCODING 813
SWIDTH 0 0
DWIDTH 0 0
BBX 5 3 -6 -4
BITMAP
20
50
88
ENDCHAR
STARTCHAR 032E
ENCODING 814
SWIDTH 0 0
DWIDTH 0 0
BBX 5 2 -6 -4
BITMAP
88
70
ENDCHAR
STARTCHAR 032F
ENCODING 815
SWIDTH 0 0
DWIDTH 0 0
BBX 5 3 -7 -4
BITMAP
30
48
88
ENDCHAR
STARTCHAR 0330
ENCODING 816
SWIDTH 0 0
DWIDTH 0 0
BBX 5 2 -7 -4
BITMAP
E8
B8
ENDCHAR
STARTCHAR 0331
ENCODING 817
SWIDTH 0 0
DWIDTH 0 0
BBX 5 1 -6 -2
BITMAP
F8
ENDCHAR
STARTCHAR 0332
ENCODING 818
SWIDTH 0 0
DWIDTH 0 0
BBX 8 1 -8 -4
BITMAP
FF
ENDCHAR
STARTCHAR 0333
ENCODING 819
SWIDTH 0 0
DWIDTH 0 0
BBX 8 4 -8 -4
BITMAP
FF
00
00
FF
ENDCHAR
STARTCHAR 0334
ENCODING 820
SWIDTH 0 0
DWIDTH 0 0
BBX 8 2 -9 4
BITMAP
79
8F
ENDCHAR
STARTCHAR 0335
ENCODING 821
SWIDTH 0 0
DWIDTH 0 0
BBX 4 1 -5 3
BITMAP
F0
ENDCHAR
STARTCHAR 0336
ENCODING 822
SWIDTH 0 0
DWIDTH 0 0
BBX 10 1 -10 3
BITMAP
FFC0
ENDCHAR
STARTCHAR 0337
ENCODING 823
SWIDTH 0 0
DWIDTH 0 0
BBX 8 10 -9 0
BITMAP
01
02
06
0C
08
10
20
40
C0
80
ENDCHAR
STARTCHAR 0338
ENCODING 824
SWIDTH 0 0
DWIDTH 0 0
BBX 11 12 -12 0
BITMAP
0020
0040
0080
0180
0300
0200
0400
0800
1000
3000
6000
C000
ENDCHAR
STARTCHAR 0339
ENCODING 825
SWIDTH 0 0
DWIDTH 0 0
BBX 2 3 -5 -4
BITMAP
80
40
80
ENDCHAR
STARTCHAR 033A
ENCODING 826
SWIDTH 0 0
DWIDTH 0 0
BBX 4 2 -6 -3
BITMAP
90
F0
ENDCHAR
STARTCHAR 033B
ENCODING 827
SWIDTH 0 0
DWIDTH 0 0
BBX 4 4 -6 -4
BITMAP
F0
90
90
F0
ENDCHAR
STARTCHAR 033C
ENCODING 828
SWIDTH 0 0
DWIDTH 0 0
BBX 6 3 -7 -4
BITMAP
48
B4
84
ENDCHAR
STARTCHAR 033D
ENCODING 829
SWIDTH 0 0
DWIDTH 0 0
BBX 4 3 -6 10
BITMAP
F0
60
F0
ENDCHAR
STARTCHAR 033E
ENCODING 830
SWIDTH 0 0
DWIDTH 0 0
BBX 2 4 -4 9
BITMAP
40
80
40
40
ENDCHAR
STARTCHAR 033F
ENCODING 831
SWIDTH 0 0
DWIDTH 0 0
BBX 8 4 -8 8
BITMAP
FF
00
00
FF
ENDCHAR
STARTCHAR 0340
ENCODING 832
SWIDTH 0 0
DWIDTH 0 0
BBX 4 3 -7 10
BITMAP
C0
60
30
ENDCHAR
STARTCHAR 0341
ENCODING 833
SWIDTH 0 0
DWIDTH 0 0
BBX 4 3 -5 10
BITMAP
30
60
C0
ENDCHAR
STARTCHAR 0342
ENCODING 834
SWIDTH 0 0
DWIDTH 0 0
BBX 5 2 -7 10
BITMAP
E8
B8
ENDCHAR
STARTCHAR 0343
ENCODING 835
SWIDTH 0 0
DWIDTH 0 0
BBX 2 4 -5 9
BITMAP
C0
C0
40
C0
ENDCHAR
STARTCHAR 0344
ENCODING 836
SWIDTH 0 0
DWIDTH 0 0
BBX 5 6 -6 10
BITMAP
18
30
60
00
90
90
ENDCHAR
STARTCHAR 0345
ENCODING 837
SWIDTH 0 0
DWIDTH 0 0
BBX 2 2 -5 -3
BITMAP
C0
C0
ENDCHAR
STARTCHAR 0346
ENCODING 838
SWIDTH 0 0
DWIDTH 0 0
BBX 4 3 -6 10
BITMAP
F0
F0
90
ENDCHAR
STARTCHAR 0347
ENCODING 839
SWIDTH 0 0
DWIDTH 0 0
BBX 4 3 -6 -3
BITMAP
F0
00
F0
ENDCHAR
STARTCHAR 0348
ENCODING 840
SWIDTH 0 0
DWIDTH 0 0
BBX 4 3 -6 -3
BITMAP
90
90
90
ENDCHAR
STARTCHAR 0349
ENCODING 841
SWIDTH 0 0
DWIDTH 0 0
BBX 4 4 -6 -4
BITMAP
F0
F0
10
10
ENDCHAR
STARTCHAR 034A
ENCODING 842
SWIDTH 0 0
DWIDTH 0 0
BBX 5 3 -7 9
BITMAP
10
78
B8
ENDCHAR
STARTCHAR 034B
ENCODING 843
SWIDTH 0 0
DWIDTH 0 0
BBX 5 5 -7 9
BITMAP
10
10
78
80
20
ENDCHAR
STARTCHAR 034C
ENCODING 844
SWIDTH 0 0
DWIDTH 0 0
BBX 5 4 -7 10
BITMAP
E8
90
E8
90
ENDCHAR
STARTCHAR 034D
ENCODING 845
SWIDTH 0 0
DWIDTH 0 0
BBX 6 4 -7 -4
BITMAP
48
84
FC
48
ENDCHAR
STARTCHAR 034E
ENCODING 846
SWIDTH 0 0
DWIDTH 0 0
BBX 4 2 -6 -3
BITMAP
60
D0
ENDCHAR
STARTCHAR 034F
ENCODING 847
SWIDTH 0 0
DWIDTH 0 0
BBX 0 0 0 0
BITMAP
ENDCHAR
STARTCHAR 0351
ENCODING 849
SWIDTH 0 0
DWIDTH 0 0
BBX 2 4 -5 10
BITMAP
40
80
80
C0
ENDCHAR
STARTCHAR 0352
ENCODING 850
SWIDTH 0 0
DWIDTH 0 0
BBX 5 3 -7 9
BITMAP
70
A8
20
ENDCHAR
STARTCHAR 0353
ENCODING 851
SWIDTH 0 0
DWIDTH 0 0
BBX 4 3 -6 -4
BITMAP
F0
60
F0
ENDCHAR
STARTCHAR 0357
ENCODING 855
SWIDTH 0 0
DWIDTH 0 0
BBX 2 4 -5 10
BITMAP
80
40
40
C0
ENDCHAR
STARTCHAR 0358
ENCODING 856
SWIDTH 0 0
DWIDTH 0 0
BBX 2 2 -2 10
BITMAP
C0
C0
ENDCHAR
STARTCHAR 035A
ENCODING 858
SWIDTH 0 0
DWIDTH 0 0
BBX 6 3 -7 -3
BITMAP
FC
B4
78
ENDCHAR
STARTCHAR 035C
ENCODING 860
SWIDTH 0 0
DWIDTH 0 0
BBX 15 3 -7 -4
BITMAP
8002
701C
0FE0
ENDCHAR
STARTCHAR 035D
ENCODING 861
SWIDTH 0 0
DWIDTH 0 0
BBX 15 3 -7 13
BITMAP
8002
701C
0FE0
ENDCHAR
STARTCHAR 035E
ENCODING 862
SWIDTH 0 0
DWIDTH 0 0
BBX 14 1 -7 13
BITMAP
FFFC
ENDCHAR
STARTCHAR 035F
ENCODING 863
SWIDTH 0 0
DWIDTH 0 0
BBX 14 2 -7 -3
BITMAP
FFFC
FFFC
ENDCHAR
STARTCHAR 0360
ENCODING 864
SWIDTH 0 0
DWIDTH 0 0
BBX 11 2 -6 13
BITMAP
7E20
C3C0
ENDCHAR
STARTCHAR 0361
ENCODING 865
SWIDTH 0 0
DWIDTH 0 0
BBX 15 3 -7 12
BITMAP
0FE0
701C
8002
ENDCHAR
STARTCHAR 0362
ENCODING 866
SWIDTH 0 0
DWIDTH 0 0
BBX 13 4 -6 -4
BITMAP
0010
0008
FFF8
0010
ENDCHAR
STARTCHAR 0370
ENCODING 880
SWIDTH 625 0
DWIDTH 10 0
BBX 7 12 2 0
BITMAP
80
80
80
80
80
FE
80
80
80
80
80
80
ENDCHAR
STARTCHAR 0371
ENCODING 881
SWIDTH 562 0
DWIDTH 9 0
BBX 6 9 2 0
BITMAP
80
80
80
80
FC
80
80
80
80
ENDCHAR
STARTCHAR 0372
ENCODING 882
SWIDTH 875 0
DWIDTH 14 0
BBX 10 12 2 0
BITMAP
FFC0
FFC0
8C40
8C40
8C40
8C40
0C00
0C00
0C00
0C00
0C00
0C00
ENDCHAR
STARTCHAR 0373
ENCODING 883
SWIDTH 625 0
DWIDTH 10 0
BBX 7 12 2 0
BITMAP
FE
FE
B6
B6
B6
B6
30
30
30
30
30
30
ENDCHAR
STARTCHAR 0374
ENCODING 884
SWIDTH 250 0
DWIDTH 4 0
BBX 2 4 1 9
BITMAP
C0
C0
80
80
ENDCHAR
STARTCHAR 0375
ENCODING 885
SWIDTH 250 0
DWIDTH 4 0
BBX 2 4 1 -3
BITMAP
40
40
C0
C0
ENDCHAR
STARTCHAR 0376
ENCODING 886
SWIDTH 750 0
DWIDTH 12 0
BBX 10 12 1 0
BITMAP
80C0
8140
8140
8240
8240
8440
8840
8840
9040
A040
A040
C040
ENDCHAR
STARTCHAR 0377
ENCODING 887
SWIDTH 625 0
DWIDTH 10 0
BBX 8 9 1 0
BITMAP
83
87
85
89
99
91
A1
E1
C1
ENDCHAR
STARTCHAR 037A
ENCODING 890
SWIDTH 500 0
DWIDTH 8 0
BBX 2 2 3 -3
BITMAP
C0
C0
ENDCHAR
STARTCHAR 037B
ENCODING 891
SWIDTH 562 0
DWIDTH 9 0
BBX 7 9 1 0
BITMAP
78
84
02
02
02
02
02
84
78
ENDCHAR
STARTCHAR 037C
ENCODING 892
SWIDTH 562 0
DWIDTH 9 0
BBX 7 9 1 0
BITMAP
3C
42
80
88
88
80
80
42
3C
ENDCHAR
STARTCHAR 037D
ENCODING 893
SWIDTH 562 0
DWIDTH 9 0
BBX 7 9 1 0
BITMAP
78
84
02
22
22
02
02
84
78
ENDCHAR
STARTCHAR 037E
ENCODING 894
SWIDTH 312 0
DWIDTH 5 0
BBX 2 10 1 -2
BITMAP
40
40
00
00
00
00
40
40
40
80
ENDCHAR
STARTCHAR 0384
ENCODING 900
SWIDTH 500 0
DWIDTH 8 0
BBX 4 3 3 10
BITMAP
30
60
C0
ENDCHAR
STARTCHAR 0385
ENCODING 901
SWIDTH 500 0
DWIDTH 8 0
BBX 5 6 2 10
BITMAP
18
30
60
00
90
90
ENDCHAR
STARTCHAR 0386
ENCODING 902
SWIDTH 687 0
DWIDTH 11 0
BBX 11 13 0 0
BITMAP
1800
3400
6400
0A00
0A00
1100
1100
2080
2080
3F80
4040
4040
8020
ENDCHAR
STARTCHAR 0387
ENCODING 903
SWIDTH 312 0
DWIDTH 5 0
BBX 1 2 2 5
BITMAP
80
80
ENDCHAR
STARTCHAR 0388
ENCODING 904
SWIDTH 750 0
DWIDTH 12 0
BBX 11 13 0 0
BITMAP
3000
7FE0
D000
1000
1000
1000
1FE0
1000
1000
1000
1000
1000
1FE0
ENDCHAR
STARTCHAR 0389
ENCODING 905
SWIDTH 875 0
DWIDTH 14 0
BBX 13 13 0 0
BITMAP
3000
7008
D008
1008
1008
1008
1FF8
1008
1008
1008
1008
1008
1008
ENDCHAR
STARTCHAR 038A
ENCODING 906
SWIDTH 437 0
DWIDTH 7 0
BBX 5 13 0 0
BITMAP
30
68
C8
08
08
08
08
08
08
08
08
08
08
ENDCHAR
STARTCHAR 038C
ENCODING 908
SWIDTH 812 0
DWIDTH 13 0
BBX 12 13 0 0
BITMAP
3000
6F80
D040
2020
4010
4010
4010
4010
4010
4010
2020
1040
0F80
ENDCHAR
STARTCHAR 038E
ENCODING 910
SWIDTH 812 0
DWIDTH 13 0
BBX 12 13 0 0
BITMAP
3000
7810
C820
0440
0440
0280
0100
0100
0100
0100
0100
0100
0100
ENDCHAR
STARTCHAR 038F
ENCODING 911
SWIDTH 812 0
DWIDTH 13 0
BBX 12 13 0 0
BITMAP
3000
6F80
D040
2020
4010
4010
4010
4010
4010
2030
2020
1040
78F0
ENDCHAR
STARTCHAR 0390
ENCODING 912
SWIDTH 312 0
DWIDTH 5 0
BBX 5 16 0 0
BITMAP
18
30
60
00
90
90
00
40
40
40
40
40
40
40
40
30
ENDCHAR
STARTCHAR 0391
ENCODING 913
SWIDTH 687 0
DWIDTH 11 0
BBX 11 12 0 0
BITMAP
0400
0400
0A00
0A00
1100
1100
2080
2080
3F80
4040
4040
8020
ENDCHAR
STARTCHAR 0392
ENCODING 914
SWIDTH 687 0
DWIDTH 11 0
BBX 9 12 1 0
BITMAP
FE00
8180
8080
8080
8180
FF00
8180
8080
8080
8080
8100
FE00
ENDCHAR
STARTCHAR 0393
ENCODING 915
SWIDTH 500 0
DWIDTH 8 0
BBX 7 12 1 0
BITMAP
FE
80
80
80
80
80
80
80
80
80
80
80
ENDCHAR
STARTCHAR 0394
ENCODING 916
SWIDTH 687 0
DWIDTH 11 0
BBX 11 12 0 0
BITMAP
0E00
0A00
0A00
1100
1100
3180
2080
2080
4040
4040
4040
FFE0
ENDCHAR
STARTCHAR 0395
ENCODING 917
SWIDTH 625 0
DWIDTH 10 0
BBX 8 12 1 0
BITMAP
FF
80
80
80
80
FF
80
80
80
80
80
FF
ENDCHAR
STARTCHAR 0396
ENCODING 918
SWIDTH 750 0
DWIDTH 12 0
BBX 10 12 1 0
BITMAP
FFC0
0040
0080
0100
0200
0400
0800
1000
2000
4000
8000
FFC0
ENDCHAR
STARTCHAR 0397
ENCODING 919
SWIDTH 750 0
DWIDTH 12 0
BBX 10 12 1 0
BITMAP
8040
8040
8040
8040
8040
FFC0
8040
8040
8040
8040
8040
8040
ENDCHAR
STARTCHAR 0398
ENCODING 920
SWIDTH 812 0
DWIDTH 13 0
BBX 11 12 1 0
BITMAP
1F00
2080
4040
8020
8020
9F20
8020
8020
8020
4040
2080
1F00
ENDCHAR
STARTCHAR 0399
ENCODING 921
SWIDTH 312 0
DWIDTH 5 0
BBX 1 12 2 0
BITMAP
80
80
80
80
80
80
80
80
80
80
80
80
ENDCHAR
STARTCHAR 039A
ENCODING 922
SWIDTH 625 0
DWIDTH 10 0
BBX 8 12 1 0
BITMAP
81
82
84
88
90
E0
A0
90
88
84
82
81
ENDCHAR
STARTCHAR 039B
ENCODING 923
SWIDTH 687 0
DWIDTH 11 0
BBX 11 12 0 0
BITMAP
0E00
0A00
0A00
1100
1100
3180
2080
2080
4040
4040
4040
8020
ENDCHAR
STARTCHAR 039C
ENCODING 924
SWIDTH 812 0
DWIDTH 13 0
BBX 11 12 1 0
BITMAP
C060
C060
A0A0
A0A0
A0A0
9120
9120
8A20
8A20
8420
8020
8020
ENDCHAR
STARTCHAR 039D
ENCODING 925
SWIDTH 750 0
DWIDTH 12 0
BBX 10 12 1 0
BITMAP
C040
A040
A040
9040
8840
8840
8440
8240
8240
8140
8140
80C0
ENDCHAR
STARTCHAR 039E
ENCODING 926
SWIDTH 562 0
DWIDTH 9 0
BBX 7 12 1 0
BITMAP
FE
00
00
00
00
7C
00
00
00
00
00
FE
ENDCHAR
STARTCHAR 039F
ENCODING 927
SWIDTH 812 0
DWIDTH 13 0
BBX 11 12 1 0
BITMAP
1F00
2080
4040
8020
8020
8020
8020
8020
8020
4040
2080
1F00
ENDCHAR
STARTCHAR 03A0
ENCODING 928
SWIDTH 687 0
DWIDTH 11 0
BBX 9 12 1 0
BITMAP
FF80
8080
8080
8080
8080
8080
8080
8080
8080
8080
8080
8080
ENDCHAR
STARTCHAR 03A1
ENCODING 929
SWIDTH 625 0
DWIDTH 10 0
BBX 8 12 1 0
BITMAP
FC
82
81
81
81
82
FC
80
80
80
80
80
ENDCHAR
STARTCHAR 03A3
ENCODING 931
SWIDTH 562 0
DWIDTH 9 0
BBX 7 12 1 0
BITMAP
FE
C0
60
20
10
08
10
30
20
40
C0
FE
ENDCHAR
STARTCHAR 03A4
ENCODING 932
SWIDTH 562 0
DWIDTH 9 0
BBX 9 12 0 0
BITMAP
FF80
0800
0800
0800
0800
0800
0800
0800
0800
0800
0800
0800
ENDCHAR
STARTCHAR 03A5
ENCODING 933
SWIDTH 562 0
DWIDTH 9 0
BBX 9 12 0 0
BITMAP
C080
4100
2200
2200
1400
0800
0800
0800
0800
0800
0800
0800
ENDCHAR
STARTCHAR 03A6
ENCODING 934
SWIDTH 812 0
DWIDTH 13 0
BBX 11 12 1 0
BITMAP
0400
1F00
64C0
4440
8420
8420
8420
8420
4440
64C0
1F00
0400
ENDCHAR
STARTCHAR 03A7
ENCODING 935
SWIDTH 687 0
DWIDTH 11 0
BBX 9 12 1 0
BITMAP
C180
4100
2200
2200
1400
0800
0800
1400
2200
2200
4100
8080
ENDCHAR
STARTCHAR 03A8
ENCODING 936
SWIDTH 812 0
DWIDTH 13 0
BBX 11 12 1 0
BITMAP
8420
8420
8420
8420
8420
8420
4440
4440
2480
1F00
0400
0400
ENDCHAR
STARTCHAR 03A9
ENCODING 937
SWIDTH 812 0
DWIDTH 13 0
BBX 11 12 1 0
BITMAP
1F00
2080
4040
8020
8020
8020
8020
8020
4060
4040
2080
F1E0
ENDCHAR
STARTCHAR 03AA
ENCODING 938
SWIDTH 312 0
DWIDTH 5 0
BBX 5 15 0 0
BITMAP
88
88
00
20
20
20
20
20
20
20
20
20
20
20
20
ENDCHAR
STARTCHAR 03AB
ENCODING 939
SWIDTH 562 0
DWIDTH 9 0
BBX 9 15 0 0
BITMAP
1400
1400
0000
C080
4100
2200
2200
1400
0800
0800
0800
0800
0800
0800
0800
ENDCHAR
STARTCHAR 03AC
ENCODING 940
SWIDTH 687 0
DWIDTH 11 0
BBX 9 13 1 0
BITMAP
0600
0C00
1800
0000
3880
4500
8500
8300
8200
8200
8600
4700
3980
ENDCHAR
STARTCHAR 03AD
ENCODING 941
SWIDTH 500 0
DWIDTH 8 0
BBX 7 13 1 0
BITMAP
06
0C
18
00
7C
C0
80
80
70
80
80
C0
7C
ENDCHAR
STARTCHAR 03AE
ENCODING 942
SWIDTH 625 0
DWIDTH 10 0
BBX 8 16 1 -3
BITMAP
03
06
0C
00
BE
C3
81
81
81
81
81
81
81
01
01
01
ENDCHAR
STARTCHAR 03AF
ENCODING 943
SWIDTH 312 0
DWIDTH 5 0
BBX 5 13 1 0
BITMAP
18
30
60
00
80
80
80
80
80
80
80
80
60
ENDCHAR
STARTCHAR 03B0
ENCODING 944
SWIDTH 562 0
DWIDTH 9 0
BBX 7 16 1 0
BITMAP
0C
18
30
00
48
48
00
84
82
82
82
82
82
84
CC
78
ENDCHAR
STARTCHAR 03B1
ENCODING 945
SWIDTH 687 0
DWIDTH 11 0
BBX 9 9 1 0
BITMAP
3880
4500
8500
8300
8200
8200
8600
4700
3980
ENDCHAR
STARTCHAR 03B2
ENCODING 946
SWIDTH 625 0
DWIDTH 10 0
BBX 8 16 1 -3
BITMAP
7C
C6
82
82
82
86
BC
82
81
81
81
C2
FC
80
80
80
ENDCHAR
STARTCHAR 03B3
ENCODING 947
SWIDTH 562 0
DWIDTH 9 0
BBX 9 12 0 -3
BITMAP
C080
4100
2100
2200
2200
1600
1400
1C00
0800
0800
0800
0800
ENDCHAR
STARTCHAR 03B4
ENCODING 948
SWIDTH 625 0
DWIDTH 10 0
BBX 8 12 1 0
BITMAP
3C
42
40
3C
42
81
81
81
81
81
42
3C
ENDCHAR
STARTCHAR 03B5
ENCODING 949
SWIDTH 500 0
DWIDTH 8 0
BBX 6 9 1 0
BITMAP
7C
C0
80
80
70
80
80
C0
7C
ENDCHAR
STARTCHAR 03B6
ENCODING 950
SWIDTH 562 0
DWIDTH 9 0
BBX 7 15 1 -3
BITMAP
FE
0C
10
20
40
C0
80
80
80
80
40
3C
02
02
04
ENDCHAR
STARTCHAR 03B7
ENCODING 951
SWIDTH 625 0
DWIDTH 10 0
BBX 8 12 1 -3
BITMAP
BE
C3
81
81
81
81
81
81
81
01
01
01
ENDCHAR
STARTCHAR 03B8
ENCODING 952
SWIDTH 625 0
DWIDTH 10 0
BBX 8 12 1 0
BITMAP
3C
42
42
81
81
FF
81
81
81
42
42
3C
ENDCHAR
STARTCHAR 03B9
ENCODING 953
SWIDTH 312 0
DWIDTH 5 0
BBX 3 9 1 0
BITMAP
80
80
80
80
80
80
80
80
60
ENDCHAR
STARTCHAR 03BA
ENCODING 954
SWIDTH 562 0
DWIDTH 9 0
BBX 8 9 1 0
BITMAP
84
88
90
B0
D0
88
84
82
83
ENDCHAR
STARTCHAR 03BB
ENCODING 955
SWIDTH 562 0
DWIDTH 9 0
BBX 9 12 0 0
BITMAP
7000
1800
0800
0800
0C00
1400
1200
2200
2300
4100
4100
8080
ENDCHAR
STARTCHAR 03BC
ENCODING 956
SWIDTH 625 0
DWIDTH 10 0
BBX 9 12 1 -3
BITMAP
8100
8100
8100
8100
8100
8100
8100
C300
BD80
8000
8000
8000
ENDCHAR
STARTCHAR 03BD
ENCODING 957
SWIDTH 625 0
DWIDTH 10 0
BBX 8 9 1 0
BITMAP
82
C1
41
41
61
22
26
3C
18
ENDCHAR
STARTCHAR 03BE
ENCODING 958
SWIDTH 562 0
DWIDTH 9 0
BBX 7 15 1 -3
BITMAP
FC
40
80
80
C0
38
40
80
80
80
40
3C
02
02
04
ENDCHAR
STARTCHAR 03BF
ENCODING 959
SWIDTH 625 0
DWIDTH 10 0
BBX 8 9 1 0
BITMAP
3C
42
81
81
81
81
81
42
3C
ENDCHAR
STARTCHAR 03C0
ENCODING 960
SWIDTH 625 0
DWIDTH 10 0
BBX 8 9 1 0
BITMAP
FF
42
42
42
42
42
42
42
43
ENDCHAR
STARTCHAR 03C1
ENCODING 961
SWIDTH 625 0
DWIDTH 10 0
BBX 8 12 1 -3
BITMAP
3C
42
81
81
81
81
81
C2
BC
80
80
80
ENDCHAR
STARTCHAR 03C2
ENCODING 962
SWIDTH 625 0
DWIDTH 10 0
BBX 7 12 1 -3
BITMAP
3C
42
80
80
80
80
80
40
3C
02
02
04
ENDCHAR
STARTCHAR 03C3
ENCODING 963
SWIDTH 625 0
DWIDTH 10 0
BBX 9 9 1 0
BITMAP
3F80
4200
8100
8100
8100
8100
8100
4200
3C00
ENDCHAR
STARTCHAR 03C4
ENCODING 964
SWIDTH 562 0
DWIDTH 9 0
BBX 7 9 1 0
BITMAP
FE
10
10
10
10
10
10
10
0C
ENDCHAR
STARTCHAR 03C5
ENCODING 965
SWIDTH 562 0
DWIDTH 9 0
BBX 7 9 1 0
BITMAP
84
82
82
82
82
82
84
CC
78
ENDCHAR
STARTCHAR 03C6
ENCODING 966
SWIDTH 687 0
DWIDTH 11 0
BBX 9 12 1 -3
BITMAP
2600
4900
8880
8880
8880
8880
8880
4900
3E00
0800
0800
0800
ENDCHAR
STARTCHAR 03C7
ENCODING 967
SWIDTH 500 0
DWIDTH 8 0
BBX 8 12 0 -3
BITMAP
C1
22
26
34
18
18
18
18
2C
64
44
83
ENDCHAR
STARTCHAR 03C8
ENCODING 968
SWIDTH 687 0
DWIDTH 11 0
BBX 9 12 1 -3
BITMAP
8880
8880
8880
8880
8880
8880
8880
4900
3E00
0800
0800
0800
ENDCHAR
STARTCHAR 03C9
ENCODING 969
SWIDTH 812 0
DWIDTH 13 0
BBX 11 9 1 0
BITMAP
4040
8020
8020
8020
8420
8420
8420
4A40
7BC0
ENDCHAR
STARTCHAR 03CA
ENCODING 970
SWIDTH 312 0
DWIDTH 5 0
BBX 4 12 0 0
BITMAP
90
90
00
40
40
40
40
40
40
40
40
30
ENDCHAR
STARTCHAR 03CB
ENCODING 971
SWIDTH 562 0
DWIDTH 9 0
BBX 7 12 1 0
BITMAP
48
48
00
84
82
82
82
82
82
84
CC
78
ENDCHAR
STARTCHAR 03CC
ENCODING 972
SWIDTH 625 0
DWIDTH 10 0
BBX 8 13 1 0
BITMAP
06
0C
18
00
3C
42
81
81
81
81
81
42
3C
ENDCHAR
STARTCHAR 03CD
ENCODING 973
SWIDTH 562 0
DWIDTH 9 0
BBX 7 13 1 0
BITMAP
0C
18
30
00
84
82
82
82
82
82
84
CC
78
ENDCHAR
STARTCHAR 03CE
ENCODING 974
SWIDTH 812 0
DWIDTH 13 0
BBX 11 13 1 0
BITMAP
0180
0300
0600
0000
4040
8020
8020
8020
8420
8420
8420
4A40
7BC0
ENDCHAR
STARTCHAR 03CF
ENCODING 975
SWIDTH 687 0
DWIDTH 11 0
BBX 8 15 2 -4
BITMAP
83
86
8C
98
B0
E0
E0
B0
98
8C
86
83
01
03
02
ENDCHAR
STARTCHAR 03D0
ENCODING 976
SWIDTH 562 0
DWIDTH 9 0
BBX 7 12 1 1
BITMAP
38
44
84
84
8C
F8
84
82
82
C2
44
38
ENDCHAR
STARTCHAR 03D1
ENCODING 977
SWIDTH 625 0
DWIDTH 10 0
BBX 8 12 1 0
BITMAP
3C
62
42
41
21
9F
81
81
81
42
62
3C
ENDCHAR
STARTCHAR 03D2
ENCODING 978
SWIDTH 687 0
DWIDTH 11 0
BBX 9 12 1 0
BITMAP
E380
3580
1400
1800
0800
0800
0800
0800
0800
0800
0800
0800
ENDCHAR
STARTCHAR 03D3
ENCODING 979
SWIDTH 812 0
DWIDTH 13 0
BBX 13 13 0 0
BITMAP
3000
6E38
C358
0140
0180
0080
0080
0080
0080
0080
0080
0080
0080
ENDCHAR
STARTCHAR 03D4
ENCODING 980
SWIDTH 687 0
DWIDTH 11 0
BBX 9 15 1 0
BITMAP
1200
1200
0000
E380
3580
1400
1800
0800
0800
0800
0800
0800
0800
0800
0800
ENDCHAR
STARTCHAR 03D5
ENCODING 981
SWIDTH 687 0
DWIDTH 11 0
BBX 9 15 1 -3
BITMAP
0800
0800
0800
3E00
4900
8880
8880
8880
8880
8880
4900
3E00
0800
0800
0800
ENDCHAR
STARTCHAR 03D6
ENCODING 982
SWIDTH 812 0
DWIDTH 13 0
BBX 13 9 0 0
BITMAP
FFF8
6030
4010
4010
4210
4210
4210
2520
3DE0
ENDCHAR
STARTCHAR 03D7
ENCODING 983
SWIDTH 687 0
DWIDTH 11 0
BBX 9 12 1 -4
BITMAP
E180
F300
1300
1600
3C00
3400
6400
C400
8300
0100
0300
0E00
ENDCHAR
STARTCHAR 03D8
ENCODING 984
SWIDTH 812 0
DWIDTH 13 0
BBX 11 15 1 -3
BITMAP
1F00
2080
4040
8020
8020
8020
8020
8020
8020
4040
2080
1F00
0400
0400
0400
ENDCHAR
STARTCHAR 03D9
ENCODING 985
SWIDTH 562 0
DWIDTH 9 0
BBX 7 12 1 -3
BITMAP
38
44
82
82
82
82
82
44
38
10
10
10
ENDCHAR
STARTCHAR 03DA
ENCODING 986
SWIDTH 625 0
DWIDTH 10 0
BBX 8 15 1 -3
BITMAP
1F
60
40
80
80
80
80
80
80
40
60
1C
02
02
04
ENDCHAR
STARTCHAR 03DB
ENCODING 987
SWIDTH 562 0
DWIDTH 9 0
BBX 8 12 1 -3
BITMAP
3F
40
80
80
80
80
80
40
38
04
04
08
ENDCHAR
STARTCHAR 03DC
ENCODING 988
SWIDTH 562 0
DWIDTH 9 0
BBX 7 12 1 0
BITMAP
FE
80
80
80
80
FC
80
80
80
80
80
80
ENDCHAR
STARTCHAR 03DD
ENCODING 989
SWIDTH 437 0
DWIDTH 7 0
BBX 7 15 -1 -3
BITMAP
0E
18
10
10
10
10
1E
10
10
10
10
10
10
30
E0
ENDCHAR
STARTCHAR 03DE
ENCODING 990
SWIDTH 687 0
DWIDTH 11 0
BBX 9 12 1 -1
BITMAP
C000
E000
2000
2080
2300
6F00
7B00
6200
0200
0600
0600
0300
ENDCHAR
STARTCHAR 03DF
ENCODING 991
SWIDTH 687 0
DWIDTH 11 0
BBX 8 12 2 0
BITMAP
20
20
40
40
40
FF
03
02
02
06
04
04
ENDCHAR
STARTCHAR 03E0
ENCODING 992
SWIDTH 875 0
DWIDTH 14 0
BBX 12 15 1 -4
BITMAP
3E00
F380
B0C0
3060
31E0
3120
0330
0330
0330
0330
0330
0320
0020
0060
0040
ENDCHAR
STARTCHAR 03E1
ENCODING 993
SWIDTH 625 0
DWIDTH 10 0
BBX 8 12 1 -3
BITMAP
C0
70
18
0C
1C
16
26
6B
D1
01
01
01
ENDCHAR
STARTCHAR 03E2
ENCODING 994
SWIDTH 937 0
DWIDTH 15 0
BBX 13 15 1 -3
BITMAP
2020
4010
4010
8008
8008
8208
8208
8208
8208
8608
4510
38F0
00E0
0180
0600
ENDCHAR
STARTCHAR 03E3
ENCODING 995
SWIDTH 812 0
DWIDTH 13 0
BBX 11 12 1 -3
BITMAP
4040
C060
8020
8020
8420
8420
8420
4A40
7BC0
0180
0300
0C00
ENDCHAR
STARTCHAR 03E4
ENCODING 996
SWIDTH 750 0
DWIDTH 12 0
BBX 9 15 1 -3
BITMAP
1880
2080
4080
C080
8080
8080
8080
8080
8080
4180
6380
1E80
0080
0080
0080
ENDCHAR
STARTCHAR 03E5
ENCODING 997
SWIDTH 687 0
DWIDTH 11 0
BBX 8 12 1 -3
BITMAP
31
41
C1
81
81
81
81
43
3D
01
01
01
ENDCHAR
STARTCHAR 03E6
ENCODING 998
SWIDTH 750 0
DWIDTH 12 0
BBX 10 15 1 -3
BITMAP
8000
8000
8000
9E00
E180
C080
8040
8040
8040
8040
80C0
8180
0300
0E00
3000
ENDCHAR
STARTCHAR 03E7
ENCODING 999
SWIDTH 625 0
DWIDTH 10 0
BBX 8 9 1 0
BITMAP
39
4F
C6
CF
7B
03
03
C2
FE
ENDCHAR
STARTCHAR 03E8
ENCODING 1000
SWIDTH 687 0
DWIDTH 11 0
BBX 9 15 1 -4
BITMAP
3E00
7F00
C180
C180
0180
0180
0300
0700
0E00
1800
3000
E000
C000
6180
3F00
ENDCHAR
STARTCHAR 03E9
ENCODING 1001
SWIDTH 625 0
DWIDTH 10 0
BBX 8 12 1 -4
BITMAP
3C
66
C3
03
03
06
0C
18
70
C0
61
3E
ENDCHAR
STARTCHAR 03EA
ENCODING 1002
SWIDTH 750 0
DWIDTH 12 0
BBX 10 12 1 0
BITMAP
C0C0
E1C0
3100
1B00
1E00
0C00
0E00
1E00
1300
3100
6180
FFC0
ENDCHAR
STARTCHAR 03EB
ENCODING 1003
SWIDTH 625 0
DWIDTH 10 0
BBX 10 9 0 0
BITMAP
61C0
3300
1A00
0E00
0C00
1E00
3300
2100
FFC0
ENDCHAR
STARTCHAR 03EC
ENCODING 1004
SWIDTH 687 0
DWIDTH 11 0
BBX 9 12 1 0
BITMAP
1F80
7F00
4000
DE00
E300
C180
C180
8080
C080
C180
6300
3E00
ENDCHAR
STARTCHAR 03ED
ENCODING 1005
SWIDTH 625 0
DWIDTH 10 0
BBX 8 12 1 0
BITMAP
1E
7C
C0
FC
E6
C2
83
83
83
C2
46
7C
ENDCHAR
STARTCHAR 03EE
ENCODING 1006
SWIDTH 625 0
DWIDTH 10 0
BBX 9 15 0 -3
BITMAP
0800
0800
0800
FF80
8880
0800
0800
0800
0800
0800
0800
0800
0800
0800
0800
ENDCHAR
STARTCHAR 03EF
ENCODING 1007
SWIDTH 562 0
DWIDTH 9 0
BBX 7 15 1 -3
BITMAP
10
10
10
FE
92
10
10
10
10
10
10
10
10
10
10
ENDCHAR
STARTCHAR 03F0
ENCODING 1008
SWIDTH 687 0
DWIDTH 11 0
BBX 9 9 1 -1
BITMAP
E180
F300
1300
1600
3C00
3400
6400
C400
8700
ENDCHAR
STARTCHAR 03F1
ENCODING 1009
SWIDTH 625 0
DWIDTH 10 0
BBX 8 12 1 -3
BITMAP
3C
42
81
81
81
81
81
C2
BC
80
40
3F
ENDCHAR
STARTCHAR 03F2
ENCODING 1010
SWIDTH 562 0
DWIDTH 9 0
BBX 7 9 1 0
BITMAP
3C
42
80
80
80
80
80
42
3C
ENDCHAR
STARTCHAR 03F3
ENCODING 1011
SWIDTH 187 0
DWIDTH 3 0
BBX 3 15 -1 -3
BITMAP
20
20
00
20
20
20
20
20
20
20
20
20
20
20
C0
ENDCHAR
STARTCHAR 03F4
ENCODING 1012
SWIDTH 812 0
DWIDTH 13 0
BBX 11 12 1 0
BITMAP
1F00
2080
4040
8020
8020
FFE0
8020
8020
C020
4040
2080
1F00
ENDCHAR
STARTCHAR 03F5
ENCODING 1013
SWIDTH 625 0
DWIDTH 10 0
BBX 7 9 1 -1
BITMAP
3E
62
C0
C0
FE
80
C0
60
3E
ENDCHAR
STARTCHAR 03F6
ENCODING 1014
SWIDTH 625 0
DWIDTH 10 0
BBX 6 9 2 -1
BITMAP
F0
18
0C
04
FC
04
0C
0C
F8
ENDCHAR
STARTCHAR 03F7
ENCODING 1015
SWIDTH 625 0
DWIDTH 10 0
BBX 8 12 1 0
BITMAP
80
80
FC
82
81
81
81
82
FC
80
80
80
ENDCHAR
STARTCHAR 03F8
ENCODING 1016
SWIDTH 625 0
DWIDTH 10 0
BBX 8 15 1 -3
BITMAP
80
80
80
BC
C2
81
81
81
81
81
C2
BC
80
80
80
ENDCHAR
STARTCHAR 03F9
ENCODING 1017
SWIDTH 687 0
DWIDTH 11 0
BBX 9 12 1 0
BITMAP
1F00
2180
4000
8000
8000
8000
8000
8000
8000
4000
2180
1F00
ENDCHAR
STARTCHAR 03FA
ENCODING 1018
SWIDTH 812 0
DWIDTH 13 0
BBX 11 12 1 0
BITMAP
8020
C060
A0A0
9120
9B20
8A20
8420
8020
8020
8020
8020
8020
ENDCHAR
STARTCHAR 03FB
ENCODING 1019
SWIDTH 625 0
DWIDTH 10 0
BBX 8 12 1 -3
BITMAP
C3
C3
A5
BD
99
81
81
81
81
80
80
80
ENDCHAR
STARTCHAR 03FC
ENCODING 1020
SWIDTH 625 0
DWIDTH 10 0
BBX 8 12 1 -4
BITMAP
1C
66
43
41
C1
C1
C3
E3
DE
C0
FC
C0
ENDCHAR
STARTCHAR 03FD
ENCODING 1021
SWIDTH 687 0
DWIDTH 11 0
BBX 9 12 1 0
BITMAP
7C00
8200
0100
0080
0080
0080
0080
0080
0080
0100
8200
7C00
ENDCHAR
STARTCHAR 03FE
ENCODING 1022
SWIDTH 687 0
DWIDTH 11 0
BBX 9 12 1 0
BITMAP
1F00
2180
4000
8000
8000
8400
8400
8000
8000
4000
2180
1F00
ENDCHAR
STARTCHAR 03FF
ENCODING 1023
SWIDTH 687 0
DWIDTH 11 0
BBX 9 12 1 0
BITMAP
7C00
8200
0100
0080
0080
1080
1080
0080
0080
0100
8200
7C00
ENDCHAR
STARTCHAR 0400
ENCODING 1024
SWIDTH 625 0
DWIDTH 10 0
BBX 8 15 1 0
BITMAP
18
0C
00
FF
80
80
80
80
FF
80
80
80
80
80
FF
ENDCHAR
STARTCHAR 0401
ENCODING 1025
SWIDTH 625 0
DWIDTH 10 0
BBX 8 15 1 0
BITMAP
24
24
00
FF
80
80
80
80
FF
80
80
80
80
80
FF
ENDCHAR
STARTCHAR 0402
ENCODING 1026
SWIDTH 812 0
DWIDTH 13 0
BBX 10 15 0 -3
BITMAP
FF00
1000
1000
1000
1000
1F80
10C0
1040
1040
1040
1040
1040
0040
0040
0180
ENDCHAR
STARTCHAR 0403
ENCODING 1027
SWIDTH 562 0
DWIDTH 9 0
BBX 7 15 1 0
BITMAP
0C
18
00
FE
80
80
80
80
80
80
80
80
80
80
80
ENDCHAR
STARTCHAR 0404
ENCODING 1028
SWIDTH 687 0
DWIDTH 11 0
BBX 9 12 1 0
BITMAP
1F00
2180
4000
8000
8000
FE00
8000
8000
C000
4000
2180
1F00
ENDCHAR
STARTCHAR 0405
ENCODING 1029
SWIDTH 625 0
DWIDTH 10 0
BBX 8 12 1 0
BITMAP
3C
C6
80
80
80
70
1E
03
01
81
C3
7C
ENDCHAR
STARTCHAR 0406
ENCODING 1030
SWIDTH 312 0
DWIDTH 5 0
BBX 1 12 2 0
BITMAP
80
80
80
80
80
80
80
80
80
80
80
80
ENDCHAR
STARTCHAR 0407
ENCODING 1031
SWIDTH 312 0
DWIDTH 5 0
BBX 5 15 0 0
BITMAP
88
88
00
20
20
20
20
20
20
20
20
20
20
20
20
ENDCHAR
STARTCHAR 0408
ENCODING 1032
SWIDTH 312 0
DWIDTH 5 0
BBX 3 15 0 -3
BITMAP
20
20
20
20
20
20
20
20
20
20
20
20
20
20
C0
ENDCHAR
STARTCHAR 0409
ENCODING 1033
SWIDTH 1125 0
DWIDTH 18 0
BBX 16 12 1 0
BITMAP
1FC0
1040
1040
1040
1040
107C
1042
1041
3041
2041
6043
C07C
ENDCHAR
STARTCHAR 040A
ENCODING 1034
SWIDTH 1062 0
DWIDTH 17 0
BBX 14 12 1 0
BITMAP
8100
8100
8100
8100
8100
FFF0
8108
8104
8104
8104
810C
81F0
ENDCHAR
STARTCHAR 040B
ENCODING 1035
SWIDTH 812 0
DWIDTH 13 0
BBX 10 12 0 0
BITMAP
FF00
1000
1000
1000
1000
1F80
10C0
1040
1040
1040
1040
1040
ENDCHAR
STARTCHAR 040C
ENCODING 1036
SWIDTH 687 0
DWIDTH 11 0
BBX 9 15 1 0
BITMAP
0600
0C00
0000
8180
8300
8600
8C00
9800
B800
E800
C400
8200
8200
8100
8180
ENDCHAR
STARTCHAR 040D
ENCODING 1037
SWIDTH 750 0
DWIDTH 12 0
BBX 10 15 1 0
BITMAP
1800
0C00
0000
80C0
8140
8140
8240
8240
8440
8840
8840
9040
A040
A040
C040
ENDCHAR
STARTCHAR 040E
ENCODING 1038
SWIDTH 562 0
DWIDTH 9 0
BBX 9 15 0 0
BITMAP
1100
0E00
0000
8080
4100
4100
4300
2200
2200
2400
1400
1800
1800
1800
7000
ENDCHAR
STARTCHAR 040F
ENCODING 1039
SWIDTH 687 0
DWIDTH 11 0
BBX 9 15 1 -3
BITMAP
8080
8080
8080
8080
8080
8080
8080
8080
8080
8080
8080
FF80
0800
0800
0800
ENDCHAR
STARTCHAR 0410
ENCODING 1040
SWIDTH 687 0
DWIDTH 11 0
BBX 11 12 0 0
BITMAP
0400
0400
0A00
0A00
1100
1100
2080
2080
3F80
4040
4040
8020
ENDCHAR
STARTCHAR 0411
ENCODING 1041
SWIDTH 687 0
DWIDTH 11 0
BBX 9 12 1 0
BITMAP
FF00
8000
8000
8000
8000
FE00
8100
8080
8080
8080
8100
FE00
ENDCHAR
STARTCHAR 0412
ENCODING 1042
SWIDTH 687 0
DWIDTH 11 0
BBX 9 12 1 0
BITMAP
FE00
8180
8080
8080
8180
FF00
8180
8080
8080
8080
8100
FE00
ENDCHAR
STARTCHAR 0413
ENCODING 1043
SWIDTH 562 0
DWIDTH 9 0
BBX 7 12 1 0
BITMAP
FE
80
80
80
80
80
80
80
80
80
80
80
ENDCHAR
STARTCHAR 0414
ENCODING 1044
SWIDTH 812 0
DWIDTH 13 0
BBX 11 15 1 -3
BITMAP
1FC0
1040
1040
1040
1040
1040
1040
1040
3040
2040
6040
FFE0
8020
8020
8020
ENDCHAR
STARTCHAR 0415
ENCODING 1045
SWIDTH 625 0
DWIDTH 10 0
BBX 8 12 1 0
BITMAP
FF
80
80
80
80
FF
80
80
80
80
80
FF
ENDCHAR
STARTCHAR 0416
ENCODING 1046
SWIDTH 1062 0
DWIDTH 17 0
BBX 17 12 0 0
BITMAP
C08180
608300
308600
188C00
0C9800
0EB800
0BE800
11C400
208200
208200
408100
C08180
ENDCHAR
STARTCHAR 0417
ENCODING 1047
SWIDTH 625 0
DWIDTH 10 0
BBX 8 12 1 0
BITMAP
7C
C3
81
01
03
1C
02
01
01
01
C2
7C
ENDCHAR
STARTCHAR 0418
ENCODING 1048
SWIDTH 750 0
DWIDTH 12 0
BBX 10 12 1 0
BITMAP
80C0
8140
8140
8240
8240
8440
8840
8840
9040
A040
A040
C040
ENDCHAR
STARTCHAR 0419
ENCODING 1049
SWIDTH 750 0
DWIDTH 12 0
BBX 10 15 1 0
BITMAP
2100
1E00
0000
80C0
8140
8140
8240
8240
8440
8840
8840
9040
A040
A040
C040
ENDCHAR
STARTCHAR 041A
ENCODING 1050
SWIDTH 687 0
DWIDTH 11 0
BBX 9 12 1 0
BITMAP
8180
8300
8600
8C00
9800
B800
E800
C400
8200
8200
8100
8180
ENDCHAR
STARTCHAR 041B
ENCODING 1051
SWIDTH 750 0
DWIDTH 12 0
BBX 10 12 1 0
BITMAP
1FC0
1040
1040
1040
1040
1040
1040
1040
3040
2040
6040
C040
ENDCHAR
STARTCHAR 041C
ENCODING 1052
SWIDTH 812 0
DWIDTH 13 0
BBX 11 12 1 0
BITMAP
C060
C060
A0A0
A0A0
A0A0
9120
9120
8A20
8A20
8420
8020
8020
ENDCHAR
STARTCHAR 041D
ENCODING 1053
SWIDTH 750 0
DWIDTH 12 0
BBX 10 12 1 0
BITMAP
8040
8040
8040
8040
8040
FFC0
8040
8040
8040
8040
8040
8040
ENDCHAR
STARTCHAR 041E
ENCODING 1054
SWIDTH 812 0
DWIDTH 13 0
BBX 11 12 1 0
BITMAP
1F00
2080
4040
8020
8020
8020
8020
8020
8020
4040
2080
1F00
ENDCHAR
STARTCHAR 041F
ENCODING 1055
SWIDTH 687 0
DWIDTH 11 0
BBX 9 12 1 0
BITMAP
FF80
8080
8080
8080
8080
8080
8080
8080
8080
8080
8080
8080
ENDCHAR
STARTCHAR 0420
ENCODING 1056
SWIDTH 625 0
DWIDTH 10 0
BBX 8 12 1 0
BITMAP
FC
82
81
81
81
82
FC
80
80
80
80
80
ENDCHAR
STARTCHAR 0421
ENCODING 1057
SWIDTH 687 0
DWIDTH 11 0
BBX 9 12 1 0
BITMAP
1F00
2180
4000
8000
8000
8000
8000
8000
8000
4000
2180
1F00
ENDCHAR
STARTCHAR 0422
ENCODING 1058
SWIDTH 562 0
DWIDTH 9 0
BBX 9 12 0 0
BITMAP
FF80
0800
0800
0800
0800
0800
0800
0800
0800
0800
0800
0800
ENDCHAR
STARTCHAR 0423
ENCODING 1059
SWIDTH 562 0
DWIDTH 9 0
BBX 9 12 0 0
BITMAP
8080
4100
4100
4300
2200
2200
2400
1400
1800
1800
1800
7000
ENDCHAR
STARTCHAR 0424
ENCODING 1060
SWIDTH 937 0
DWIDTH 15 0
BBX 13 12 1 0
BITMAP
0200
1FC0
3260
4210
8208
8208
8208
8208
4210
2220
1FC0
0200
ENDCHAR
STARTCHAR 0425
ENCODING 1061
SWIDTH 687 0
DWIDTH 11 0
BBX 9 12 1 0
BITMAP
C180
4100
2200
2200
1400
0800
0800
1400
2200
2200
4100
8080
ENDCHAR
STARTCHAR 0426
ENCODING 1062
SWIDTH 750 0
DWIDTH 12 0
BBX 10 15 1 -3
BITMAP
8080
8080
8080
8080
8080
8080
8080
8080
8080
8080
8080
FFC0
0040
0040
0040
ENDCHAR
STARTCHAR 0427
ENCODING 1063
SWIDTH 625 0
DWIDTH 10 0
BBX 8 12 1 0
BITMAP
81
81
81
81
81
41
7F
01
01
01
01
01
ENDCHAR
STARTCHAR 0428
ENCODING 1064
SWIDTH 1062 0
DWIDTH 17 0
BBX 15 12 1 0
BITMAP
8102
8102
8102
8102
8102
8102
8102
8102
8102
8102
8102
FFFE
ENDCHAR
STARTCHAR 0429
ENCODING 1065
SWIDTH 1125 0
DWIDTH 18 0
BBX 16 15 1 -3
BITMAP
8102
8102
8102
8102
8102
8102
8102
8102
8102
8102
8102
FFFF
0001
0001
0001
ENDCHAR
STARTCHAR 042A
ENCODING 1066
SWIDTH 812 0
DWIDTH 13 0
BBX 11 12 1 0
BITMAP
F000
1000
1000
1000
1000
1F80
1040
1020
1020
1020
1060
1F80
ENDCHAR
STARTCHAR 042B
ENCODING 1067
SWIDTH 875 0
DWIDTH 14 0
BBX 11 12 1 0
BITMAP
8020
8020
8020
8020
8020
FC20
8220
8120
8120
8120
8320
FC20
ENDCHAR
STARTCHAR 042C
ENCODING 1068
SWIDTH 625 0
DWIDTH 10 0
BBX 8 12 1 0
BITMAP
80
80
80
80
80
FC
82
81
81
81
83
FC
ENDCHAR
STARTCHAR 042D
ENCODING 1069
SWIDTH 687 0
DWIDTH 11 0
BBX 9 12 1 0
BITMAP
7C00
C200
0100
0080
0080
3F80
0080
0080
0180
0100
C200
7C00
ENDCHAR
STARTCHAR 042E
ENCODING 1070
SWIDTH 1062 0
DWIDTH 17 0
BBX 15 12 1 0
BITMAP
81F0
8208
8404
8802
8802
F802
8802
8802
8802
8404
8208
81F0
ENDCHAR
STARTCHAR 042F
ENCODING 1071
SWIDTH 625 0
DWIDTH 10 0
BBX 8 12 1 0
BITMAP
3F
C1
81
81
81
41
3F
31
21
41
41
81
ENDCHAR
STARTCHAR 0430
ENCODING 1072
SWIDTH 562 0
DWIDTH 9 0
BBX 7 9 1 0
BITMAP
3C
46
02
7E
C2
82
82
C6
7A
ENDCHAR
STARTCHAR 0431
ENCODING 1073
SWIDTH 562 0
DWIDTH 9 0
BBX 7 12 1 1
BITMAP
3C
40
80
F8
C4
82
82
82
82
82
44
38
ENDCHAR
STARTCHAR 0432
ENCODING 1074
SWIDTH 562 0
DWIDTH 9 0
BBX 7 9 1 0
BITMAP
FC
86
82
86
FC
82
82
82
FC
ENDCHAR
STARTCHAR 0433
ENCODING 1075
SWIDTH 500 0
DWIDTH 8 0
BBX 6 9 1 0
BITMAP
FC
80
80
80
80
80
80
80
80
ENDCHAR
STARTCHAR 0434
ENCODING 1076
SWIDTH 687 0
DWIDTH 11 0
BBX 9 11 1 -2
BITMAP
3F00
2100
2100
2100
2100
2100
4100
4100
FF80
8080
8080
ENDCHAR
STARTCHAR 0435
ENCODING 1077
SWIDTH 562 0
DWIDTH 9 0
BBX 7 9 1 0
BITMAP
38
44
82
82
FE
80
80
42
3C
ENDCHAR
STARTCHAR 0436
ENCODING 1078
SWIDTH 875 0
DWIDTH 14 0
BBX 13 9 1 0
BITMAP
C218
6230
3260
1AC0
1FC0
2720
2220
4210
8208
ENDCHAR
STARTCHAR 0437
ENCODING 1079
SWIDTH 562 0
DWIDTH 9 0
BBX 7 9 1 0
BITMAP
7C
86
02
06
3C
06
02
86
7C
ENDCHAR
STARTCHAR 0438
ENCODING 1080
SWIDTH 625 0
DWIDTH 10 0
BBX 8 9 1 0
BITMAP
83
87
85
89
99
91
A1
E1
C1
ENDCHAR
STARTCHAR 0439
ENCODING 1081
SWIDTH 625 0
DWIDTH 10 0
BBX 8 12 1 0
BITMAP
42
3C
00
83
87
85
89
99
91
A1
E1
C1
ENDCHAR
STARTCHAR 043A
ENCODING 1082
SWIDTH 625 0
DWIDTH 10 0
BBX 8 9 1 0
BITMAP
82
84
88
B0
F8
C8
84
82
83
ENDCHAR
STARTCHAR 043B
ENCODING 1083
SWIDTH 625 0
DWIDTH 10 0
BBX 8 9 1 0
BITMAP
3F
21
21
21
21
21
21
41
81
ENDCHAR
STARTCHAR 043C
ENCODING 1084
SWIDTH 687 0
DWIDTH 11 0
BBX 9 9 1 0
BITMAP
C180
C180
A280
A280
B680
9480
9C80
8080
8080
ENDCHAR
STARTCHAR 043D
ENCODING 1085
SWIDTH 625 0
DWIDTH 10 0
BBX 8 9 1 0
BITMAP
81
81
81
81
FF
81
81
81
81
ENDCHAR
STARTCHAR 043E
ENCODING 1086
SWIDTH 625 0
DWIDTH 10 0
BBX 8 9 1 0
BITMAP
3C
42
81
81
81
81
81
42
3C
ENDCHAR
STARTCHAR 043F
ENCODING 1087
SWIDTH 625 0
DWIDTH 10 0
BBX 8 9 1 0
BITMAP
FF
81
81
81
81
81
81
81
81
ENDCHAR
STARTCHAR 0440
ENCODING 1088
SWIDTH 625 0
DWIDTH 10 0
BBX 8 12 1 -3
BITMAP
BC
C2
81
81
81
81
81
C2
BC
80
80
80
ENDCHAR
STARTCHAR 0441
ENCODING 1089
SWIDTH 562 0
DWIDTH 9 0
BBX 7 9 1 0
BITMAP
3C
42
80
80
80
80
80
42
3C
ENDCHAR
STARTCHAR 0442
ENCODING 1090
SWIDTH 562 0
DWIDTH 9 0
BBX 7 9 1 0
BITMAP
FE
10
10
10
10
10
10
10
10
ENDCHAR
STARTCHAR 0443
ENCODING 1091
SWIDTH 562 0
DWIDTH 9 0
BBX 9 12 0 -3
BITMAP
8080
4100
4100
2100
2200
2200
1400
1400
0C00
0800
0800
7000
ENDCHAR
STARTCHAR 0444
ENCODING 1092
SWIDTH 937 0
DWIDTH 15 0
BBX 13 15 1 -3
BITMAP
0200
0200
0200
3AE0
4710
8208
8208
8208
8208
8208
4710
3AE0
0200
0200
0200
ENDCHAR
STARTCHAR 0445
ENCODING 1093
SWIDTH 625 0
DWIDTH 10 0
BBX 8 9 1 0
BITMAP
C3
42
24
24
18
24
24
42
83
ENDCHAR
STARTCHAR 0446
ENCODING 1094
SWIDTH 687 0
DWIDTH 11 0
BBX 9 11 1 -2
BITMAP
8100
8100
8100
8100
8100
8100
8100
8100
FF80
0080
0080
ENDCHAR
STARTCHAR 0447
ENCODING 1095
SWIDTH 562 0
DWIDTH 9 0
BBX 7 9 1 0
BITMAP
82
82
82
82
7E
02
02
02
02
ENDCHAR
STARTCHAR 0448
ENCODING 1096
SWIDTH 937 0
DWIDTH 15 0
BBX 13 9 1 0
BITMAP
8208
8208
8208
8208
8208
8208
8208
8208
FFF8
ENDCHAR
STARTCHAR 0449
ENCODING 1097
SWIDTH 1000 0
DWIDTH 16 0
BBX 14 11 1 -2
BITMAP
8208
8208
8208
8208
8208
8208
8208
8208
FFFC
0004
0004
ENDCHAR
STARTCHAR 044A
ENCODING 1098
SWIDTH 687 0
DWIDTH 11 0
BBX 10 9 0 0
BITMAP
F000
1000
1000
1000
1F80
1040
1040
1040
1F80
ENDCHAR
STARTCHAR 044B
ENCODING 1099
SWIDTH 812 0
DWIDTH 13 0
BBX 9 9 1 0
BITMAP
8080
8080
8080
8080
FC80
8280
8280
8280
FC80
ENDCHAR
STARTCHAR 044C
ENCODING 1100
SWIDTH 562 0
DWIDTH 9 0
BBX 7 9 1 0
BITMAP
80
80
80
80
FC
82
82
82
FC
ENDCHAR
STARTCHAR 044D
ENCODING 1101
SWIDTH 562 0
DWIDTH 9 0
BBX 7 9 1 0
BITMAP
78
84
06
02
7E
02
02
84
78
ENDCHAR
STARTCHAR 044E
ENCODING 1102
SWIDTH 812 0
DWIDTH 13 0
BBX 11 9 1 0
BITMAP
8780
8840
9020
9020
F020
9020
9020
8840
8780
ENDCHAR
STARTCHAR 044F
ENCODING 1103
SWIDTH 625 0
DWIDTH 10 0
BBX 8 9 0 0
BITMAP
3F
41
41
61
3F
11
21
41
C1
ENDCHAR
STARTCHAR 0450
ENCODING 1104
SWIDTH 562 0
DWIDTH 9 0
BBX 7 13 1 0
BITMAP
60
30
18
00
38
44
82
82
FE
80
80
42
3C
ENDCHAR
STARTCHAR 0451
ENCODING 1105
SWIDTH 562 0
DWIDTH 9 0
BBX 7 12 1 0
BITMAP
44
44
00
38
44
82
82
FE
80
80
42
3C
ENDCHAR
STARTCHAR 0452
ENCODING 1106
SWIDTH 625 0
DWIDTH 10 0
BBX 9 15 0 -3
BITMAP
4000
4000
4000
FE00
4000
4000
5E00
6180
4080
4080
4080
4080
0100
0200
0400
ENDCHAR
STARTCHAR 0453
ENCODING 1107
SWIDTH 500 0
DWIDTH 8 0
BBX 7 13 1 0
BITMAP
06
0C
18
00
FC
80
80
80
80
80
80
80
80
ENDCHAR
STARTCHAR 0454
ENCODING 1108
SWIDTH 562 0
DWIDTH 9 0
BBX 7 9 1 0
BITMAP
3C
42
C0
80
F8
80
80
42
3C
ENDCHAR
STARTCHAR 0455
ENCODING 1109
SWIDTH 562 0
DWIDTH 9 0
BBX 7 9 1 0
BITMAP
7C
82
80
C0
78
06
02
82
7C
ENDCHAR
STARTCHAR 0456
ENCODING 1110
SWIDTH 187 0
DWIDTH 3 0
BBX 1 12 1 0
BITMAP
80
80
00
80
80
80
80
80
80
80
80
80
ENDCHAR
STARTCHAR 0457
ENCODING 1111
SWIDTH 250 0
DWIDTH 4 0
BBX 5 12 -1 0
BITMAP
88
88
00
20
20
20
20
20
20
20
20
20
ENDCHAR
STARTCHAR 0458
ENCODING 1112
SWIDTH 187 0
DWIDTH 3 0
BBX 3 15 -1 -3
BITMAP
20
20
00
20
20
20
20
20
20
20
20
20
20
20
C0
ENDCHAR
STARTCHAR 0459
ENCODING 1113
SWIDTH 937 0
DWIDTH 15 0
BBX 13 9 1 0
BITMAP
3F00
2100
2100
2100
21F0
2108
2108
4108
81F0
ENDCHAR
STARTCHAR 045A
ENCODING 1114
SWIDTH 875 0
DWIDTH 14 0
BBX 12 9 1 0
BITMAP
8200
8200
8200
8200
FFE0
8210
8210
8210
83E0
ENDCHAR
STARTCHAR 045B
ENCODING 1115
SWIDTH 625 0
DWIDTH 10 0
BBX 9 12 0 0
BITMAP
4000
4000
4000
FC00
4000
4000
5F00
6180
4080
4080
4080
4080
ENDCHAR
STARTCHAR 045C
ENCODING 1116
SWIDTH 625 0
DWIDTH 10 0
BBX 8 13 1 0
BITMAP
06
0C
18
00
82
84
88
B0
F8
C8
84
82
83
ENDCHAR
STARTCHAR 045D
ENCODING 1117
SWIDTH 625 0
DWIDTH 10 0
BBX 8 13 1 0
BITMAP
60
30
18
00
83
87
85
89
99
91
A1
E1
C1
ENDCHAR
STARTCHAR 045E
ENCODING 1118
SWIDTH 562 0
DWIDTH 9 0
BBX 9 15 0 -3
BITMAP
1100
0E00
0000
8080
4100
4100
2100
2200
2200
1400
1400
0C00
0800
0800
7000
ENDCHAR
STARTCHAR 045F
ENCODING 1119
SWIDTH 562 0
DWIDTH 9 0
BBX 7 11 1 -2
BITMAP
82
82
82
82
82
82
82
82
FE
10
10
ENDCHAR
STARTCHAR 0460
ENCODING 1120
SWIDTH 937 0
DWIDTH 15 0
BBX 13 12 1 0
BITMAP
2020
4010
4010
8008
8008
8208
8208
8208
8208
8608
4510
38E0
ENDCHAR
STARTCHAR 0461
ENCODING 1121
SWIDTH 812 0
DWIDTH 13 0
BBX 11 9 1 0
BITMAP
4040
8020
8020
8020
8420
8420
8420
4A40
7BC0
ENDCHAR
STARTCHAR 0462
ENCODING 1122
SWIDTH 750 0
DWIDTH 12 0
BBX 11 12 0 0
BITMAP
1000
1000
FE00
1000
1000
1F80
1040
1020
1020
1020
1060
1F80
ENDCHAR
STARTCHAR 0463
ENCODING 1123
SWIDTH 687 0
DWIDTH 11 0
BBX 10 12 0 0
BITMAP
1000
1000
1000
FE00
1000
1000
1000
1F80
1040
1040
1040
1F80
ENDCHAR
STARTCHAR 0464
ENCODING 1124
SWIDTH 937 0
DWIDTH 15 0
BBX 12 12 2 -1
BITMAP
83E0
8770
8C00
9800
9800
FFC0
9000
9800
9800
8800
8E10
87F0
ENDCHAR
STARTCHAR 0465
ENCODING 1125
SWIDTH 750 0
DWIDTH 12 0
BBX 9 9 2 -1
BITMAP
8F80
9880
B000
B000
FE00
B000
B000
9800
8F80
ENDCHAR
STARTCHAR 0466
ENCODING 1126
SWIDTH 875 0
DWIDTH 14 0
BBX 14 12 0 0
BITMAP
0300
0380
0780
04C0
0CC0
1860
1FE0
3FF0
3330
6318
6318
C30C
ENDCHAR
STARTCHAR 0467
ENCODING 1127
SWIDTH 812 0
DWIDTH 13 0
BBX 11 9 1 0
BITMAP
0C00
0E00
1A00
1300
3180
7F80
44C0
C440
8460
ENDCHAR
STARTCHAR 0468
ENCODING 1128
SWIDTH 1187 0
DWIDTH 19 0
BBX 16 12 2 0
BITMAP
80C0
80E0
81A0
8130
8310
FE18
87F8
87FC
8CC4
88C6
98C2
90C3
ENDCHAR
STARTCHAR 0469
ENCODING 1129
SWIDTH 1000 0
DWIDTH 16 0
BBX 13 9 2 0
BITMAP
8180
8380
82C0
8640
FC60
8FF0
9910
9118
B108
ENDCHAR
STARTCHAR 046A
ENCODING 1130
SWIDTH 812 0
DWIDTH 13 0
BBX 11 12 1 0
BITMAP
7FC0
2080
2080
1100
1100
0A00
1B00
2480
4440
C460
8420
8420
ENDCHAR
STARTCHAR 046B
ENCODING 1131
SWIDTH 562 0
DWIDTH 9 0
BBX 7 9 1 0
BITMAP
FE
44
6C
28
3C
54
92
92
92
ENDCHAR
STARTCHAR 046C
ENCODING 1132
SWIDTH 1000 0
DWIDTH 16 0
BBX 14 12 2 0
BITMAP
9FF8
8FF8
8C30
8620
8260
FFC0
83E0
8FB0
8998
9998
9988
918C
ENDCHAR
STARTCHAR 046D
ENCODING 1133
SWIDTH 812 0
DWIDTH 13 0
BBX 10 9 2 0
BITMAP
BFC0
9FC0
8980
8D00
FF00
9F80
92C0
B240
B240
ENDCHAR
STARTCHAR 046E
ENCODING 1134
SWIDTH 625 0
DWIDTH 10 0
BBX 8 18 1 -4
BITMAP
26
28
28
7C
6E
03
03
02
3C
0E
03
03
03
06
FC
80
C0
7E
ENDCHAR
STARTCHAR 046F
ENCODING 1135
SWIDTH 562 0
DWIDTH 9 0
BBX 7 15 1 -3
BITMAP
4C
48
30
F8
8C
04
0C
38
04
06
04
F8
80
80
FC
ENDCHAR
STARTCHAR 0470
ENCODING 1136
SWIDTH 875 0
DWIDTH 14 0
BBX 14 12 0 0
BITMAP
0600
C61C
4630
6620
2660
2640
3640
16C0
1F80
1F80
0600
0600
ENDCHAR
STARTCHAR 0471
ENCODING 1137
SWIDTH 875 0
DWIDTH 14 0
BBX 14 15 0 -3
BITMAP
0200
0200
0200
C21C
4230
6220
2220
3260
3240
12C0
1AC0
1F80
0200
0200
0200
ENDCHAR
STARTCHAR 0472
ENCODING 1138
SWIDTH 812 0
DWIDTH 13 0
BBX 11 12 1 0
BITMAP
1F00
2080
4040
8020
8020
FFE0
8020
8020
C020
4040
2080
1F00
ENDCHAR
STARTCHAR 0473
ENCODING 1139
SWIDTH 625 0
DWIDTH 10 0
BBX 7 9 1 0
BITMAP
38
44
82
82
FE
82
82
44
38
ENDCHAR
STARTCHAR 0474
ENCODING 1140
SWIDTH 812 0
DWIDTH 13 0
BBX 12 12 0 0
BITMAP
C030
4070
60C0
60C0
2080
3180
3100
1300
1B00
0A00
0E00
0E00
ENDCHAR
STARTCHAR 0475
ENCODING 1141
SWIDTH 687 0
DWIDTH 11 0
BBX 10 9 0 0
BITMAP
C0C0
4180
6100
2300
3200
3600
1600
1C00
1C00
ENDCHAR
STARTCHAR 0476
ENCODING 1142
SWIDTH 812 0
DWIDTH 13 0
BBX 12 15 0 0
BITMAP
1200
0B00
0000
C030
4070
60C0
60C0
2080
3180
3100
1300
1B00
0A00
0E00
0E00
ENDCHAR
STARTCHAR 0477
ENCODING 1143
SWIDTH 687 0
DWIDTH 11 0
BBX 10 13 0 0
BITMAP
3600
1200
0900
0000
C0C0
4180
6100
2300
3200
3600
1600
1C00
1C00
ENDCHAR
STARTCHAR 0478
ENCODING 1144
SWIDTH 1000 0
DWIDTH 16 0
BBX 14 15 1 -4
BITMAP
3800
6C00
4600
C284
C28C
C2CC
C248
C278
C230
C630
4420
3C20
0060
0040
01C0
ENDCHAR
STARTCHAR 0479
ENCODING 1145
SWIDTH 875 0
DWIDTH 14 0
BBX 13 12 1 -4
BITMAP
3B18
4D10
C510
85B0
84A0
84E0
C440
4C40
78C0
0080
0180
0700
ENDCHAR
STARTCHAR 047A
ENCODING 1146
SWIDTH 937 0
DWIDTH 15 0
BBX 13 12 1 -1
BITMAP
0300
3FE0
6030
C018
C018
C008
C008
C008
C018
6010
3FF0
0F80
ENDCHAR
STARTCHAR 047B
ENCODING 1147
SWIDTH 750 0
DWIDTH 12 0
BBX 10 9 1 -1
BITMAP
0C00
7F80
C0C0
C040
8040
8040
C0C0
6D80
3F00
ENDCHAR
STARTCHAR 047C
ENCODING 1148
SWIDTH 1187 0
DWIDTH 19 0
BBX 17 15 1 0
BITMAP
008000
076000
01A000
008000
008000
200200
600300
400100
C00180
800080
800080
800080
81C080
463100
380E00
ENDCHAR
STARTCHAR 047D
ENCODING 1149
SWIDTH 1000 0
DWIDTH 16 0
BBX 14 13 1 0
BITMAP
0100
0EC0
0040
0300
0100
6118
C00C
C00C
8004
8004
8784
CCCC
7038
ENDCHAR
STARTCHAR 047E
ENCODING 1150
SWIDTH 937 0
DWIDTH 15 0
BBX 13 15 1 0
BITMAP
1FC0
0A80
0000
2020
4010
4010
8008
8008
8208
8208
8208
8208
8608
4510
38E0
ENDCHAR
STARTCHAR 047F
ENCODING 1151
SWIDTH 812 0
DWIDTH 13 0
BBX 11 12 1 0
BITMAP
3F80
1500
0000
4040
8020
8020
8020
8420
8420
8420
4A40
7BC0
ENDCHAR
STARTCHAR 0480
ENCODING 1152
SWIDTH 687 0
DWIDTH 11 0
BBX 9 15 1 -3
BITMAP
1F00
2180
4000
8000
8000
8000
8000
8000
8000
4000
2000
1F00
0100
0100
0100
ENDCHAR
STARTCHAR 0481
ENCODING 1153
SWIDTH 562 0
DWIDTH 9 0
BBX 7 12 1 -3
BITMAP
3C
42
80
80
80
80
80
40
3C
04
04
04
ENDCHAR
STARTCHAR 0482
ENCODING 1154
SWIDTH 500 0
DWIDTH 8 0
BBX 6 8 1 0
BITMAP
0C
78
1C
B4
E0
78
D0
40
ENDCHAR
STARTCHAR 0483
ENCODING 1155
SWIDTH 0 0
DWIDTH 0 0
BBX 6 3 -8 9
BITMAP
04
FC
C0
ENDCHAR
STARTCHAR 0484
ENCODING 1156
SWIDTH 0 0
DWIDTH 0 0
BBX 6 3 -6 10
BITMAP
10
EC
04
ENDCHAR
STARTCHAR 0485
ENCODING 1157
SWIDTH 0 0
DWIDTH 0 0
BBX 2 3 -5 9
BITMAP
C0
80
40
ENDCHAR
STARTCHAR 0486
ENCODING 1158
SWIDTH 0 0
DWIDTH 0 0
BBX 2 3 -5 9
BITMAP
C0
40
40
ENDCHAR
STARTCHAR 0487
ENCODING 1159
SWIDTH 0 0
DWIDTH 0 0
BBX 12 3 -12 9
BITMAP
1800
6F00
81F0
ENDCHAR
STARTCHAR 0488
ENCODING 1160
SWIDTH 437 0
DWIDTH 7 0
BBX 22 18 -16 -3
BITMAP
003000
004800
000000
1E01F0
220110
000000
000000
000000
F0003C
900024
000000
000000
000000
0C0040
1601B0
220110
007800
004400
ENDCHAR
STARTCHAR 0489
ENCODING 1161
SWIDTH 437 0
DWIDTH 7 0
BBX 21 20 -15 -4
BITMAP
002000
002000
106000
1800C0
0C0380
080100
000000
000000
000000
F00060
700070
000008
000000
000000
080100
1C0300
300180
006080
006000
004000
ENDCHAR
STARTCHAR 048A
ENCODING 1162
SWIDTH 750 0
DWIDTH 12 0
BBX 10 18 2 -4
BITMAP
2200
1C00
0000
8300
8300
8700
8500
8D00
8900
9900
B100
B100
E100
C100
C1C0
00C0
0180
0100
ENDCHAR
STARTCHAR 048B
ENCODING 1163
SWIDTH 687 0
DWIDTH 11 0
BBX 8 15 2 -4
BITMAP
44
38
00
86
8E
8A
9A
92
A2
E2
C2
C3
01
02
02
ENDCHAR
STARTCHAR 048C
ENCODING 1164
SWIDTH 687 0
DWIDTH 11 0
BBX 9 12 1 0
BITMAP
4000
4000
E000
4000
4000
7E00
4100
4080
4080
4080
4180
7E00
ENDCHAR
STARTCHAR 048D
ENCODING 1165
SWIDTH 625 0
DWIDTH 10 0
BBX 8 11 1 0
BITMAP
40
40
E0
40
40
40
7E
41
41
41
7E
ENDCHAR
STARTCHAR 048E
ENCODING 1166
SWIDTH 625 0
DWIDTH 10 0
BBX 8 12 2 0
BITMAP
F8
FC
86
86
9E
8E
FF
80
80
80
80
80
ENDCHAR
STARTCHAR 048F
ENCODING 1167
SWIDTH 625 0
DWIDTH 10 0
BBX 8 12 1 -4
BITMAP
DC
E6
C3
C1
C1
C1
CF
E7
DE
C1
C0
C0
ENDCHAR
STARTCHAR 0490
ENCODING 1168
SWIDTH 625 0
DWIDTH 10 0
BBX 7 14 1 0
BITMAP
02
02
FE
80
80
80
80
80
80
80
80
80
80
80
ENDCHAR
STARTCHAR 0491
ENCODING 1169
SWIDTH 500 0
DWIDTH 8 0
BBX 6 11 1 0
BITMAP
04
04
FC
80
80
80
80
80
80
80
80
ENDCHAR
STARTCHAR 0492
ENCODING 1170
SWIDTH 687 0
DWIDTH 11 0
BBX 9 12 1 0
BITMAP
3F80
2000
2000
2000
2000
FE00
2000
2000
2000
2000
2000
2000
ENDCHAR
STARTCHAR 0493
ENCODING 1171
SWIDTH 625 0
DWIDTH 10 0
BBX 8 9 1 0
BITMAP
3F
20
20
FC
20
20
20
20
20
ENDCHAR
STARTCHAR 0494
ENCODING 1172
SWIDTH 562 0
DWIDTH 9 0
BBX 7 15 1 -3
BITMAP
FC
80
80
80
80
FC
86
82
82
82
82
82
02
02
0C
ENDCHAR
STARTCHAR 0495
ENCODING 1173
SWIDTH 500 0
DWIDTH 8 0
BBX 6 12 1 -3
BITMAP
FC
80
80
80
F8
84
84
84
84
04
04
38
ENDCHAR
STARTCHAR 0496
ENCODING 1174
SWIDTH 1062 0
DWIDTH 17 0
BBX 16 15 1 -3
BITMAP
C102
6106
310C
1118
1930
1D70
17D0
3398
210C
6104
C106
8103
0001
0001
0001
ENDCHAR
STARTCHAR 0497
ENCODING 1175
SWIDTH 875 0
DWIDTH 14 0
BBX 13 11 1 -3
BITMAP
C610
6620
3640
1E80
1FC0
2760
6620
4630
8618
0008
0008
ENDCHAR
STARTCHAR 0498
ENCODING 1176
SWIDTH 625 0
DWIDTH 10 0
BBX 8 15 1 -3
BITMAP
7C
C3
81
01
03
1C
02
01
01
01
C2
7C
00
10
70
ENDCHAR
STARTCHAR 0499
ENCODING 1177
SWIDTH 562 0
DWIDTH 9 0
BBX 7 12 1 -3
BITMAP
7C
86
02
06
3C
06
02
86
7C
00
10
70
ENDCHAR
STARTCHAR 049A
ENCODING 1178
SWIDTH 687 0
DWIDTH 11 0
BBX 9 15 2 -3
BITMAP
8180
8300
8600
8C00
9800
B800
E800
CC00
8600
8200
8300
8180
0080
0080
0080
ENDCHAR
STARTCHAR 049B
ENCODING 1179
SWIDTH 625 0
DWIDTH 10 0
BBX 8 11 1 -3
BITMAP
C2
C4
C8
D0
F8
EC
C4
C6
C3
01
01
ENDCHAR
STARTCHAR 049C
ENCODING 1180
SWIDTH 687 0
DWIDTH 11 0
BBX 9 12 2 0
BITMAP
8180
8300
A600
AC00
B800
B800
E800
EC00
A600
A200
8300
8180
ENDCHAR
STARTCHAR 049D
ENCODING 1181
SWIDTH 625 0
DWIDTH 10 0
BBX 8 9 1 0
BITMAP
C2
C4
C8
D0
F8
EC
C4
C6
C3
ENDCHAR
STARTCHAR 049E
ENCODING 1182
SWIDTH 687 0
DWIDTH 11 0
BBX 11 12 0 0
BITMAP
2060
20C0
F180
2300
2600
2E00
3A00
3300
2180
2080
20C0
2060
ENDCHAR
STARTCHAR 049F
ENCODING 1183
SWIDTH 625 0
DWIDTH 10 0
BBX 9 12 0 1
BITMAP
6000
FC00
6000
6100
6200
6400
6800
7C00
7600
6200
6300
6180
ENDCHAR
STARTCHAR 04A0
ENCODING 1184
SWIDTH 875 0
DWIDTH 14 0
BBX 13 12 0 0
BITMAP
F818
0830
0860
08C0
0980
0B80
0E80
0C40
0820
0820
0810
0818
ENDCHAR
STARTCHAR 04A1
ENCODING 1185
SWIDTH 812 0
DWIDTH 13 0
BBX 11 9 0 0
BITMAP
F040
1080
1100
1600
1F00
1900
1080
1040
1060
ENDCHAR
STARTCHAR 04A2
ENCODING 1186
SWIDTH 750 0
DWIDTH 12 0
BBX 11 15 1 -3
BITMAP
8040
8040
8040
8040
8040
FFC0
8040
8040
8040
8040
8040
8060
0020
0020
0020
ENDCHAR
STARTCHAR 04A3
ENCODING 1187
SWIDTH 625 0
DWIDTH 10 0
BBX 9 11 1 -2
BITMAP
8100
8100
8100
8100
FF00
8100
8100
8100
8180
0080
0080
ENDCHAR
STARTCHAR 04A4
ENCODING 1188
SWIDTH 1000 0
DWIDTH 16 0
BBX 16 12 1 0
BITMAP
807F
8040
8040
8040
8040
FFC0
8040
8040
8040
8040
8040
8040
ENDCHAR
STARTCHAR 04A5
ENCODING 1189
SWIDTH 875 0
DWIDTH 14 0
BBX 13 9 1 0
BITMAP
81F8
8100
8100
8100
FF00
8100
8100
8100
8100
ENDCHAR
STARTCHAR 04A6
ENCODING 1190
SWIDTH 1062 0
DWIDTH 17 0
BBX 15 15 1 -3
BITMAP
FF80
8080
8080
8080
8080
80FC
8086
8082
8082
8082
8082
8082
0002
0002
000C
ENDCHAR
STARTCHAR 04A7
ENCODING 1191
SWIDTH 937 0
DWIDTH 15 0
BBX 13 12 1 -3
BITMAP
FF00
8100
8100
8100
81F0
8108
8108
8108
8108
0008
0008
0070
ENDCHAR
STARTCHAR 04A8
ENCODING 1192
SWIDTH 875 0
DWIDTH 14 0
BBX 13 12 1 -1
BITMAP
1800
39C0
6360
C630
C630
C630
C630
C630
C220
4360
71C0
1FF8
ENDCHAR
STARTCHAR 04A9
ENCODING 1193
SWIDTH 687 0
DWIDTH 11 0
BBX 10 9 1 -1
BITMAP
3000
6700
CD80
CD80
8D80
8D80
C500
6700
3FC0
ENDCHAR
STARTCHAR 04AA
ENCODING 1194
SWIDTH 687 0
DWIDTH 11 0
BBX 9 15 1 -3
BITMAP
1F00
2180
4000
8000
8000
8000
8000
8000
8000
4000
2180
1F00
0000
0400
1C00
ENDCHAR
STARTCHAR 04AB
ENCODING 1195
SWIDTH 562 0
DWIDTH 9 0
BBX 7 12 1 -3
BITMAP
3C
42
80
80
80
80
80
42
3C
00
08
38
ENDCHAR
STARTCHAR 04AC
ENCODING 1196
SWIDTH 562 0
DWIDTH 9 0
BBX 9 15 0 -3
BITMAP
FF80
0800
0800
0800
0800
0800
0800
0800
0800
0800
0800
0C00
0400
0400
0400
ENDCHAR
STARTCHAR 04AD
ENCODING 1197
SWIDTH 562 0
DWIDTH 9 0
BBX 7 11 1 -2
BITMAP
FE
10
10
10
10
10
10
10
18
08
08
ENDCHAR
STARTCHAR 04AE
ENCODING 1198
SWIDTH 562 0
DWIDTH 9 0
BBX 9 12 0 0
BITMAP
C080
4100
2200
2200
1400
0800
0800
0800
0800
0800
0800
0800
ENDCHAR
STARTCHAR 04AF
ENCODING 1199
SWIDTH 562 0
DWIDTH 9 0
BBX 9 12 0 -3
BITMAP
8080
4100
4100
2200
2200
1400
1400
0800
0800
0800
0800
0800
ENDCHAR
STARTCHAR 04B0
ENCODING 1200
SWIDTH 625 0
DWIDTH 10 0
BBX 10 12 0 0
BITMAP
C0C0
4180
6100
3300
1600
1C00
0C00
0C00
3F00
0C00
0C00
0C00
ENDCHAR
STARTCHAR 04B1
ENCODING 1201
SWIDTH 562 0
DWIDTH 9 0
BBX 8 12 1 -4
BITMAP
83
82
C2
46
64
2C
28
38
18
18
7E
18
ENDCHAR
STARTCHAR 04B2
ENCODING 1202
SWIDTH 687 0
DWIDTH 11 0
BBX 9 15 1 -3
BITMAP
C180
4100
6300
3600
1400
1C00
1C00
3400
3600
6300
C100
C180
0080
0080
0080
ENDCHAR
STARTCHAR 04B3
ENCODING 1203
SWIDTH 562 0
DWIDTH 9 0
BBX 8 11 1 -3
BITMAP
C3
46
6C
38
18
38
6C
46
C3
01
01
ENDCHAR
STARTCHAR 04B4
ENCODING 1204
SWIDTH 937 0
DWIDTH 15 0
BBX 14 15 0 -3
BITMAP
FF88
0808
0808
0808
0808
0808
0808
0808
0808
0808
0808
0FFC
0004
0004
0004
ENDCHAR
STARTCHAR 04B5
ENCODING 1205
SWIDTH 875 0
DWIDTH 14 0
BBX 12 11 1 -2
BITMAP
FE20
1020
1020
1020
1020
1020
1020
1020
1FF0
0010
0010
ENDCHAR
STARTCHAR 04B6
ENCODING 1206
SWIDTH 625 0
DWIDTH 10 0
BBX 9 15 1 -3
BITMAP
8100
8100
8100
8100
C100
7F00
0100
0100
0100
0100
0100
0180
0080
0080
0080
ENDCHAR
STARTCHAR 04B7
ENCODING 1207
SWIDTH 562 0
DWIDTH 9 0
BBX 8 11 1 -2
BITMAP
82
82
82
C2
7E
02
02
02
03
01
01
ENDCHAR
STARTCHAR 04B8
ENCODING 1208
SWIDTH 687 0
DWIDTH 11 0
BBX 8 12 1 0
BITMAP
C1
C1
C1
C9
49
7F
09
09
09
01
01
01
ENDCHAR
STARTCHAR 04B9
ENCODING 1209
SWIDTH 562 0
DWIDTH 9 0
BBX 7 9 1 0
BITMAP
C2
C2
D2
D2
7E
12
02
02
02
ENDCHAR
STARTCHAR 04BA
ENCODING 1210
SWIDTH 687 0
DWIDTH 11 0
BBX 8 12 1 0
BITMAP
80
80
80
80
80
FE
82
81
81
81
81
81
ENDCHAR
STARTCHAR 04BB
ENCODING 1211
SWIDTH 625 0
DWIDTH 10 0
BBX 8 12 1 0
BITMAP
80
80
80
BC
C2
81
81
81
81
81
81
81
ENDCHAR
STARTCHAR 04BC
ENCODING 1212
SWIDTH 937 0
DWIDTH 15 0
BBX 14 12 0 0
BITMAP
03E0
0410
8808
9804
D004
7FFC
1000
1000
1000
0800
0408
03F8
ENDCHAR
STARTCHAR 04BD
ENCODING 1213
SWIDTH 687 0
DWIDTH 11 0
BBX 9 9 1 0
BITMAP
0E00
1100
A080
A080
7F80
2000
2000
1080
0F00
ENDCHAR
STARTCHAR 04BE
ENCODING 1214
SWIDTH 937 0
DWIDTH 15 0
BBX 14 15 0 -3
BITMAP
01E0
0730
8C18
CC0C
D80C
7FFC
1800
1800
0800
0C00
0608
03F8
00C0
00C0
00C0
ENDCHAR
STARTCHAR 04BF
ENCODING 1215
SWIDTH 750 0
DWIDTH 12 0
BBX 11 12 0 -3
BITMAP
0780
0CC0
9860
D060
7FE0
1000
1800
1800
07C0
0300
0300
0300
ENDCHAR
STARTCHAR 04C0
ENCODING 1216
SWIDTH 312 0
DWIDTH 5 0
BBX 1 12 2 0
BITMAP
80
80
80
80
80
80
80
80
80
80
80
80
ENDCHAR
STARTCHAR 04C1
ENCODING 1217
SWIDTH 1062 0
DWIDTH 17 0
BBX 17 15 0 0
BITMAP
011000
00E000
000000
C08180
608300
308600
188C00
0C9800
0EB800
0BE800
11C400
208200
208200
408100
C08180
ENDCHAR
STARTCHAR 04C2
ENCODING 1218
SWIDTH 875 0
DWIDTH 14 0
BBX 13 12 1 0
BITMAP
0880
0700
0000
C218
6230
3260
1AC0
1FC0
2720
2220
4210
8208
ENDCHAR
STARTCHAR 04C3
ENCODING 1219
SWIDTH 687 0
DWIDTH 11 0
BBX 8 15 2 -4
BITMAP
83
86
8C
98
B0
FC
86
82
83
83
83
83
03
06
0E
ENDCHAR
STARTCHAR 04C4
ENCODING 1220
SWIDTH 625 0
DWIDTH 10 0
BBX 8 12 1 -4
BITMAP
C3
C6
CC
D0
FC
C6
C2
C2
C2
02
02
1E
ENDCHAR
STARTCHAR 04C5
ENCODING 1221
SWIDTH 750 0
DWIDTH 12 0
BBX 12 15 0 -4
BITMAP
0FC0
0FC0
0840
0840
1840
1840
1840
1840
1040
3040
3040
E070
0030
0060
0040
ENDCHAR
STARTCHAR 04C6
ENCODING 1222
SWIDTH 687 0
DWIDTH 11 0
BBX 10 12 0 -4
BITMAP
1F80
1180
1180
1180
1180
1180
3180
2180
E1C0
0040
0080
0080
ENDCHAR
STARTCHAR 04C7
ENCODING 1223
SWIDTH 750 0
DWIDTH 12 0
BBX 10 15 1 -3
BITMAP
8040
8040
8040
8040
8040
FFC0
8040
8040
8040
8040
8040
8040
0040
0040
0180
ENDCHAR
STARTCHAR 04C8
ENCODING 1224
SWIDTH 625 0
DWIDTH 10 0
BBX 8 12 1 -3
BITMAP
81
81
81
81
FF
81
81
81
81
01
01
0E
ENDCHAR
STARTCHAR 04C9
ENCODING 1225
SWIDTH 750 0
DWIDTH 12 0
BBX 10 15 2 -4
BITMAP
8100
8100
8100
8100
8100
FF00
8100
8100
8100
8100
8100
81C0
00C0
0180
0100
ENDCHAR
STARTCHAR 04CA
ENCODING 1226
SWIDTH 687 0
DWIDTH 11 0
BBX 9 12 2 -4
BITMAP
8200
8200
8200
8200
FE00
8200
8200
8200
8380
0100
0200
0200
ENDCHAR
STARTCHAR 04CB
ENCODING 1227
SWIDTH 625 0
DWIDTH 10 0
BBX 8 15 1 -3
BITMAP
81
81
81
81
C1
7F
01
01
01
01
01
03
02
02
02
ENDCHAR
STARTCHAR 04CC
ENCODING 1228
SWIDTH 562 0
DWIDTH 9 0
BBX 7 11 1 -2
BITMAP
82
82
82
C2
7E
02
02
02
06
04
04
ENDCHAR
STARTCHAR 04CD
ENCODING 1229
SWIDTH 875 0
DWIDTH 14 0
BBX 12 15 2 -4
BITMAP
C0C0
C1C0
E140
A140
A340
9240
9240
9E40
8C40
8C40
8040
8070
0020
0060
00C0
ENDCHAR
STARTCHAR 04CE
ENCODING 1230
SWIDTH 750 0
DWIDTH 12 0
BBX 10 12 2 -4
BITMAP
C380
C380
E380
A580
A580
9D80
9980
8180
81C0
00C0
0080
0100
ENDCHAR
STARTCHAR 04CF
ENCODING 1231
SWIDTH 187 0
DWIDTH 3 0
BBX 1 12 1 0
BITMAP
80
80
80
80
80
80
80
80
80
80
80
80
ENDCHAR
STARTCHAR 04D0
ENCODING 1232
SWIDTH 687 0
DWIDTH 11 0
BBX 11 15 0 0
BITMAP
1100
0E00
0000
0400
0400
0A00
0A00
1100
1100
2080
2080
3F80
4040
4040
8020
ENDCHAR
STARTCHAR 04D1
ENCODING 1233
SWIDTH 562 0
DWIDTH 9 0
BBX 7 12 1 0
BITMAP
44
38
00
3C
46
02
7E
C2
82
82
C6
7A
ENDCHAR
STARTCHAR 04D2
ENCODING 1234
SWIDTH 687 0
DWIDTH 11 0
BBX 11 15 0 0
BITMAP
0A00
0A00
0000
0400
0400
0A00
0A00
1100
1100
2080
2080
3F80
4040
4040
8020
ENDCHAR
STARTCHAR 04D3
ENCODING 1235
SWIDTH 562 0
DWIDTH 9 0
BBX 7 12 1 0
BITMAP
24
24
00
3C
46
02
7E
C2
82
82
C6
7A
ENDCHAR
STARTCHAR 04D4
ENCODING 1236
SWIDTH 1000 0
DWIDTH 16 0
BBX 15 12 0 0
BITMAP
07FE
0900
0900
1100
1100
11FE
2100
2100
7F00
4100
4100
81FE
ENDCHAR
STARTCHAR 04D5
ENCODING 1237
SWIDTH 1000 0
DWIDTH 16 0
BBX 14 9 1 0
BITMAP
3DF0
4708
0204
7E04
C3FC
8200
8200
C504
78F8
ENDCHAR
STARTCHAR 04D6
ENCODING 1238
SWIDTH 625 0
DWIDTH 10 0
BBX 8 15 1 0
BITMAP
22
1C
00
FF
80
80
80
80
FF
80
80
80
80
80
FF
ENDCHAR
STARTCHAR 04D7
ENCODING 1239
SWIDTH 562 0
DWIDTH 9 0
BBX 7 12 1 0
BITMAP
44
38
00
38
44
82
82
FE
80
80
42
3C
ENDCHAR
STARTCHAR 04D8
ENCODING 1240
SWIDTH 812 0
DWIDTH 13 0
BBX 11 12 1 0
BITMAP
7F00
4080
0040
0020
0020
0020
FFE0
8020
8020
4040
2080
1F00
ENDCHAR
STARTCHAR 04D9
ENCODING 1241
SWIDTH 625 0
DWIDTH 10 0
BBX 7 9 1 0
BITMAP
78
84
02
02
FE
82
82
44
38
ENDCHAR
STARTCHAR 04DA
ENCODING 1242
SWIDTH 812 0
DWIDTH 13 0
BBX 11 15 1 0
BITMAP
1200
1200
0000
7F00
4080
0040
0020
0020
0020
FFE0
8020
8020
4040
2080
1F00
ENDCHAR
STARTCHAR 04DB
ENCODING 1243
SWIDTH 625 0
DWIDTH 10 0
BBX 7 12 1 0
BITMAP
24
24
00
78
84
02
02
FE
82
82
44
38
ENDCHAR
STARTCHAR 04DC
ENCODING 1244
SWIDTH 1062 0
DWIDTH 17 0
BBX 17 15 0 0
BITMAP
012000
012000
000000
C08180
608300
308600
188C00
0C9800
0EB800
0BE800
11C400
208200
208200
408100
C08180
ENDCHAR
STARTCHAR 04DD
ENCODING 1245
SWIDTH 875 0
DWIDTH 14 0
BBX 13 12 1 0
BITMAP
0900
0900
0000
C218
6230
3260
1AC0
1FC0
2720
2220
4210
8208
ENDCHAR
STARTCHAR 04DE
ENCODING 1246
SWIDTH 625 0
DWIDTH 10 0
BBX 8 15 1 0
BITMAP
24
24
00
7C
C3
81
01
03
1C
02
01
01
01
C2
7C
ENDCHAR
STARTCHAR 04DF
ENCODING 1247
SWIDTH 562 0
DWIDTH 9 0
BBX 7 12 1 0
BITMAP
48
48
00
7C
86
02
06
3C
06
02
86
7C
ENDCHAR
STARTCHAR 04E0
ENCODING 1248
SWIDTH 687 0
DWIDTH 11 0
BBX 9 12 1 0
BITMAP
FF00
0200
0600
0C00
0800
1E00
0100
0080
0080
8080
C100
7E00
ENDCHAR
STARTCHAR 04E1
ENCODING 1249
SWIDTH 625 0
DWIDTH 10 0
BBX 8 12 1 -3
BITMAP
FE
02
04
08
10
20
3C
02
01
01
83
7C
ENDCHAR
STARTCHAR 04E2
ENCODING 1250
SWIDTH 750 0
DWIDTH 12 0
BBX 10 14 1 0
BITMAP
1F00
0000
80C0
8140
8140
8240
8240
8440
8840
8840
9040
A040
A040
C040
ENDCHAR
STARTCHAR 04E3
ENCODING 1251
SWIDTH 625 0
DWIDTH 10 0
BBX 8 12 1 0
BITMAP
3E
00
00
83
87
85
89
99
91
A1
E1
C1
ENDCHAR
STARTCHAR 04E4
ENCODING 1252
SWIDTH 750 0
DWIDTH 12 0
BBX 10 15 1 0
BITMAP
1200
1200
0000
80C0
8140
8140
8240
8240
8440
8840
8840
9040
A040
A040
C040
ENDCHAR
STARTCHAR 04E5
ENCODING 1253
SWIDTH 625 0
DWIDTH 10 0
BBX 8 12 1 0
BITMAP
24
24
00
83
87
85
89
99
91
A1
E1
C1
ENDCHAR
STARTCHAR 04E6
ENCODING 1254
SWIDTH 812 0
DWIDTH 13 0
BBX 11 15 1 0
BITMAP
0A00
0A00
0000
1F00
2080
4040
8020
8020
8020
8020
8020
8020
4040
2080
1F00
ENDCHAR
STARTCHAR 04E7
ENCODING 1255
SWIDTH 625 0
DWIDTH 10 0
BBX 8 12 1 0
BITMAP
24
24
00
3C
42
81
81
81
81
81
42
3C
ENDCHAR
STARTCHAR 04E8
ENCODING 1256
SWIDTH 812 0
DWIDTH 13 0
BBX 11 12 1 0
BITMAP
1F00
2080
4040
8020
8020
FFE0
8020
8020
C020
4040
2080
1F00
ENDCHAR
STARTCHAR 04E9
ENCODING 1257
SWIDTH 625 0
DWIDTH 10 0
BBX 7 9 1 0
BITMAP
38
44
82
82
FE
82
82
44
38
ENDCHAR
STARTCHAR 04EA
ENCODING 1258
SWIDTH 812 0
DWIDTH 13 0
BBX 11 15 1 0
BITMAP
1200
1200
0000
1F00
2080
4040
8020
8020
FFE0
8020
8020
C020
4040
2080
1F00
ENDCHAR
STARTCHAR 04EB
ENCODING 1259
SWIDTH 625 0
DWIDTH 10 0
BBX 7 12 1 0
BITMAP
24
24
00
38
44
82
82
FE
82
82
44
38
ENDCHAR
STARTCHAR 04EC
ENCODING 1260
SWIDTH 687 0
DWIDTH 11 0
BBX 9 15 1 0
BITMAP
2400
2400
0000
7C00
C200
0100
0080
0080
3F80
0080
0080
0180
0100
C200
7C00
ENDCHAR
STARTCHAR 04ED
ENCODING 1261
SWIDTH 562 0
DWIDTH 9 0
BBX 7 12 1 0
BITMAP
48
48
00
78
84
06
02
7E
02
02
84
78
ENDCHAR
STARTCHAR 04EE
ENCODING 1262
SWIDTH 562 0
DWIDTH 9 0
BBX 9 14 0 0
BITMAP
1F00
0000
8080
4100
4100
4300
2200
2200
2400
1400
1800
1800
1800
7000
ENDCHAR
STARTCHAR 04EF
ENCODING 1263
SWIDTH 562 0
DWIDTH 9 0
BBX 9 15 0 -3
BITMAP
1F00
0000
0000
8080
4100
4100
2100
2200
2200
1400
1400
0C00
0800
0800
7000
ENDCHAR
STARTCHAR 04F0
ENCODING 1264
SWIDTH 562 0
DWIDTH 9 0
BBX 9 15 0 0
BITMAP
1200
1200
0000
8080
4100
4100
4300
2200
2200
2400
1400
1800
1800
1800
7000
ENDCHAR
STARTCHAR 04F1
ENCODING 1265
SWIDTH 562 0
DWIDTH 9 0
BBX 9 15 0 -3
BITMAP
1200
1200
0000
8080
4100
4100
2100
2200
2200
1400
1400
0C00
0800
0800
7000
ENDCHAR
STARTCHAR 04F2
ENCODING 1266
SWIDTH 562 0
DWIDTH 9 0
BBX 9 15 0 0
BITMAP
0900
1200
0000
8080
4100
4100
4300
2200
2200
2400
1400
1800
1800
1800
7000
ENDCHAR
STARTCHAR 04F3
ENCODING 1267
SWIDTH 562 0
DWIDTH 9 0
BBX 9 16 0 -3
BITMAP
0D80
0900
1200
0000
8080
4100
4100
2100
2200
2200
1400
1400
0C00
0800
0800
7000
ENDCHAR
STARTCHAR 04F4
ENCODING 1268
SWIDTH 625 0
DWIDTH 10 0
BBX 8 15 1 0
BITMAP
12
12
00
81
81
81
81
81
41
7F
01
01
01
01
01
ENDCHAR
STARTCHAR 04F5
ENCODING 1269
SWIDTH 562 0
DWIDTH 9 0
BBX 7 12 1 0
BITMAP
24
24
00
82
82
82
82
7E
02
02
02
02
ENDCHAR
STARTCHAR 04F6
ENCODING 1270
SWIDTH 562 0
DWIDTH 9 0
BBX 7 15 1 -3
BITMAP
FE
80
80
80
80
80
80
80
80
80
80
C0
40
40
40
ENDCHAR
STARTCHAR 04F7
ENCODING 1271
SWIDTH 500 0
DWIDTH 8 0
BBX 6 11 1 -2
BITMAP
FC
80
80
80
80
80
80
80
C0
40
40
ENDCHAR
STARTCHAR 04F8
ENCODING 1272
SWIDTH 875 0
DWIDTH 14 0
BBX 11 15 1 0
BITMAP
0900
0900
0000
8020
8020
8020
8020
8020
FC20
8220
8120
8120
8120
8320
FC20
ENDCHAR
STARTCHAR 04F9
ENCODING 1273
SWIDTH 812 0
DWIDTH 13 0
BBX 9 12 1 0
BITMAP
1200
1200
0000
8080
8080
8080
8080
FC80
8280
8280
8280
FC80
ENDCHAR
STARTCHAR 04FA
ENCODING 1274
SWIDTH 687 0
DWIDTH 11 0
BBX 9 15 1 -3
BITMAP
3F80
2000
2000
2000
2000
FE00
2000
2000
2000
2000
2000
3C00
0400
0400
3800
ENDCHAR
STARTCHAR 04FB
ENCODING 1275
SWIDTH 625 0
DWIDTH 10 0
BBX 8 12 1 -3
BITMAP
3F
20
20
20
FC
20
20
20
3C
04
04
38
ENDCHAR
STARTCHAR 04FC
ENCODING 1276
SWIDTH 687 0
DWIDTH 11 0
BBX 9 15 1 -4
BITMAP
C180
4100
6300
3600
1400
1C00
1C00
3400
3600
6300
C100
C180
0080
0180
0700
ENDCHAR
STARTCHAR 04FD
ENCODING 1277
SWIDTH 562 0
DWIDTH 9 0
BBX 8 12 1 -4
BITMAP
C3
46
6C
38
18
38
6C
46
C3
03
03
1E
ENDCHAR
STARTCHAR 04FE
ENCODING 1278
SWIDTH 687 0
DWIDTH 11 0
BBX 9 12 1 0
BITMAP
C180
4100
6300
3600
1400
FF80
FF80
3400
3600
6300
C100
C180
ENDCHAR
STARTCHAR 04FF
ENCODING 1279
SWIDTH 562 0
DWIDTH 9 0
BBX 8 9 1 0
BITMAP
C3
46
6C
38
FE
38
6C
46
C3
ENDCHAR
STARTCHAR 0500
ENCODING 1280
SWIDTH 625 0
DWIDTH 10 0
BBX 8 12 1 0
BITMAP
01
01
01
01
01
3F
41
81
81
81
C1
3F
ENDCHAR
STARTCHAR 0501
ENCODING 1281
SWIDTH 562 0
DWIDTH 9 0
BBX 7 9 1 0
BITMAP
02
02
02
02
7E
82
82
82
7E
ENDCHAR
STARTCHAR 0502
ENCODING 1282
SWIDTH 937 0
DWIDTH 15 0
BBX 13 12 1 0
BITMAP
0100
0100
0100
0108
0108
3F08
C108
8108
8108
8108
4398
3CF0
ENDCHAR
STARTCHAR 0503
ENCODING 1283
SWIDTH 875 0
DWIDTH 14 0
BBX 12 9 1 0
BITMAP
0200
0200
0200
0210
7E10
8210
8210
C730
79E0
ENDCHAR
STARTCHAR 0504
ENCODING 1284
SWIDTH 937 0
DWIDTH 15 0
BBX 12 12 1 0
BITMAP
7800
C600
0200
0210
0410
3810
0610
0210
0210
0210
0330
01E0
ENDCHAR
STARTCHAR 0505
ENCODING 1285
SWIDTH 875 0
DWIDTH 14 0
BBX 11 9 1 0
BITMAP
7800
8C00
0400
0C20
7820
0C20
0420
0660
03C0
ENDCHAR
STARTCHAR 0506
ENCODING 1286
SWIDTH 625 0
DWIDTH 10 0
BBX 8 15 1 -3
BITMAP
78
C6
02
02
04
38
06
02
02
02
02
03
01
01
01
ENDCHAR
STARTCHAR 0507
ENCODING 1287
SWIDTH 562 0
DWIDTH 9 0
BBX 7 12 1 -3
BITMAP
78
8C
04
0C
78
0C
04
04
06
02
02
02
ENDCHAR
STARTCHAR 0508
ENCODING 1288
SWIDTH 1000 0
DWIDTH 16 0
BBX 15 12 0 0
BITMAP
1FC0
1040
1040
1042
1042
1042
1042
1042
2042
2042
6066
803C
ENDCHAR
STARTCHAR 0509
ENCODING 1289
SWIDTH 937 0
DWIDTH 15 0
BBX 14 9 0 0
BITMAP
1F80
1080
1080
1084
1084
1084
2084
60CC
C078
ENDCHAR
STARTCHAR 050A
ENCODING 1290
SWIDTH 1125 0
DWIDTH 18 0
BBX 16 12 1 0
BITMAP
8040
8040
8040
8041
8041
FFC1
8041
8041
8041
8041
8063
803E
ENDCHAR
STARTCHAR 050B
ENCODING 1291
SWIDTH 937 0
DWIDTH 15 0
BBX 13 9 1 0
BITMAP
8100
8100
8100
8108
FF08
8108
8108
8198
80F0
ENDCHAR
STARTCHAR 050C
ENCODING 1292
SWIDTH 750 0
DWIDTH 12 0
BBX 10 12 1 0
BITMAP
1F80
2040
4000
8000
8040
8040
8040
8040
8040
4040
20C0
1F80
ENDCHAR
STARTCHAR 050D
ENCODING 1293
SWIDTH 625 0
DWIDTH 10 0
BBX 8 9 1 0
BITMAP
3E
41
80
80
81
81
C1
63
3E
ENDCHAR
STARTCHAR 050E
ENCODING 1294
SWIDTH 750 0
DWIDTH 12 0
BBX 10 12 0 0
BITMAP
FF80
0800
0800
0840
0840
0840
0840
0840
0840
0840
0CC0
0780
ENDCHAR
STARTCHAR 050F
ENCODING 1295
SWIDTH 625 0
DWIDTH 10 0
BBX 9 9 0 0
BITMAP
FE00
1000
1000
1080
1080
1080
1080
1980
0F00
ENDCHAR
STARTCHAR 0510
ENCODING 1296
SWIDTH 562 0
DWIDTH 9 0
BBX 7 12 1 0
BITMAP
3C
C2
80
80
40
38
C0
80
80
80
42
3C
ENDCHAR
STARTCHAR 0511
ENCODING 1297
SWIDTH 500 0
DWIDTH 8 0
BBX 6 9 1 0
BITMAP
7C
C0
80
80
70
80
80
C0
7C
ENDCHAR
STARTCHAR 0512
ENCODING 1298
SWIDTH 750 0
DWIDTH 12 0
BBX 10 15 1 -3
BITMAP
1FC0
1040
1040
1040
1040
1040
1040
1040
1040
2040
6040
C040
0040
00C0
0380
ENDCHAR
STARTCHAR 0513
ENCODING 1299
SWIDTH 625 0
DWIDTH 10 0
BBX 8 12 1 -3
BITMAP
3F
21
21
21
21
21
21
41
81
01
01
06
ENDCHAR
STARTCHAR 0514
ENCODING 1300
SWIDTH 1187 0
DWIDTH 19 0
BBX 17 12 1 0
BITMAP
1FC180
1FC300
106300
103600
301C00
301C00
301C00
303400
302600
206300
E0C100
808180
ENDCHAR
STARTCHAR 0515
ENCODING 1301
SWIDTH 1000 0
DWIDTH 16 0
BBX 14 9 1 0
BITMAP
3F0C
2188
20D8
2070
2060
2070
6098
6188
830C
ENDCHAR
STARTCHAR 0516
ENCODING 1302
SWIDTH 875 0
DWIDTH 14 0
BBX 11 12 2 0
BITMAP
F820
FC60
86C0
8680
8780
8700
FF00
8180
80C0
80C0
8060
8020
ENDCHAR
STARTCHAR 0517
ENCODING 1303
SWIDTH 875 0
DWIDTH 14 0
BBX 12 12 1 -4
BITMAP
DC30
E620
C340
C1C0
C180
C1C0
C340
E320
DE30
C000
C000
C000
ENDCHAR
STARTCHAR 0518
ENCODING 1304
SWIDTH 1062 0
DWIDTH 17 0
BBX 14 12 1 0
BITMAP
1FFC
7FFC
6180
C180
4180
61FC
3F80
1980
3180
2180
6180
C1FC
ENDCHAR
STARTCHAR 0519
ENCODING 1305
SWIDTH 1000 0
DWIDTH 16 0
BBX 14 9 1 -1
BITMAP
3FF0
6398
C30C
420C
7FFC
3200
2300
4184
C0FC
ENDCHAR
STARTCHAR 051A
ENCODING 1306
SWIDTH 812 0
DWIDTH 13 0
BBX 11 14 1 -2
BITMAP
1F00
2080
4040
8020
8020
8020
8020
8020
8020
4040
20C0
1F00
0080
0040
ENDCHAR
STARTCHAR 051B
ENCODING 1307
SWIDTH 625 0
DWIDTH 10 0
BBX 8 12 1 -3
BITMAP
3D
43
81
81
81
81
81
43
3D
01
01
01
ENDCHAR
STARTCHAR 051C
ENCODING 1308
SWIDTH 1000 0
DWIDTH 16 0
BBX 15 12 1 0
BITMAP
8102
8102
4284
4284
4284
2288
2448
2448
1450
1450
0820
0820
ENDCHAR
STARTCHAR 051D
ENCODING 1309
SWIDTH 812 0
DWIDTH 13 0
BBX 13 9 0 0
BITMAP
8208
8208
4510
4510
4890
28A0
28A0
1040
1040
ENDCHAR
STARTCHAR 051E
ENCODING 1310
SWIDTH 687 0
DWIDTH 11 0
BBX 9 12 2 0
BITMAP
8180
9300
8E00
8C00
9A00
B800
E800
CC00
8600
8200
8300
8180
ENDCHAR
STARTCHAR 051F
ENCODING 1311
SWIDTH 625 0
DWIDTH 10 0
BBX 8 9 1 0
BITMAP
C2
CC
CC
D0
F8
EC
C4
C6
C3
ENDCHAR
STARTCHAR 0520
ENCODING 1312
SWIDTH 1125 0
DWIDTH 18 0
BBX 16 15 1 -3
BITMAP
1FC0
1040
1040
1040
1040
107E
1043
1041
3041
2041
6041
C041
0001
0001
0006
ENDCHAR
STARTCHAR 0521
ENCODING 1313
SWIDTH 937 0
DWIDTH 15 0
BBX 13 12 1 -3
BITMAP
3F00
2100
2100
2100
21F0
2108
2108
4108
8108
0008
0008
0070
ENDCHAR
STARTCHAR 0522
ENCODING 1314
SWIDTH 1125 0
DWIDTH 18 0
BBX 16 15 1 -3
BITMAP
8040
8040
8040
8040
8040
FFFE
8043
8041
8041
8041
8041
8041
0001
0001
0006
ENDCHAR
STARTCHAR 0523
ENCODING 1315
SWIDTH 937 0
DWIDTH 15 0
BBX 13 12 1 -3
BITMAP
8100
8100
8100
8100
FFF0
8108
8108
8108
8108
0008
0008
0070
ENDCHAR
STARTCHAR 0524
ENCODING 1316
SWIDTH 812 0
DWIDTH 13 0
BBX 10 15 2 -3
BITMAP
FF00
FF00
8100
8100
8100
8100
8100
8100
8100
8100
8100
81C0
00C0
00C0
00C0
ENDCHAR
STARTCHAR 0525
ENCODING 1317
SWIDTH 687 0
DWIDTH 11 0
BBX 9 11 1 -3
BITMAP
FF00
C100
C100
C100
C100
C100
C100
C100
C180
0080
0080
ENDCHAR
STARTCHAR 0531
ENCODING 1329
SWIDTH 750 0
DWIDTH 12 0
BBX 10 12 1 -1
BITMAP
C080
C080
C080
C080
C080
C080
C080
C080
C080
4780
6380
3FC0
ENDCHAR
STARTCHAR 0532
ENCODING 1330
SWIDTH 750 0
DWIDTH 12 0
BBX 9 12 1 0
BITMAP
1E00
7300
4180
C080
C080
C000
C000
FF80
C000
C000
C000
C000
ENDCHAR
STARTCHAR 0533
ENCODING 1331
SWIDTH 750 0
DWIDTH 12 0
BBX 11 12 1 0
BITMAP
3C00
6700
C100
8180
8180
C180
C180
7FE0
0180
0180
0180
0180
ENDCHAR
STARTCHAR 0534
ENCODING 1332
SWIDTH 750 0
DWIDTH 12 0
BBX 11 12 1 0
BITMAP
3C00
6700
C100
8180
8180
0180
0180
01E0
0180
0180
0180
0180
ENDCHAR
STARTCHAR 0535
ENCODING 1333
SWIDTH 750 0
DWIDTH 12 0
BBX 9 12 1 -1
BITMAP
C000
C000
C000
FF80
FF80
C000
C000
C080
C080
4180
6180
3F00
ENDCHAR
STARTCHAR 0536
ENCODING 1334
SWIDTH 750 0
DWIDTH 12 0
BBX 10 12 1 0
BITMAP
1E00
7380
60C0
C0C0
C0C0
00C0
00C0
00C0
0180
4300
4E00
7FC0
ENDCHAR
STARTCHAR 0537
ENCODING 1335
SWIDTH 625 0
DWIDTH 10 0
BBX 9 12 1 0
BITMAP
C000
C000
C000
FF80
FF80
C000
C000
C000
C000
C000
C000
FF00
ENDCHAR
STARTCHAR 0538
ENCODING 1336
SWIDTH 750 0
DWIDTH 12 0
BBX 9 12 1 0
BITMAP
1E00
7300
4180
C080
C080
C000
C000
C000
C000
C000
C000
FF80
ENDCHAR
STARTCHAR 0539
ENCODING 1337
SWIDTH 875 0
DWIDTH 14 0
BBX 12 12 1 -1
BITMAP
1F00
31C0
6040
4060
C060
C3F0
CE60
CC60
C860
CC60
CC40
C7C0
ENDCHAR
STARTCHAR 053A
ENCODING 1338
SWIDTH 750 0
DWIDTH 12 0
BBX 11 12 1 -1
BITMAP
0180
0180
0180
1FE0
7FE0
C180
C180
8180
8180
C100
6300
3E00
ENDCHAR
STARTCHAR 053B
ENCODING 1339
SWIDTH 687 0
DWIDTH 11 0
BBX 9 12 1 0
BITMAP
C000
C000
C000
DE00
F300
E180
C080
C080
C000
C000
C000
C000
ENDCHAR
STARTCHAR 053C
ENCODING 1340
SWIDTH 562 0
DWIDTH 9 0
BBX 8 12 1 0
BITMAP
C0
C0
C0
C0
C0
C0
C0
C0
C0
C0
C0
FF
ENDCHAR
STARTCHAR 053D
ENCODING 1341
SWIDTH 937 0
DWIDTH 15 0
BBX 13 12 1 -1
BITMAP
C000
C000
C000
FE18
FE18
C618
C618
C618
C618
C618
C630
C3E0
ENDCHAR
STARTCHAR 053E
ENCODING 1342
SWIDTH 875 0
DWIDTH 14 0
BBX 10 12 2 -1
BITMAP
C7C0
DCC0
FC00
FF00
4180
C0C0
C040
C040
C0C0
40C0
6180
3F00
ENDCHAR
STARTCHAR 053F
ENCODING 1343
SWIDTH 750 0
DWIDTH 12 0
BBX 9 12 1 0
BITMAP
C000
C000
C000
C080
C080
C080
4180
6180
3E80
0080
0080
0080
ENDCHAR
STARTCHAR 0540
ENCODING 1344
SWIDTH 687 0
DWIDTH 11 0
BBX 9 12 1 -1
BITMAP
0600
0300
0180
0780
1C00
3000
6000
C000
C000
F800
1F00
0380
ENDCHAR
STARTCHAR 0541
ENCODING 1345
SWIDTH 750 0
DWIDTH 12 0
BBX 10 12 1 -1
BITMAP
1E00
7380
4080
C0C0
C0C0
00C0
00C0
00C0
7D80
C700
C780
7CC0
ENDCHAR
STARTCHAR 0542
ENCODING 1346
SWIDTH 750 0
DWIDTH 12 0
BBX 11 12 1 0
BITMAP
3C00
6700
C100
8180
8180
0180
0180
0180
0180
0180
0180
01E0
ENDCHAR
STARTCHAR 0543
ENCODING 1347
SWIDTH 750 0
DWIDTH 12 0
BBX 10 12 1 0
BITMAP
2080
3380
1E00
0C00
1C00
3600
6300
4300
C180
80C0
C040
FFC0
ENDCHAR
STARTCHAR 0544
ENCODING 1348
SWIDTH 812 0
DWIDTH 13 0
BBX 11 12 1 -1
BITMAP
C0E0
C0E0
C080
C080
C080
C080
C080
C080
C080
4180
6180
3F00
ENDCHAR
STARTCHAR 0545
ENCODING 1349
SWIDTH 750 0
DWIDTH 12 0
BBX 10 12 1 -1
BITMAP
1E00
7300
6180
0180
0180
FF00
FF80
00C0
C0C0
C0C0
6180
3F00
ENDCHAR
STARTCHAR 0546
ENCODING 1350
SWIDTH 750 0
DWIDTH 12 0
BBX 11 12 0 -1
BITMAP
F000
F000
3000
3000
3000
3000
3000
3060
3060
3060
18C0
0F80
ENDCHAR
STARTCHAR 0547
ENCODING 1351
SWIDTH 750 0
DWIDTH 12 0
BBX 10 12 1 -1
BITMAP
F000
FE00
1F80
31C0
6000
C000
C000
C0C0
C0C0
40C0
6180
3F00
ENDCHAR
STARTCHAR 0548
ENCODING 1352
SWIDTH 750 0
DWIDTH 12 0
BBX 9 12 1 0
BITMAP
1E00
7300
4180
C080
C080
C080
C080
C080
C080
C080
C080
C080
ENDCHAR
STARTCHAR 0549
ENCODING 1353
SWIDTH 687 0
DWIDTH 11 0
BBX 10 12 1 -1
BITMAP
3E00
7300
C180
C080
C0C0
00C0
0080
0180
4300
7E00
1C00
0600
ENDCHAR
STARTCHAR 054A
ENCODING 1354
SWIDTH 812 0
DWIDTH 13 0
BBX 10 12 1 0
BITMAP
1E00
7F80
CCC0
CC40
8C40
0C40
0C40
0C40
0040
0040
0040
0040
ENDCHAR
STARTCHAR 054B
ENCODING 1355
SWIDTH 750 0
DWIDTH 12 0
BBX 10 12 1 0
BITMAP
1E00
7380
4080
C0C0
C0C0
70C0
3CC0
0680
0380
4300
4C00
7FC0
ENDCHAR
STARTCHAR 054C
ENCODING 1356
SWIDTH 812 0
DWIDTH 13 0
BBX 11 12 1 0
BITMAP
1E00
7300
4180
C080
C080
C080
C080
C0E0
C080
C080
C080
C080
ENDCHAR
STARTCHAR 054D
ENCODING 1357
SWIDTH 750 0
DWIDTH 12 0
BBX 10 12 1 0
BITMAP
8040
8040
8040
8040
8040
8040
8040
8040
8040
8040
4080
3F00
ENDCHAR
STARTCHAR 054E
ENCODING 1358
SWIDTH 750 0
DWIDTH 12 0
BBX 11 12 1 0
BITMAP
0180
0180
0180
8180
8180
8180
C180
C380
7F80
0180
0180
01E0
ENDCHAR
STARTCHAR 054F
ENCODING 1359
SWIDTH 687 0
DWIDTH 11 0
BBX 9 12 1 -1
BITMAP
1E00
7700
4180
4000
6000
7C00
1F00
0180
C080
C180
6180
3F00
ENDCHAR
STARTCHAR 0550
ENCODING 1360
SWIDTH 687 0
DWIDTH 11 0
BBX 9 12 1 0
BITMAP
1E00
7300
4180
C080
C080
C000
C000
C000
C000
C000
C000
C000
ENDCHAR
STARTCHAR 0551
ENCODING 1361
SWIDTH 750 0
DWIDTH 12 0
BBX 10 12 1 -1
BITMAP
1E00
3380
6180
6180
6180
FF00
FF80
00C0
C0C0
C0C0
6180
3F00
ENDCHAR
STARTCHAR 0552
ENCODING 1362
SWIDTH 562 0
DWIDTH 9 0
BBX 8 12 1 0
BITMAP
C0
C0
C0
FF
FF
C0
C0
C0
C0
C0
C0
C0
ENDCHAR
STARTCHAR 0553
ENCODING 1363
SWIDTH 812 0
DWIDTH 13 0
BBX 11 12 1 0
BITMAP
0400
0400
3F80
64C0
C460
C460
C460
C460
C440
7FC0
1F00
0400
ENDCHAR
STARTCHAR 0554
ENCODING 1364
SWIDTH 750 0
DWIDTH 12 0
BBX 11 12 0 0
BITMAP
0F00
19C0
3060
3060
2060
3060
30C0
2F80
2000
FFE0
FFE0
2000
ENDCHAR
STARTCHAR 0555
ENCODING 1365
SWIDTH 812 0
DWIDTH 13 0
BBX 11 12 1 0
BITMAP
1F00
2080
4040
8020
8020
8020
8020
8020
8020
4040
2080
1F00
ENDCHAR
STARTCHAR 0556
ENCODING 1366
SWIDTH 812 0
DWIDTH 13 0
BBX 11 12 1 -1
BITMAP
1C00
7C00
6400
6400
3F80
04C0
0460
0460
8460
C460
64C0
3F80
ENDCHAR
STARTCHAR 0559
ENCODING 1369
SWIDTH 312 0
DWIDTH 5 0
BBX 2 4 1 8
BITMAP
40
80
80
40
ENDCHAR
STARTCHAR 055A
ENCODING 1370
SWIDTH 312 0
DWIDTH 5 0
BBX 2 4 2 7
BITMAP
C0
C0
80
80
ENDCHAR
STARTCHAR 055B
ENCODING 1371
SWIDTH 250 0
DWIDTH 4 0
BBX 3 3 0 9
BITMAP
20
60
C0
ENDCHAR
STARTCHAR 055C
ENCODING 1372
SWIDTH 375 0
DWIDTH 6 0
BBX 6 4 0 10
BITMAP
04
38
60
80
ENDCHAR
STARTCHAR 055D
ENCODING 1373
SWIDTH 250 0
DWIDTH 4 0
BBX 4 3 0 10
BITMAP
C0
60
30
ENDCHAR
STARTCHAR 055E
ENCODING 1374
SWIDTH 375 0
DWIDTH 6 0
BBX 6 4 0 9
BITMAP
38
44
84
9C
ENDCHAR
STARTCHAR 055F
ENCODING 1375
SWIDTH 500 0
DWIDTH 8 0
BBX 6 2 1 10
BITMAP
80
FC
ENDCHAR
STARTCHAR 0561
ENCODING 1377
SWIDTH 1000 0
DWIDTH 16 0
BBX 13 9 1 -1
BITMAP
C208
C208
C208
C208
C208
C208
C318
4718
79E8
ENDCHAR
STARTCHAR 0562
ENCODING 1378
SWIDTH 625 0
DWIDTH 10 0
BBX 8 12 1 -4
BITMAP
DE
E6
C3
C3
C3
C0
C0
C0
FF
C0
C0
C0
ENDCHAR
STARTCHAR 0563
ENCODING 1379
SWIDTH 687 0
DWIDTH 11 0
BBX 9 12 1 -4
BITMAP
3B00
6700
C300
8300
8300
8300
C300
4700
7F80
0300
0300
0300
ENDCHAR
STARTCHAR 0564
ENCODING 1380
SWIDTH 687 0
DWIDTH 11 0
BBX 9 12 1 -4
BITMAP
DE00
E600
C300
C300
C300
C300
C300
C300
C380
0300
0300
0300
ENDCHAR
STARTCHAR 0565
ENCODING 1381
SWIDTH 625 0
DWIDTH 10 0
BBX 8 12 1 0
BITMAP
C0
C0
C0
FF
C0
C0
C3
C3
C3
C3
47
7F
ENDCHAR
STARTCHAR 0566
ENCODING 1382
SWIDTH 625 0
DWIDTH 10 0
BBX 9 12 1 -4
BITMAP
3B00
6700
C300
8300
8300
8300
C300
4700
7F00
0300
0300
0380
ENDCHAR
STARTCHAR 0567
ENCODING 1383
SWIDTH 500 0
DWIDTH 8 0
BBX 7 12 1 1
BITMAP
C0
C0
C0
FE
C0
C0
C0
C0
C0
C0
C0
FC
ENDCHAR
STARTCHAR 0568
ENCODING 1384
SWIDTH 625 0
DWIDTH 10 0
BBX 8 12 1 -4
BITMAP
DE
E6
C3
C3
C3
C3
C3
C3
C3
C0
C0
FF
ENDCHAR
STARTCHAR 0569
ENCODING 1385
SWIDTH 750 0
DWIDTH 12 0
BBX 11 12 1 -4
BITMAP
DE00
E300
C180
C0C0
C0C0
CFE0
D8C0
D980
CF00
C000
C000
C000
ENDCHAR
STARTCHAR 056A
ENCODING 1386
SWIDTH 687 0
DWIDTH 11 0
BBX 9 12 1 0
BITMAP
0300
0300
0300
3F80
7300
C300
8300
8300
8300
C300
4600
7C00
ENDCHAR
STARTCHAR 056B
ENCODING 1387
SWIDTH 625 0
DWIDTH 10 0
BBX 8 15 1 -3
BITMAP
C0
C0
C0
DE
E6
C3
C3
C3
C3
C3
C3
C3
C0
C0
C0
ENDCHAR
STARTCHAR 056C
ENCODING 1388
SWIDTH 250 0
DWIDTH 4 0
BBX 4 12 1 -4
BITMAP
C0
C0
C0
C0
C0
C0
C0
C0
C0
C0
C0
F0
ENDCHAR
STARTCHAR 056D
ENCODING 1389
SWIDTH 1000 0
DWIDTH 16 0
BBX 13 15 1 -3
BITMAP
C000
C000
C000
DC08
E608
C208
C308
C308
C308
C308
C318
C1E8
C000
C000
C000
ENDCHAR
STARTCHAR 056E
ENCODING 1390
SWIDTH 625 0
DWIDTH 10 0
BBX 8 12 1 0
BITMAP
30
60
30
3F
76
C3
C3
83
83
C3
46
3C
ENDCHAR
STARTCHAR 056F
ENCODING 1391
SWIDTH 625 0
DWIDTH 10 0
BBX 8 15 1 -3
BITMAP
C0
C0
C0
C3
C3
C3
C3
C3
C3
C3
47
7F
03
03
03
ENDCHAR
STARTCHAR 0570
ENCODING 1392
SWIDTH 625 0
DWIDTH 10 0
BBX 8 12 1 0
BITMAP
80
80
80
BC
C2
81
81
81
81
81
81
81
ENDCHAR
STARTCHAR 0571
ENCODING 1393
SWIDTH 625 0
DWIDTH 10 0
BBX 7 12 1 0
BITMAP
60
60
38
18
2C
46
C2
82
82
82
C6
7A
ENDCHAR
STARTCHAR 0572
ENCODING 1394
SWIDTH 625 0
DWIDTH 10 0
BBX 9 12 1 -4
BITMAP
DE00
E600
C300
C300
C300
C300
C300
C300
C300
0300
0300
0380
ENDCHAR
STARTCHAR 0573
ENCODING 1395
SWIDTH 625 0
DWIDTH 10 0
BBX 8 12 1 0
BITMAP
0F
18
30
F8
FE
42
C3
C3
C3
C3
C7
7F
ENDCHAR
STARTCHAR 0574
ENCODING 1396
SWIDTH 625 0
DWIDTH 10 0
BBX 9 12 1 0
BITMAP
0380
0300
0300
C300
C300
C300
C300
C300
C300
C300
4700
7F00
ENDCHAR
STARTCHAR 0575
ENCODING 1397
SWIDTH 250 0
DWIDTH 4 0
BBX 3 12 0 -4
BITMAP
60
60
60
60
60
60
60
60
60
60
60
C0
ENDCHAR
STARTCHAR 0576
ENCODING 1398
SWIDTH 625 0
DWIDTH 10 0
BBX 9 12 0 0
BITMAP
E000
6000
6000
6180
6180
6180
6180
6180
6180
6180
2380
3F80
ENDCHAR
STARTCHAR 0577
ENCODING 1399
SWIDTH 500 0
DWIDTH 8 0
BBX 7 12 0 -4
BITMAP
F8
8C
06
06
06
04
0C
18
30
40
C0
FE
ENDCHAR
STARTCHAR 0578
ENCODING 1400
SWIDTH 625 0
DWIDTH 10 0
BBX 8 9 1 0
BITMAP
BC
C2
81
81
81
81
81
81
81
ENDCHAR
STARTCHAR 0579
ENCODING 1401
SWIDTH 375 0
DWIDTH 6 0
BBX 6 12 0 -4
BITMAP
30
60
40
60
18
10
20
60
40
C0
C0
FC
ENDCHAR
STARTCHAR 057A
ENCODING 1402
SWIDTH 1000 0
DWIDTH 16 0
BBX 13 12 1 -4
BITMAP
C208
C208
C208
C208
C208
C208
C318
4718
79E8
0008
0008
0008
ENDCHAR
STARTCHAR 057B
ENCODING 1403
SWIDTH 562 0
DWIDTH 9 0
BBX 7 12 1 -4
BITMAP
78
CC
86
C6
46
64
28
38
60
40
C0
FC
ENDCHAR
STARTCHAR 057C
ENCODING 1404
SWIDTH 625 0
DWIDTH 10 0
BBX 9 9 1 0
BITMAP
DE00
E700
C300
C100
C100
C100
C200
C600
C780
ENDCHAR
STARTCHAR 057D
ENCODING 1405
SWIDTH 625 0
DWIDTH 10 0
BBX 8 9 1 0
BITMAP
81
81
81
81
81
81
81
43
3D
ENDCHAR
STARTCHAR 057E
ENCODING 1406
SWIDTH 625 0
DWIDTH 10 0
BBX 9 15 1 -3
BITMAP
0300
0300
0300
C300
C300
C300
C300
C300
C300
C300
4700
7F00
0300
0300
0380
ENDCHAR
STARTCHAR 057F
ENCODING 1407
SWIDTH 1000 0
DWIDTH 16 0
BBX 13 9 1 -1
BITMAP
C370
C398
C308
C308
C308
C308
C308
4708
7B08
ENDCHAR
STARTCHAR 0580
ENCODING 1408
SWIDTH 625 0
DWIDTH 10 0
BBX 8 12 1 -4
BITMAP
DE
E6
C3
C3
C3
C3
C3
C3
C3
C0
C0
C0
ENDCHAR
STARTCHAR 0581
ENCODING 1409
SWIDTH 625 0
DWIDTH 10 0
BBX 8 12 1 -3
BITMAP
3D
43
81
81
81
81
81
43
3D
01
42
3C
ENDCHAR
STARTCHAR 0582
ENCODING 1410
SWIDTH 437 0
DWIDTH 7 0
BBX 6 9 1 0
BITMAP
C0
C0
C0
C0
C0
C0
C0
C0
FC
ENDCHAR
STARTCHAR 0583
ENCODING 1411
SWIDTH 1000 0
DWIDTH 16 0
BBX 13 15 1 -3
BITMAP
0300
0300
0300
C370
C398
C308
C308
C308
C308
C308
4708
7B08
0300
0300
0300
ENDCHAR
STARTCHAR 0584
ENCODING 1412
SWIDTH 625 0
DWIDTH 10 0
BBX 9 12 0 -4
BITMAP
6E00
7300
6180
6080
6080
6080
6180
7180
6F00
6000
FF80
FF80
ENDCHAR
STARTCHAR 0585
ENCODING 1413
SWIDTH 625 0
DWIDTH 10 0
BBX 8 9 1 0
BITMAP
3C
42
81
81
81
81
81
42
3C
ENDCHAR
STARTCHAR 0586
ENCODING 1414
SWIDTH 812 0
DWIDTH 13 0
BBX 11 15 1 -3
BITMAP
3C00
6400
6400
3F00
0FC0
0460
0420
8420
8420
C460
64C0
3F80
0400
0400
0400
ENDCHAR
STARTCHAR 0587
ENCODING 1415
SWIDTH 812 0
DWIDTH 13 0
BBX 12 12 1 0
BITMAP
C000
C000
C000
C300
C300
C300
C300
C300
C300
C300
4700
7FF0
ENDCHAR
STARTCHAR 0589
ENCODING 1417
SWIDTH 312 0
DWIDTH 5 0
BBX 2 7 2 0
BITMAP
C0
C0
00
00
00
C0
C0
ENDCHAR
STARTCHAR 058A
ENCODING 1418
SWIDTH 375 0
DWIDTH 6 0
BBX 4 2 1 4
BITMAP
F0
60
ENDCHAR
STARTCHAR 05B0
ENCODING 1456
SWIDTH 0 0
DWIDTH 0 0
BBX 1 3 5 -4
BITMAP
80
00
80
ENDCHAR
STARTCHAR 05B1
ENCODING 1457
SWIDTH 0 0
DWIDTH 0 0
BBX 5 3 2 -4
BITMAP
A8
00
48
ENDCHAR
STARTCHAR 05B2
ENCODING 1458
SWIDTH 0 0
DWIDTH 0 0
BBX 5 3 2 -4
BITMAP
E8
00
08
ENDCHAR
STARTCHAR 05B3
ENCODING 1459
SWIDTH 0 0
DWIDTH 0 0
BBX 5 3 2 -4
BITMAP
E8
40
48
ENDCHAR
STARTCHAR 05B4
ENCODING 1460
SWIDTH 0 0
DWIDTH 0 0
BBX 1 1 5 -2
BITMAP
80
ENDCHAR
STARTCHAR 05B5
ENCODING 1461
SWIDTH 0 0
DWIDTH 0 0
BBX 3 1 4 -2
BITMAP
A0
ENDCHAR
STARTCHAR 05B6
ENCODING 1462
SWIDTH 0 0
DWIDTH 0 0
BBX 3 3 4 -4
BITMAP
A0
00
40
ENDCHAR
STARTCHAR 05B7
ENCODING 1463
SWIDTH 0 0
DWIDTH 0 0
BBX 5 1 2 -2
BITMAP
F8
ENDCHAR
STARTCHAR 05B8
ENCODING 1464
SWIDTH 0 0
DWIDTH 0 0
BBX 5 2 2 -3
BITMAP
F8
20
ENDCHAR
STARTCHAR 05B9
ENCODING 1465
SWIDTH 0 0
DWIDTH 0 0
BBX 1 1 0 10
BITMAP
80
ENDCHAR
STARTCHAR 05BA
ENCODING 1466
SWIDTH 0 0
DWIDTH 0 0
BBX 1 1 0 10
BITMAP
80
ENDCHAR
STARTCHAR 05BB
ENCODING 1467
SWIDTH 0 0
DWIDTH 0 0
BBX 7 3 2 -4
BITMAP
80
10
02
ENDCHAR
STARTCHAR 05BC
ENCODING 1468
SWIDTH 0 0
DWIDTH 0 0
BBX 1 1 5 4
BITMAP
80
ENDCHAR
STARTCHAR 05BD
ENCODING 1469
SWIDTH 0 0
DWIDTH 0 0
BBX 1 3 5 -4
BITMAP
80
80
80
ENDCHAR
STARTCHAR 05BE
ENCODING 1470
SWIDTH 375 0
DWIDTH 6 0
BBX 4 1 1 7
BITMAP
F0
ENDCHAR
STARTCHAR 05BF
ENCODING 1471
SWIDTH 0 0
DWIDTH 0 0
BBX 5 1 2 10
BITMAP
F8
ENDCHAR
STARTCHAR 05C0
ENCODING 1472
SWIDTH 312 0
DWIDTH 5 0
BBX 1 12 2 -2
BITMAP
80
80
80
80
80
80
80
80
80
80
80
80
ENDCHAR
STARTCHAR 05C1
ENCODING 1473
SWIDTH 0 0
DWIDTH 0 0
BBX 1 1 10 10
BITMAP
80
ENDCHAR
STARTCHAR 05C2
ENCODING 1474
SWIDTH 0 0
DWIDTH 0 0
BBX 1 1 2 10
BITMAP
80
ENDCHAR
STARTCHAR 05C3
ENCODING 1475
SWIDTH 312 0
DWIDTH 5 0
BBX 1 9 2 0
BITMAP
80
80
00
00
00
00
00
80
80
ENDCHAR
STARTCHAR 05C6
ENCODING 1478
SWIDTH 437 0
DWIDTH 7 0
BBX 5 9 1 0
BITMAP
70
C0
80
80
80
80
80
80
F8
ENDCHAR
STARTCHAR 05C7
ENCODING 1479
SWIDTH 0 0
DWIDTH 0 0
BBX 5 3 2 -4
BITMAP
F8
20
20
ENDCHAR
STARTCHAR 05D0
ENCODING 1488
SWIDTH 625 0
DWIDTH 10 0
BBX 8 9 1 0
BITMAP
81
41
21
31
4A
84
84
82
81
ENDCHAR
STARTCHAR 05D1
ENCODING 1489
SWIDTH 562 0
DWIDTH 9 0
BBX 7 9 1 0
BITMAP
F0
08
04
04
04
04
04
04
FE
ENDCHAR
STARTCHAR 05D2
ENCODING 1490
SWIDTH 437 0
DWIDTH 7 0
BBX 5 9 1 0
BITMAP
C0
20
10
10
10
10
10
30
C8
ENDCHAR
STARTCHAR 05D3
ENCODING 1491
SWIDTH 625 0
DWIDTH 10 0
BBX 8 9 1 0
BITMAP
FF
04
04
04
04
04
04
04
04
ENDCHAR
STARTCHAR 05D4
ENCODING 1492
SWIDTH 562 0
DWIDTH 9 0
BBX 7 9 1 0
BITMAP
F8
04
02
82
82
82
82
82
82
ENDCHAR
STARTCHAR 05D5
ENCODING 1493
SWIDTH 187 0
DWIDTH 3 0
BBX 1 9 1 0
BITMAP
80
80
80
80
80
80
80
80
80
ENDCHAR
STARTCHAR 05D6
ENCODING 1494
SWIDTH 375 0
DWIDTH 6 0
BBX 4 9 1 0
BITMAP
F0
20
40
40
40
40
40
40
40
ENDCHAR
STARTCHAR 05D7
ENCODING 1495
SWIDTH 562 0
DWIDTH 9 0
BBX 7 9 1 0
BITMAP
F8
84
82
82
82
82
82
82
82
ENDCHAR
STARTCHAR 05D8
ENCODING 1496
SWIDTH 625 0
DWIDTH 10 0
BBX 8 9 1 0
BITMAP
9C
82
81
81
81
81
81
42
3C
ENDCHAR
STARTCHAR 05D9
ENCODING 1497
SWIDTH 187 0
DWIDTH 3 0
BBX 1 6 1 3
BITMAP
80
80
80
80
80
80
ENDCHAR
STARTCHAR 05DA
ENCODING 1498
SWIDTH 500 0
DWIDTH 8 0
BBX 6 12 1 -3
BITMAP
F0
08
04
04
04
04
04
04
04
04
04
04
ENDCHAR
STARTCHAR 05DB
ENCODING 1499
SWIDTH 500 0
DWIDTH 8 0
BBX 6 9 1 0
BITMAP
F0
08
04
04
04
04
04
08
F0
ENDCHAR
STARTCHAR 05DC
ENCODING 1500
SWIDTH 562 0
DWIDTH 9 0
BBX 7 12 1 0
BITMAP
80
80
80
FE
02
04
04
08
08
10
10
20
ENDCHAR
STARTCHAR 05DD
ENCODING 1501
SWIDTH 562 0
DWIDTH 9 0
BBX 7 9 1 0
BITMAP
FC
82
82
82
82
82
82
82
FE
ENDCHAR
STARTCHAR 05DE
ENCODING 1502
SWIDTH 562 0
DWIDTH 9 0
BBX 7 9 1 0
BITMAP
9C
A2
42
42
42
42
82
82
9E
ENDCHAR
STARTCHAR 05DF
ENCODING 1503
SWIDTH 187 0
DWIDTH 3 0
BBX 1 12 1 -3
BITMAP
80
80
80
80
80
80
80
80
80
80
80
80
ENDCHAR
STARTCHAR 05E0
ENCODING 1504
SWIDTH 375 0
DWIDTH 6 0
BBX 4 9 1 0
BITMAP
E0
10
10
10
10
10
10
10
F0
ENDCHAR
STARTCHAR 05E1
ENCODING 1505
SWIDTH 625 0
DWIDTH 10 0
BBX 8 9 1 0
BITMAP
FC
82
81
81
81
81
81
42
3C
ENDCHAR
STARTCHAR 05E2
ENCODING 1506
SWIDTH 562 0
DWIDTH 9 0
BBX 7 10 1 -1
BITMAP
82
82
42
42
42
22
24
28
70
80
ENDCHAR
STARTCHAR 05E3
ENCODING 1507
SWIDTH 500 0
DWIDTH 8 0
BBX 6 12 1 -3
BITMAP
F8
84
84
84
64
04
04
04
04
04
04
04
ENDCHAR
STARTCHAR 05E4
ENCODING 1508
SWIDTH 562 0
DWIDTH 9 0
BBX 7 9 1 0
BITMAP
F8
84
82
82
62
02
02
04
F8
ENDCHAR
STARTCHAR 05E5
ENCODING 1509
SWIDTH 500 0
DWIDTH 8 0
BBX 6 12 1 -3
BITMAP
84
44
44
28
30
20
20
20
20
20
20
20
ENDCHAR
STARTCHAR 05E6
ENCODING 1510
SWIDTH 562 0
DWIDTH 9 0
BBX 7 9 1 0
BITMAP
82
42
22
22
14
08
04
04
FE
ENDCHAR
STARTCHAR 05E7
ENCODING 1511
SWIDTH 625 0
DWIDTH 10 0
BBX 8 12 1 -3
BITMAP
FF
01
02
82
84
84
88
88
90
80
80
80
ENDCHAR
STARTCHAR 05E8
ENCODING 1512
SWIDTH 500 0
DWIDTH 8 0
BBX 6 9 1 0
BITMAP
F0
08
04
04
04
04
04
04
04
ENDCHAR
STARTCHAR 05E9
ENCODING 1513
SWIDTH 687 0
DWIDTH 11 0
BBX 9 9 1 0
BITMAP
8880
8880
8880
9100
E100
4100
4200
4600
7800
ENDCHAR
STARTCHAR 05EA
ENCODING 1514
SWIDTH 562 0
DWIDTH 9 0
BBX 7 9 1 0
BITMAP
FC
42
42
42
42
42
42
42
C2
ENDCHAR
STARTCHAR 05F0
ENCODING 1520
SWIDTH 500 0
DWIDTH 8 0
BBX 4 9 1 0
BITMAP
90
90
90
90
90
90
90
90
90
ENDCHAR
STARTCHAR 05F1
ENCODING 1521
SWIDTH 437 0
DWIDTH 7 0
BBX 3 9 1 0
BITMAP
A0
A0
A0
A0
A0
A0
20
20
20
ENDCHAR
STARTCHAR 05F2
ENCODING 1522
SWIDTH 312 0
DWIDTH 5 0
BBX 3 6 1 3
BITMAP
A0
A0
A0
A0
A0
A0
ENDCHAR
STARTCHAR 05F3
ENCODING 1523
SWIDTH 437 0
DWIDTH 7 0
BBX 4 3 1 6
BITMAP
30
60
C0
ENDCHAR
STARTCHAR 05F4
ENCODING 1524
SWIDTH 625 0
DWIDTH 10 0
BBX 8 3 1 6
BITMAP
33
66
CC
ENDCHAR
STARTCHAR 0606
ENCODING 1542
SWIDTH 625 0
DWIDTH 10 0
BBX 10 14 0 0
BITMAP
0A00
CF00
4400
4400
2400
2000
1100
11C0
1100
0B00
0A00
0A00
0600
0400
ENDCHAR
STARTCHAR 0607
ENCODING 1543
SWIDTH 625 0
DWIDTH 10 0
BBX 10 14 0 0
BITMAP
0600
C400
4600
4800
2900
2600
1100
11C0
1100
0B00
0A00
0A00
0600
0400
ENDCHAR
STARTCHAR 0609
ENCODING 1545
SWIDTH 750 0
DWIDTH 12 0
BBX 10 10 1 1
BITMAP
C400
CC00
0800
1800
1000
3000
2000
6000
4440
C440
ENDCHAR
STARTCHAR 060A
ENCODING 1546
SWIDTH 1000 0
DWIDTH 16 0
BBX 13 10 1 1
BITMAP
C400
CC00
0800
1800
1000
3000
2000
6000
4448
C448
ENDCHAR
STARTCHAR 060C
ENCODING 1548
SWIDTH 312 0
DWIDTH 5 0
BBX 2 4 2 0
BITMAP
40
C0
80
80
ENDCHAR
STARTCHAR 0615
ENCODING 1557
SWIDTH 0 0
DWIDTH 0 0
BBX 4 3 2 10
BITMAP
80
70
F0
ENDCHAR
STARTCHAR 061B
ENCODING 1563
SWIDTH 312 0
DWIDTH 5 0
BBX 2 10 2 1
BITMAP
40
C0
80
80
00
00
00
00
80
80
ENDCHAR
STARTCHAR 061F
ENCODING 1567
SWIDTH 562 0
DWIDTH 9 0
BBX 6 12 1 0
BITMAP
38
6C
C0
C0
60
30
10
10
10
00
10
10
ENDCHAR
STARTCHAR 0621
ENCODING 1569
SWIDTH 500 0
DWIDTH 8 0
BBX 5 7 1 0
BITMAP
38
78
C0
C0
78
38
E0
ENDCHAR
STARTCHAR 0622
ENCODING 1570
SWIDTH 250 0
DWIDTH 4 0
BBX 6 15 -1 1
BITMAP
EC
10
00
10
10
10
10
10
10
10
10
10
10
10
10
ENDCHAR
STARTCHAR 0623
ENCODING 1571
SWIDTH 250 0
DWIDTH 4 0
BBX 3 16 1 0
BITMAP
C0
80
E0
00
40
40
40
40
40
40
40
40
40
40
40
40
ENDCHAR
STARTCHAR 0624
ENCODING 1572
SWIDTH 500 0
DWIDTH 8 0
BBX 7 13 -1 -4
BITMAP
0C
08
0E
00
1C
1E
32
1A
1E
02
06
FC
F0
ENDCHAR
STARTCHAR 0625
ENCODING 1573
SWIDTH 250 0
DWIDTH 4 0
BBX 3 15 1 -3
BITMAP
40
40
40
40
40
40
40
40
40
40
40
40
C0
80
E0
ENDCHAR
STARTCHAR 0626
ENCODING 1574
SWIDTH 812 0
DWIDTH 13 0
BBX 10 11 1 -3
BITMAP
3000
2000
3900
07C0
0440
0700
C380
80C0
C0C0
E380
7E00
ENDCHAR
STARTCHAR 0627
ENCODING 1575
SWIDTH 250 0
DWIDTH 4 0
BBX 1 12 2 1
BITMAP
80
80
80
80
80
80
80
80
80
80
80
80
ENDCHAR
STARTCHAR 0628
ENCODING 1576
SWIDTH 937 0
DWIDTH 15 0
BBX 13 8 1 -2
BITMAP
C018
8018
C010
E0F0
3FC0
0000
0000
0400
ENDCHAR
STARTCHAR 0629
ENCODING 1577
SWIDTH 500 0
DWIDTH 8 0
BBX 6 8 1 0
BITMAP
50
00
70
F8
CC
C4
C4
7C
ENDCHAR
STARTCHAR 062A
ENCODING 1578
SWIDTH 937 0
DWIDTH 15 0
BBX 13 6 1 0
BITMAP
0A00
C018
8018
C010
E0F0
3FC0
ENDCHAR
STARTCHAR 062B
ENCODING 1579
SWIDTH 937 0
DWIDTH 15 0
BBX 13 8 1 0
BITMAP
0400
0000
0A00
C018
8018
C010
E0F0
3FC0
ENDCHAR
STARTCHAR 062C
ENCODING 1580
SWIDTH 625 0
DWIDTH 10 0
BBX 9 11 1 -4
BITMAP
7E00
FF00
3800
2000
6000
4000
4400
4000
6000
3980
1F80
ENDCHAR
STARTCHAR 062D
ENCODING 1581
SWIDTH 625 0
DWIDTH 10 0
BBX 9 11 1 -4
BITMAP
7E00
FF00
3800
2000
6000
4000
4000
4000
6000
3980
1F80
ENDCHAR
STARTCHAR 062E
ENCODING 1582
SWIDTH 625 0
DWIDTH 10 0
BBX 9 13 1 -3
BITMAP
0800
0000
7E00
FF00
3800
2000
6000
4000
4000
4000
6000
3980
1F80
ENDCHAR
STARTCHAR 062F
ENCODING 1583
SWIDTH 437 0
DWIDTH 7 0
BBX 5 7 1 -1
BITMAP
20
10
18
08
08
18
F0
ENDCHAR
STARTCHAR 0630
ENCODING 1584
SWIDTH 437 0
DWIDTH 7 0
BBX 5 9 1 0
BITMAP
20
00
20
10
18
08
08
18
F0
ENDCHAR
STARTCHAR 0631
ENCODING 1585
SWIDTH 500 0
DWIDTH 8 0
BBX 8 8 -1 -3
BITMAP
03
03
03
03
06
0E
F8
E0
ENDCHAR
STARTCHAR 0632
ENCODING 1586
SWIDTH 500 0
DWIDTH 8 0
BBX 8 11 -1 -3
BITMAP
02
00
00
03
03
03
03
06
0E
F8
E0
ENDCHAR
STARTCHAR 0633
ENCODING 1587
SWIDTH 1250 0
DWIDTH 20 0
BBX 17 10 1 -4
BITMAP
000080
010880
018880
409880
C0DD80
C0F700
818000
C30000
FF0000
3C0000
ENDCHAR
STARTCHAR 0634
ENCODING 1588
SWIDTH 1250 0
DWIDTH 20 0
BBX 17 13 1 -3
BITMAP
002000
000000
005000
000080
010880
018880
409880
C0DD80
C0F700
818000
C30000
FF0000
3C0000
ENDCHAR
STARTCHAR 0635
ENCODING 1589
SWIDTH 1187 0
DWIDTH 19 0
BBX 17 10 1 -4
BITMAP
000700
001F80
013080
41E180
C1C700
C1FE00
818000
C10000
FF0000
3C0000
ENDCHAR
STARTCHAR 0636
ENCODING 1590
SWIDTH 1187 0
DWIDTH 19 0
BBX 17 11 1 -3
BITMAP
004000
000700
001F80
013080
41E180
C1C700
C1FE00
818000
C10000
FF0000
3C0000
ENDCHAR
STARTCHAR 0637
ENCODING 1591
SWIDTH 937 0
DWIDTH 15 0
BBX 13 12 1 1
BITMAP
1000
1000
1000
1000
1000
1000
10E0
13F0
1718
1418
1CF0
FFC0
ENDCHAR
STARTCHAR 0638
ENCODING 1592
SWIDTH 937 0
DWIDTH 15 0
BBX 13 12 1 1
BITMAP
1000
1000
1000
1000
1100
1000
10E0
13F0
1718
1418
1CF0
FFC0
ENDCHAR
STARTCHAR 0639
ENCODING 1593
SWIDTH 625 0
DWIDTH 10 0
BBX 8 12 1 -3
BITMAP
38
60
40
4E
38
60
C0
80
80
C0
73
3F
ENDCHAR
STARTCHAR 063A
ENCODING 1594
SWIDTH 625 0
DWIDTH 10 0
BBX 8 14 1 -3
BITMAP
20
00
38
60
40
4E
38
60
C0
80
80
C0
73
3F
ENDCHAR
STARTCHAR 0640
ENCODING 1600
SWIDTH 312 0
DWIDTH 5 0
BBX 5 1 0 1
BITMAP
F8
ENDCHAR
STARTCHAR 0641
ENCODING 1601
SWIDTH 1062 0
DWIDTH 17 0
BBX 14 11 1 0
BITMAP
0010
0000
0018
007C
0064
0064
C03C
8004
C018
7FF0
1F80
ENDCHAR
STARTCHAR 0642
ENCODING 1602
SWIDTH 750 0
DWIDTH 12 0
BBX 10 13 1 -3
BITMAP
0280
0000
0180
07C0
0640
0640
03C0
C040
80C0
80C0
8180
C700
7E00
ENDCHAR
STARTCHAR 0643
ENCODING 1603
SWIDTH 812 0
DWIDTH 13 0
BBX 11 12 1 0
BITMAP
0060
0060
0060
0660
0860
0660
0460
0060
0040
C040
C0C0
7F80
ENDCHAR
STARTCHAR 0644
ENCODING 1604
SWIDTH 750 0
DWIDTH 12 0
BBX 9 14 1 -2
BITMAP
0080
0080
0080
0080
0080
0080
0080
0080
0080
0080
C080
C180
C300
7E00
ENDCHAR
STARTCHAR 0645
ENCODING 1605
SWIDTH 625 0
DWIDTH 10 0
BBX 8 10 1 -4
BITMAP
0C
1E
33
33
FE
C0
C0
C0
C0
C0
ENDCHAR
STARTCHAR 0646
ENCODING 1606
SWIDTH 750 0
DWIDTH 12 0
BBX 10 10 1 -2
BITMAP
0800
0180
0080
C0C0
C0C0
C080
C080
4180
7F00
0800
ENDCHAR
STARTCHAR 0647
ENCODING 1607
SWIDTH 500 0
DWIDTH 8 0
BBX 6 6 1 -1
BITMAP
70
F8
CC
C4
C4
7C
ENDCHAR
STARTCHAR 0648
ENCODING 1608
SWIDTH 500 0
DWIDTH 8 0
BBX 7 9 -1 -3
BITMAP
1C
1E
32
1A
1E
02
06
FC
F0
ENDCHAR
STARTCHAR 0649
ENCODING 1609
SWIDTH 812 0
DWIDTH 13 0
BBX 10 9 1 -3
BITMAP
0100
07C0
0440
0700
C380
80C0
C0C0
E380
7E00
ENDCHAR
STARTCHAR 064A
ENCODING 1610
SWIDTH 812 0
DWIDTH 13 0
BBX 10 11 1 -4
BITMAP
0100
07C0
0440
0700
C380
80C0
C0C0
E380
7E00
0000
1400
ENDCHAR
STARTCHAR 064B
ENCODING 1611
SWIDTH 0 0
DWIDTH 0 0
BBX 3 3 3 10
BITMAP
E0
00
E0
ENDCHAR
STARTCHAR 064C
ENCODING 1612
SWIDTH 0 0
DWIDTH 0 0
BBX 4 5 2 9
BITMAP
70
50
30
A0
40
ENDCHAR
STARTCHAR 064D
ENCODING 1613
SWIDTH 0 0
DWIDTH 0 0
BBX 4 4 2 -4
BITMAP
30
C0
30
C0
ENDCHAR
STARTCHAR 064E
ENCODING 1614
SWIDTH 0 0
DWIDTH 0 0
BBX 3 1 3 10
BITMAP
E0
ENDCHAR
STARTCHAR 064F
ENCODING 1615
SWIDTH 0 0
DWIDTH 0 0
BBX 3 4 3 9
BITMAP
E0
A0
60
C0
ENDCHAR
STARTCHAR 0650
ENCODING 1616
SWIDTH 0 0
DWIDTH 0 0
BBX 4 2 2 -3
BITMAP
10
E0
ENDCHAR
STARTCHAR 0651
ENCODING 1617
SWIDTH 0 0
DWIDTH 0 0
BBX 5 3 1 10
BITMAP
08
98
78
ENDCHAR
STARTCHAR 0652
ENCODING 1618
SWIDTH 0 0
DWIDTH 0 0
BBX 4 4 2 10
BITMAP
60
90
90
F0
ENDCHAR
STARTCHAR 0653
ENCODING 1619
SWIDTH 0 0
DWIDTH 0 0
BBX 6 2 1 10
BITMAP
EC
10
ENDCHAR
STARTCHAR 0654
ENCODING 1620
SWIDTH 0 0
DWIDTH 0 0
BBX 3 3 3 9
BITMAP
C0
80
E0
ENDCHAR
STARTCHAR 0655
ENCODING 1621
SWIDTH 0 0
DWIDTH 0 0
BBX 3 3 3 -4
BITMAP
C0
80
E0
ENDCHAR
STARTCHAR 0657
ENCODING 1623
SWIDTH 0 0
DWIDTH 0 0
BBX 4 4 2 10
BITMAP
30
C0
A0
E0
ENDCHAR
STARTCHAR 065A
ENCODING 1626
SWIDTH 500 0
DWIDTH 8 0
BBX 4 2 2 10
BITMAP
F0
60
ENDCHAR
STARTCHAR 0660
ENCODING 1632
SWIDTH 562 0
DWIDTH 9 0
BBX 2 1 3 4
BITMAP
C0
ENDCHAR
STARTCHAR 0661
ENCODING 1633
SWIDTH 562 0
DWIDTH 9 0
BBX 3 10 2 1
BITMAP
C0
40
60
60
20
20
20
20
20
20
ENDCHAR
STARTCHAR 0662
ENCODING 1634
SWIDTH 562 0
DWIDTH 9 0
BBX 7 10 1 1
BITMAP
86
C6
7C
58
60
60
60
60
20
20
ENDCHAR
STARTCHAR 0663
ENCODING 1635
SWIDTH 562 0
DWIDTH 9 0
BBX 7 10 1 1
BITMAP
92
D2
7E
60
60
60
60
60
60
60
ENDCHAR
STARTCHAR 0664
ENCODING 1636
SWIDTH 562 0
DWIDTH 9 0
BBX 6 10 1 0
BITMAP
18
70
40
60
30
60
C0
C0
64
7C
ENDCHAR
STARTCHAR 0665
ENCODING 1637
SWIDTH 562 0
DWIDTH 9 0
BBX 7 10 1 0
BITMAP
38
68
4C
C4
C4
86
86
C4
CC
78
ENDCHAR
STARTCHAR 0666
ENCODING 1638
SWIDTH 562 0
DWIDTH 9 0
BBX 7 10 1 1
BITMAP
FC
7C
0C
0C
0C
04
04
04
06
06
ENDCHAR
STARTCHAR 0667
ENCODING 1639
SWIDTH 562 0
DWIDTH 9 0
BBX 7 10 1 1
BITMAP
86
C4
4C
6C
68
38
38
30
30
10
ENDCHAR
STARTCHAR 0668
ENCODING 1640
SWIDTH 562 0
DWIDTH 9 0
BBX 7 10 1 1
BITMAP
10
30
30
38
28
68
4C
4C
C4
86
ENDCHAR
STARTCHAR 0669
ENCODING 1641
SWIDTH 562 0
DWIDTH 9 0
BBX 7 10 1 1
BITMAP
78
C8
8C
CC
7C
04
04
04
06
06
ENDCHAR
STARTCHAR 066A
ENCODING 1642
SWIDTH 562 0
DWIDTH 9 0
BBX 6 10 1 1
BITMAP
C4
CC
08
18
10
30
20
60
44
C4
ENDCHAR
STARTCHAR 066B
ENCODING 1643
SWIDTH 312 0
DWIDTH 5 0
BBX 5 7 0 -1
BITMAP
08
08
18
10
30
E0
C0
ENDCHAR
STARTCHAR 066C
ENCODING 1644
SWIDTH 312 0
DWIDTH 5 0
BBX 2 4 2 7
BITMAP
C0
C0
80
80
ENDCHAR
STARTCHAR 066D
ENCODING 1645
SWIDTH 562 0
DWIDTH 9 0
BBX 6 6 1 2
BITMAP
10
10
FC
38
38
48
ENDCHAR
STARTCHAR 066E
ENCODING 1646
SWIDTH 937 0
DWIDTH 15 0
BBX 13 5 1 0
BITMAP
C018
8018
C010
E0F0
3FC0
ENDCHAR
STARTCHAR 066F
ENCODING 1647
SWIDTH 750 0
DWIDTH 12 0
BBX 10 11 1 -4
BITMAP
0180
07C0
0640
0640
03C0
C040
80C0
80C0
8180
C700
7E00
ENDCHAR
STARTCHAR 0670
ENCODING 1648
SWIDTH 0 0
DWIDTH 0 0
BBX 1 2 3 11
BITMAP
80
80
ENDCHAR
STARTCHAR 0674
ENCODING 1652
SWIDTH 312 0
DWIDTH 5 0
BBX 3 3 1 10
BITMAP
C0
80
E0
ENDCHAR
STARTCHAR 0679
ENCODING 1657
SWIDTH 937 0
DWIDTH 15 0
BBX 13 8 1 0
BITMAP
0800
0700
0F00
C018
8018
C010
E0F0
3FC0
ENDCHAR
STARTCHAR 067A
ENCODING 1658
SWIDTH 937 0
DWIDTH 15 0
BBX 13 8 1 0
BITMAP
0400
0000
0400
C018
8018
C010
E0F0
3FC0
ENDCHAR
STARTCHAR 067B
ENCODING 1659
SWIDTH 937 0
DWIDTH 15 0
BBX 13 9 1 -3
BITMAP
C018
8018
C010
E0F0
3FC0
0000
0400
0000
0400
ENDCHAR
STARTCHAR 067C
ENCODING 1660
SWIDTH 937 0
DWIDTH 15 0
BBX 13 9 1 -2
BITMAP
0A00
C018
8018
C010
E0F0
3FC0
0E00
0A00
0E00
ENDCHAR
STARTCHAR 067D
ENCODING 1661
SWIDTH 937 0
DWIDTH 15 0
BBX 13 7 1 0
BITMAP
0A00
0000
C418
8018
C010
E0F0
3FC0
ENDCHAR
STARTCHAR 067E
ENCODING 1662
SWIDTH 937 0
DWIDTH 15 0
BBX 13 9 1 -3
BITMAP
C018
8018
C010
E0F0
3FC0
0000
0A00
0000
0400
ENDCHAR
STARTCHAR 067F
ENCODING 1663
SWIDTH 937 0
DWIDTH 15 0
BBX 13 8 1 0
BITMAP
0A00
0000
0A00
C018
8018
C010
E0F0
3FC0
ENDCHAR
STARTCHAR 0680
ENCODING 1664
SWIDTH 937 0
DWIDTH 15 0
BBX 13 9 1 -3
BITMAP
C018
8018
C010
E0F0
3FC0
0000
0A00
0000
0A00
ENDCHAR
STARTCHAR 0681
ENCODING 1665
SWIDTH 625 0
DWIDTH 10 0
BBX 9 15 1 -4
BITMAP
1800
1000
1C00
0000
7E00
FF00
3800
2000
6000
4000
4000
4000
6000
3980
1F80
ENDCHAR
STARTCHAR 0682
ENCODING 1666
SWIDTH 625 0
DWIDTH 10 0
BBX 9 15 1 -3
BITMAP
0800
0000
0800
0000
7E00
FF00
3800
2000
6000
4000
4000
4000
6000
3980
1F80
ENDCHAR
STARTCHAR 0683
ENCODING 1667
SWIDTH 625 0
DWIDTH 10 0
BBX 9 11 1 -4
BITMAP
7E00
FF00
3800
2000
6000
4000
4A00
4000
6000
3980
1F80
ENDCHAR
STARTCHAR 0684
ENCODING 1668
SWIDTH 625 0
DWIDTH 10 0
BBX 9 11 1 -4
BITMAP
7E00
FF00
3800
2000
6000
4400
4000
4400
6000
3980
1F80
ENDCHAR
STARTCHAR 0685
ENCODING 1669
SWIDTH 625 0
DWIDTH 10 0
BBX 9 15 1 -3
BITMAP
0800
0000
1400
0000
7E00
FF00
3800
2000
6000
4000
4000
4000
6000
3980
1F80
ENDCHAR
STARTCHAR 0686
ENCODING 1670
SWIDTH 625 0
DWIDTH 10 0
BBX 9 11 1 -4
BITMAP
7E00
FF00
3800
2000
6000
4A00
4000
4400
6000
3980
1F80
ENDCHAR
STARTCHAR 0687
ENCODING 1671
SWIDTH 625 0
DWIDTH 10 0
BBX 9 11 1 -4
BITMAP
7E00
FF00
3800
2000
6000
4A00
4000
4A00
6000
3980
1F80
ENDCHAR
STARTCHAR 0688
ENCODING 1672
SWIDTH 437 0
DWIDTH 7 0
BBX 5 11 1 0
BITMAP
40
38
78
00
20
10
18
08
08
18
F0
ENDCHAR
STARTCHAR 0689
ENCODING 1673
SWIDTH 437 0
DWIDTH 7 0
BBX 5 10 1 -3
BITMAP
20
10
18
08
08
18
F0
70
50
70
ENDCHAR
STARTCHAR 068A
ENCODING 1674
SWIDTH 437 0
DWIDTH 7 0
BBX 5 10 1 -3
BITMAP
20
10
18
08
08
18
F0
00
00
20
ENDCHAR
STARTCHAR 068B
ENCODING 1675
SWIDTH 437 0
DWIDTH 7 0
BBX 5 14 1 -2
BITMAP
40
38
78
00
20
10
18
08
08
18
F0
00
00
20
ENDCHAR
STARTCHAR 068C
ENCODING 1676
SWIDTH 437 0
DWIDTH 7 0
BBX 5 9 1 0
BITMAP
50
00
20
10
18
08
08
18
F0
ENDCHAR
STARTCHAR 068D
ENCODING 1677
SWIDTH 437 0
DWIDTH 7 0
BBX 5 9 1 -2
BITMAP
20
10
18
08
08
18
F0
00
50
ENDCHAR
STARTCHAR 068E
ENCODING 1678
SWIDTH 437 0
DWIDTH 7 0
BBX 5 11 1 0
BITMAP
20
00
50
00
20
10
18
08
08
18
F0
ENDCHAR
STARTCHAR 068F
ENCODING 1679
SWIDTH 437 0
DWIDTH 7 0
BBX 5 11 1 0
BITMAP
50
00
20
00
20
10
18
08
08
18
F0
ENDCHAR
STARTCHAR 0690
ENCODING 1680
SWIDTH 437 0
DWIDTH 7 0
BBX 5 11 1 0
BITMAP
50
00
50
00
20
10
18
08
08
18
F0
ENDCHAR
STARTCHAR 0691
ENCODING 1681
SWIDTH 500 0
DWIDTH 8 0
BBX 8 13 -1 -3
BITMAP
08
07
0F
00
00
03
03
03
03
06
0E
F8
E0
ENDCHAR
STARTCHAR 0692
ENCODING 1682
SWIDTH 500 0
DWIDTH 8 0
BBX 8 12 -1 -3
BITMAP
0F
06
00
00
03
03
03
03
06
0E
F8
E0
ENDCHAR
STARTCHAR 0693
ENCODING 1683
SWIDTH 500 0
DWIDTH 8 0
BBX 9 8 -1 -3
BITMAP
0300
0300
0300
0300
0600
0F80
FA80
E380
ENDCHAR
STARTCHAR 0694
ENCODING 1684
SWIDTH 500 0
DWIDTH 8 0
BBX 8 8 -1 -3
BITMAP
03
03
03
03
06
0E
F9
E0
ENDCHAR
STARTCHAR 0695
ENCODING 1685
SWIDTH 625 0
DWIDTH 10 0
BBX 11 8 -1 -4
BITMAP
0300
0300
0300
0300
0600
0E00
F9E0
E0C0
ENDCHAR
STARTCHAR 0696
ENCODING 1686
SWIDTH 500 0
DWIDTH 8 0
BBX 8 8 -1 -3
BITMAP
03
03
03
23
06
0E
F9
E0
ENDCHAR
STARTCHAR 0697
ENCODING 1687
SWIDTH 500 0
DWIDTH 8 0
BBX 8 11 -1 -3
BITMAP
05
00
00
03
03
03
03
06
0E
F8
E0
ENDCHAR
STARTCHAR 0698
ENCODING 1688
SWIDTH 500 0
DWIDTH 8 0
BBX 8 13 -1 -3
BITMAP
02
00
05
00
00
03
03
03
03
06
0E
F8
E0
ENDCHAR
STARTCHAR 0699
ENCODING 1689
SWIDTH 500 0
DWIDTH 8 0
BBX 8 13 -1 -3
BITMAP
05
00
05
00
00
03
03
03
03
06
0E
F8
E0
ENDCHAR
STARTCHAR 069A
ENCODING 1690
SWIDTH 1250 0
DWIDTH 20 0
BBX 17 11 1 -3
BITMAP
002000
000080
010880
018880
409880
C0DD80
C0F700
818000
C30000
FF1000
3C0000
ENDCHAR
STARTCHAR 069B
ENCODING 1691
SWIDTH 1250 0
DWIDTH 20 0
BBX 17 10 1 -4
BITMAP
000080
010880
018880
409880
C0DD80
C0F700
818000
C32800
FF0000
3C1000
ENDCHAR
STARTCHAR 069C
ENCODING 1692
SWIDTH 1250 0
DWIDTH 20 0
BBX 17 13 1 -3
BITMAP
002000
000000
005000
000080
010880
018880
409880
C0DD80
C0F700
818000
C32800
FF0000
3C1000
ENDCHAR
STARTCHAR 069D
ENCODING 1693
SWIDTH 1187 0
DWIDTH 19 0
BBX 17 10 1 -4
BITMAP
000700
001F80
013080
41E180
C1C700
C1FE00
818000
C10000
FF2800
3C0000
ENDCHAR
STARTCHAR 069E
ENCODING 1694
SWIDTH 1187 0
DWIDTH 19 0
BBX 17 13 1 -3
BITMAP
004000
000000
00A000
000700
001F80
013080
41E180
C1C700
C1FE00
818000
C10000
FF0000
3C0000
ENDCHAR
STARTCHAR 069F
ENCODING 1695
SWIDTH 937 0
DWIDTH 15 0
BBX 13 12 1 1
BITMAP
1000
1000
1100
1000
1280
1000
10E0
13F0
1718
1418
1CF0
FFC0
ENDCHAR
STARTCHAR 06A0
ENCODING 1696
SWIDTH 625 0
DWIDTH 10 0
BBX 8 16 1 -3
BITMAP
20
00
50
00
38
60
40
4E
38
60
C0
80
80
C0
73
3F
ENDCHAR
STARTCHAR 06A1
ENCODING 1697
SWIDTH 1062 0
DWIDTH 17 0
BBX 14 9 1 -1
BITMAP
0018
007C
0064
0064
C03C
8004
C018
7FF0
1F80
ENDCHAR
STARTCHAR 06A2
ENCODING 1698
SWIDTH 1062 0
DWIDTH 17 0
BBX 14 11 1 -3
BITMAP
0018
007C
0064
0064
C03C
8004
C018
7FF0
1F80
0000
0200
ENDCHAR
STARTCHAR 06A3
ENCODING 1699
SWIDTH 1062 0
DWIDTH 17 0
BBX 14 13 1 -2
BITMAP
0010
0000
0018
007C
0064
0064
C03C
8004
C018
7FF0
1F80
0000
0200
ENDCHAR
STARTCHAR 06A4
ENCODING 1700
SWIDTH 1062 0
DWIDTH 17 0
BBX 14 13 1 0
BITMAP
0010
0000
0028
0000
0018
007C
0064
0064
C03C
8004
C018
7FF0
1F80
ENDCHAR
STARTCHAR 06A5
ENCODING 1701
SWIDTH 1062 0
DWIDTH 17 0
BBX 14 13 1 -5
BITMAP
0018
007C
0064
0064
C03C
8004
C018
7FF0
1F80
0000
0500
0000
0200
ENDCHAR
STARTCHAR 06A6
ENCODING 1702
SWIDTH 1062 0
DWIDTH 17 0
BBX 14 13 1 0
BITMAP
0028
0000
0028
0000
0018
007C
0064
0064
C03C
8004
C018
7FF0
1F80
ENDCHAR
STARTCHAR 06A7
ENCODING 1703
SWIDTH 750 0
DWIDTH 12 0
BBX 10 13 1 -3
BITMAP
0100
0000
0180
07C0
0640
0640
03C0
C040
80C0
80C0
8180
C700
7E00
ENDCHAR
STARTCHAR 06A8
ENCODING 1704
SWIDTH 750 0
DWIDTH 12 0
BBX 10 15 1 -3
BITMAP
0100
0000
0280
0000
0180
07C0
0640
0640
03C0
C040
80C0
80C0
8180
C700
7E00
ENDCHAR
STARTCHAR 06A9
ENCODING 1705
SWIDTH 875 0
DWIDTH 14 0
BBX 13 13 1 0
BITMAP
0008
0078
01C0
0300
0300
0180
00C0
0060
C060
8020
C0E0
7FC0
1E00
ENDCHAR
STARTCHAR 06AA
ENCODING 1706
SWIDTH 1062 0
DWIDTH 17 0
BBX 15 13 1 0
BITMAP
00E0
0180
0700
1C00
1000
1800
1FE0
00FC
C006
8006
C00E
7FFC
1FE0
ENDCHAR
STARTCHAR 06AB
ENCODING 1707
SWIDTH 875 0
DWIDTH 14 0
BBX 13 13 1 0
BITMAP
0008
0078
01F8
0328
0338
0180
00C0
0060
C060
8020
C0E0
7FC0
1E00
ENDCHAR
STARTCHAR 06AC
ENCODING 1708
SWIDTH 812 0
DWIDTH 13 0
BBX 11 12 1 0
BITMAP
0460
0060
0060
0660
0860
0660
0460
0060
0040
C040
C0C0
7F80
ENDCHAR
STARTCHAR 06AD
ENCODING 1709
SWIDTH 812 0
DWIDTH 13 0
BBX 11 14 1 0
BITMAP
0400
0000
0A60
0060
0060
0660
0860
0660
0460
0060
0040
C040
C0C0
7F80
ENDCHAR
STARTCHAR 06AE
ENCODING 1710
SWIDTH 812 0
DWIDTH 13 0
BBX 11 17 1 -4
BITMAP
0060
0060
0060
0660
0860
0660
0460
0060
0040
C040
C0C0
7F80
0000
0000
0A00
0000
0400
ENDCHAR
STARTCHAR 06AF
ENCODING 1711
SWIDTH 875 0
DWIDTH 14 0
BBX 14 15 1 0
BITMAP
000C
0070
01C8
0078
01C0
0300
0300
0180
00C0
0060
C060
8020
C0E0
7FC0
1E00
ENDCHAR
STARTCHAR 06B0
ENCODING 1712
SWIDTH 875 0
DWIDTH 14 0
BBX 14 15 1 0
BITMAP
000C
0070
01C8
0078
01F8
0328
0338
0180
00C0
0060
C060
8020
C0E0
7FC0
1E00
ENDCHAR
STARTCHAR 06B1
ENCODING 1713
SWIDTH 875 0
DWIDTH 14 0
BBX 14 15 1 0
BITMAP
028C
0070
01C8
0078
01C0
0300
0300
0180
00C0
0060
C060
8020
C0E0
7FC0
1E00
ENDCHAR
STARTCHAR 06B2
ENCODING 1714
SWIDTH 875 0
DWIDTH 14 0
BBX 14 17 1 -2
BITMAP
000C
0070
01C8
0078
01C0
0300
0300
0180
00C0
0060
C060
8020
C0E0
7FC0
1E00
0000
0A00
ENDCHAR
STARTCHAR 06B3
ENCODING 1715
SWIDTH 875 0
DWIDTH 14 0
BBX 14 19 1 -4
BITMAP
000C
0070
01C8
0078
01C0
0300
0300
0180
00C0
0060
C060
8020
C0E0
7FC0
1E00
0000
0400
0000
0400
ENDCHAR
STARTCHAR 06B4
ENCODING 1716
SWIDTH 875 0
DWIDTH 14 0
BBX 14 17 1 0
BITMAP
0100
0000
028C
0070
01C8
0078
01C0
0300
0300
0180
00C0
0060
C060
8020
C0E0
7FC0
1E00
ENDCHAR
STARTCHAR 06B5
ENCODING 1717
SWIDTH 750 0
DWIDTH 12 0
BBX 10 17 1 -2
BITMAP
03C0
0180
0000
0080
0080
0080
0080
0080
0080
0080
0080
0080
0080
C080
C180
C300
7E00
ENDCHAR
STARTCHAR 06B6
ENCODING 1718
SWIDTH 750 0
DWIDTH 12 0
BBX 9 17 1 -2
BITMAP
0080
0000
0000
0080
0080
0080
0080
0080
0080
0080
0080
0080
0080
C080
C180
C300
7E00
ENDCHAR
STARTCHAR 06B7
ENCODING 1719
SWIDTH 750 0
DWIDTH 12 0
BBX 10 18 1 -2
BITMAP
0080
0000
0140
0000
0080
0080
0080
0080
0080
0080
0080
0080
0080
0080
C080
C180
C300
7E00
ENDCHAR
STARTCHAR 06B8
ENCODING 1720
SWIDTH 750 0
DWIDTH 12 0
BBX 9 18 1 -5
BITMAP
0080
0080
0080
0080
0080
0080
0080
0080
0080
0080
C080
C180
C300
7E00
0000
1400
0000
0800
ENDCHAR
STARTCHAR 06B9
ENCODING 1721
SWIDTH 750 0
DWIDTH 12 0
BBX 10 12 1 -4
BITMAP
0800
0180
0080
C0C0
C0C0
C080
C080
4180
7F00
0800
0000
0800
ENDCHAR
STARTCHAR 06BA
ENCODING 1722
SWIDTH 750 0
DWIDTH 12 0
BBX 10 9 1 -3
BITMAP
0180
0080
C0C0
C0C0
C080
C080
4180
7F00
0800
ENDCHAR
STARTCHAR 06BB
ENCODING 1723
SWIDTH 750 0
DWIDTH 12 0
BBX 10 12 1 -2
BITMAP
1000
0E00
1E00
0180
0080
C0C0
C0C0
C080
C080
4180
7F00
0800
ENDCHAR
STARTCHAR 06BC
ENCODING 1724
SWIDTH 750 0
DWIDTH 12 0
BBX 10 12 1 -4
BITMAP
0800
0180
0080
C0C0
C0C0
C080
C080
4180
7F00
1C00
1400
1C00
ENDCHAR
STARTCHAR 06BD
ENCODING 1725
SWIDTH 750 0
DWIDTH 12 0
BBX 10 12 1 -2
BITMAP
0800
0000
1400
0180
0080
C0C0
C0C0
C080
C080
4180
7F00
0800
ENDCHAR
STARTCHAR 06BE
ENCODING 1726
SWIDTH 687 0
DWIDTH 11 0
BBX 9 8 1 -1
BITMAP
1000
1C00
1E00
1300
1380
DE80
CC80
7F80
ENDCHAR
STARTCHAR 06BF
ENCODING 1727
SWIDTH 625 0
DWIDTH 10 0
BBX 9 13 1 -3
BITMAP
0800
0000
7E00
FF00
3800
2000
6000
4A00
4000
4400
6000
3980
1F80
ENDCHAR
STARTCHAR 06C6
ENCODING 1734
SWIDTH 500 0
DWIDTH 8 0
BBX 7 12 -1 -3
BITMAP
1E
0C
00
1C
1E
32
1A
1E
02
06
FC
F0
ENDCHAR
STARTCHAR 06CC
ENCODING 1740
SWIDTH 812 0
DWIDTH 13 0
BBX 10 9 1 -3
BITMAP
0100
07C0
0440
0700
C380
80C0
C0C0
E380
7E00
ENDCHAR
STARTCHAR 06CE
ENCODING 1742
SWIDTH 812 0
DWIDTH 13 0
BBX 10 10 1 -2
BITMAP
7800
3100
07C0
0440
0700
C380
80C0
C0C0
E380
7E00
ENDCHAR
STARTCHAR 06D5
ENCODING 1749
SWIDTH 500 0
DWIDTH 8 0
BBX 6 6 1 -1
BITMAP
70
F8
CC
C4
C4
7C
ENDCHAR
STARTCHAR 06F0
ENCODING 1776
SWIDTH 562 0
DWIDTH 9 0
BBX 2 1 3 4
BITMAP
C0
ENDCHAR
STARTCHAR 06F1
ENCODING 1777
SWIDTH 562 0
DWIDTH 9 0
BBX 3 10 2 1
BITMAP
C0
40
60
60
20
20
20
20
20
20
ENDCHAR
STARTCHAR 06F2
ENCODING 1778
SWIDTH 562 0
DWIDTH 9 0
BBX 7 10 1 1
BITMAP
86
C6
7C
58
60
60
60
60
20
20
ENDCHAR
STARTCHAR 06F3
ENCODING 1779
SWIDTH 562 0
DWIDTH 9 0
BBX 7 10 1 1
BITMAP
92
D2
7E
60
60
60
60
60
60
60
ENDCHAR
STARTCHAR 06F4
ENCODING 1780
SWIDTH 562 0
DWIDTH 9 0
BBX 7 10 1 1
BITMAP
9C
D0
7E
5E
60
60
60
60
20
20
ENDCHAR
STARTCHAR 06F5
ENCODING 1781
SWIDTH 562 0
DWIDTH 9 0
BBX 7 10 1 0
BITMAP
38
68
4C
C4
86
86
86
96
FC
6C
ENDCHAR
STARTCHAR 06F6
ENCODING 1782
SWIDTH 562 0
DWIDTH 9 0
BBX 5 10 2 1
BITMAP
78
C0
C0
C0
78
30
60
40
C0
80
ENDCHAR
STARTCHAR 06F7
ENCODING 1783
SWIDTH 562 0
DWIDTH 9 0
BBX 7 10 1 1
BITMAP
86
C4
4C
6C
68
38
38
30
30
10
ENDCHAR
STARTCHAR 06F8
ENCODING 1784
SWIDTH 562 0
DWIDTH 9 0
BBX 7 10 1 1
BITMAP
10
30
30
38
28
68
4C
4C
C4
86
ENDCHAR
STARTCHAR 06F9
ENCODING 1785
SWIDTH 562 0
DWIDTH 9 0
BBX 7 10 1 1
BITMAP
78
C8
8C
CC
7C
04
04
04
06
06
ENDCHAR
STARTCHAR 07C0
ENCODING 1984
SWIDTH 625 0
DWIDTH 10 0
BBX 8 12 1 0
BITMAP
3C
42
42
81
81
81
81
81
81
42
42
3C
ENDCHAR
STARTCHAR 07C1
ENCODING 1985
SWIDTH 625 0
DWIDTH 10 0
BBX 7 12 2 0
BITMAP
1C
16
10
10
10
10
10
10
10
10
10
FE
ENDCHAR
STARTCHAR 07C2
ENCODING 1986
SWIDTH 625 0
DWIDTH 10 0
BBX 7 12 2 0
BITMAP
82
82
82
82
FE
80
80
80
80
80
80
80
ENDCHAR
STARTCHAR 07C3
ENCODING 1987
SWIDTH 625 0
DWIDTH 10 0
BBX 7 12 2 0
BITMAP
02
02
02
02
02
02
FE
02
02
02
02
FE
ENDCHAR
STARTCHAR 07C4
ENCODING 1988
SWIDTH 625 0
DWIDTH 10 0
BBX 7 12 2 0
BITMAP
02
02
02
02
02
02
FE
80
80
80
80
FE
ENDCHAR
STARTCHAR 07C5
ENCODING 1989
SWIDTH 625 0
DWIDTH 10 0
BBX 7 12 2 0
BITMAP
80
80
80
80
80
FE
80
80
80
80
80
80
ENDCHAR
STARTCHAR 07C6
ENCODING 1990
SWIDTH 625 0
DWIDTH 10 0
BBX 7 12 2 0
BITMAP
80
80
80
80
80
80
FE
02
02
02
02
02
ENDCHAR
STARTCHAR 07C7
ENCODING 1991
SWIDTH 625 0
DWIDTH 10 0
BBX 6 12 2 0
BITMAP
80
80
80
80
84
8C
88
90
B0
A0
C0
C0
ENDCHAR
STARTCHAR 07C8
ENCODING 1992
SWIDTH 625 0
DWIDTH 10 0
BBX 6 12 2 0
BITMAP
80
80
80
FC
84
88
88
90
B0
A0
E0
C0
ENDCHAR
STARTCHAR 07C9
ENCODING 1993
SWIDTH 562 0
DWIDTH 9 0
BBX 7 12 1 0
BITMAP
38
C6
82
82
C6
38
10
10
10
10
10
10
ENDCHAR
STARTCHAR 07CA
ENCODING 1994
SWIDTH 187 0
DWIDTH 3 0
BBX 1 12 1 0
BITMAP
80
80
80
80
80
80
80
80
80
80
80
80
ENDCHAR
STARTCHAR 07CB
ENCODING 1995
SWIDTH 562 0
DWIDTH 9 0
BBX 7 7 1 0
BITMAP
38
44
82
82
82
44
38
ENDCHAR
STARTCHAR 07CC
ENCODING 1996
SWIDTH 437 0
DWIDTH 7 0
BBX 5 12 1 0
BITMAP
88
D8
50
70
20
20
20
20
20
20
20
20
ENDCHAR
STARTCHAR 07CD
ENCODING 1997
SWIDTH 562 0
DWIDTH 9 0
BBX 8 7 1 0
BITMAP
18
38
2C
64
46
C2
83
ENDCHAR
STARTCHAR 07CE
ENCODING 1998
SWIDTH 562 0
DWIDTH 9 0
BBX 7 7 1 0
BITMAP
82
82
82
82
82
82
FE
ENDCHAR
STARTCHAR 07CF
ENCODING 1999
SWIDTH 562 0
DWIDTH 9 0
BBX 7 7 1 0
BITMAP
FE
02
02
02
02
02
FE
ENDCHAR
STARTCHAR 07D0
ENCODING 2000
SWIDTH 562 0
DWIDTH 9 0
BBX 7 12 1 0
BITMAP
38
C6
82
82
C6
38
10
10
10
10
10
FE
ENDCHAR
STARTCHAR 07D1
ENCODING 2001
SWIDTH 625 0
DWIDTH 10 0
BBX 8 9 1 0
BITMAP
18
10
18
00
00
00
00
00
FF
ENDCHAR
STARTCHAR 07D2
ENCODING 2002
SWIDTH 750 0
DWIDTH 12 0
BBX 10 12 1 0
BITMAP
7800
C800
8400
8400
C400
7FC0
0440
0440
0440
0040
0040
0040
ENDCHAR
STARTCHAR 07D3
ENCODING 2003
SWIDTH 437 0
DWIDTH 7 0
BBX 5 12 1 0
BITMAP
F8
80
80
80
80
F8
80
80
80
80
80
80
ENDCHAR
STARTCHAR 07D4
ENCODING 2004
SWIDTH 437 0
DWIDTH 7 0
BBX 5 12 1 0
BITMAP
F8
08
08
08
08
F8
08
08
08
08
08
08
ENDCHAR
STARTCHAR 07D5
ENCODING 2005
SWIDTH 500 0
DWIDTH 8 0
BBX 6 12 1 0
BITMAP
80
80
80
80
80
F8
8C
84
84
84
8C
F8
ENDCHAR
STARTCHAR 07D6
ENCODING 2006
SWIDTH 562 0
DWIDTH 9 0
BBX 7 12 1 0
BITMAP
FE
40
40
20
30
10
10
08
08
08
08
08
ENDCHAR
STARTCHAR 07D7
ENCODING 2007
SWIDTH 312 0
DWIDTH 5 0
BBX 3 12 0 0
BITMAP
60
E0
A0
20
20
20
20
20
20
20
20
20
ENDCHAR
STARTCHAR 07D8
ENCODING 2008
SWIDTH 812 0
DWIDTH 13 0
BBX 11 8 1 0
BITMAP
03C0
7E60
CC20
8420
8420
8420
8420
FFE0
ENDCHAR
STARTCHAR 07D9
ENCODING 2009
SWIDTH 562 0
DWIDTH 9 0
BBX 7 12 1 0
BITMAP
10
10
10
10
FE
10
10
10
10
10
10
10
ENDCHAR
STARTCHAR 07DA
ENCODING 2010
SWIDTH 875 0
DWIDTH 14 0
BBX 12 12 1 0
BITMAP
1080
1080
1080
1080
FFF0
1080
1080
1080
1080
1080
1080
1080
ENDCHAR
STARTCHAR 07DB
ENCODING 2011
SWIDTH 562 0
DWIDTH 9 0
BBX 7 7 1 0
BITMAP
FE
82
82
82
82
82
FE
ENDCHAR
STARTCHAR 07DC
ENCODING 2012
SWIDTH 625 0
DWIDTH 10 0
BBX 9 12 0 0
BITMAP
FF80
8080
4100
4100
4100
2200
2200
2200
1400
1400
1400
1400
ENDCHAR
STARTCHAR 07DD
ENCODING 2013
SWIDTH 687 0
DWIDTH 11 0
BBX 9 12 1 0
BITMAP
0F00
0880
0880
0880
0880
FF00
8800
8800
8800
8800
8800
F800
ENDCHAR
STARTCHAR 07DE
ENCODING 2014
SWIDTH 437 0
DWIDTH 7 0
BBX 5 12 1 0
BITMAP
08
08
88
88
F8
88
88
08
08
08
08
08
ENDCHAR
STARTCHAR 07DF
ENCODING 2015
SWIDTH 687 0
DWIDTH 11 0
BBX 9 12 1 0
BITMAP
7C00
C400
8400
8400
8400
C400
7F80
0400
0400
0400
0400
0400
ENDCHAR
STARTCHAR 07E0
ENCODING 2016
SWIDTH 562 0
DWIDTH 9 0
BBX 7 12 1 0
BITMAP
FE
10
10
10
10
10
10
10
10
10
10
10
ENDCHAR
STARTCHAR 07E1
ENCODING 2017
SWIDTH 625 0
DWIDTH 10 0
BBX 9 12 0 0
BITMAP
1C00
1400
1400
1400
2200
2200
2200
4100
4100
4100
8080
FF80
ENDCHAR
STARTCHAR 07E2
ENCODING 2018
SWIDTH 625 0
DWIDTH 10 0
BBX 8 12 1 0
BITMAP
F0
10
10
38
7E
83
83
C6
3C
10
10
10
ENDCHAR
STARTCHAR 07E3
ENCODING 2019
SWIDTH 437 0
DWIDTH 7 0
BBX 5 12 1 0
BITMAP
F8
88
88
08
08
08
08
08
08
08
08
08
ENDCHAR
STARTCHAR 07E4
ENCODING 2020
SWIDTH 437 0
DWIDTH 7 0
BBX 5 10 1 0
BITMAP
80
80
F8
88
88
08
08
08
08
08
ENDCHAR
STARTCHAR 07E5
ENCODING 2021
SWIDTH 437 0
DWIDTH 7 0
BBX 5 12 1 0
BITMAP
F8
08
08
08
08
F8
88
88
88
88
88
F8
ENDCHAR
STARTCHAR 07E6
ENCODING 2022
SWIDTH 562 0
DWIDTH 9 0
BBX 7 12 1 0
BITMAP
10
10
10
38
C6
82
82
C6
38
10
10
10
ENDCHAR
STARTCHAR 07E7
ENCODING 2023
SWIDTH 625 0
DWIDTH 10 0
BBX 8 12 1 0
BITMAP
FE
10
10
38
7E
83
83
C6
3C
10
10
10
ENDCHAR
STARTCHAR 07EB
ENCODING 2027
SWIDTH 0 0
DWIDTH 0 0
BBX 5 1 2 11
BITMAP
F8
ENDCHAR
STARTCHAR 07EC
ENCODING 2028
SWIDTH 0 0
DWIDTH 0 0
BBX 6 3 1 9
BITMAP
64
64
98
ENDCHAR
STARTCHAR 07ED
ENCODING 2029
SWIDTH 0 0
DWIDTH 0 0
BBX 1 1 3 11
BITMAP
80
ENDCHAR
STARTCHAR 07EE
ENCODING 2030
SWIDTH 0 0
DWIDTH 0 0
BBX 5 3 2 10
BITMAP
20
50
88
ENDCHAR
STARTCHAR 07EF
ENCODING 2031
SWIDTH 0 0
DWIDTH 0 0
BBX 7 3 1 10
BITMAP
08
04
FE
ENDCHAR
STARTCHAR 07F0
ENCODING 2032
SWIDTH 0 0
DWIDTH 0 0
BBX 6 3 1 9
BITMAP
98
98
64
ENDCHAR
STARTCHAR 07F1
ENCODING 2033
SWIDTH 0 0
DWIDTH 0 0
BBX 7 3 1 10
BITMAP
20
40
FE
ENDCHAR
STARTCHAR 07F2
ENCODING 2034
SWIDTH 0 0
DWIDTH 0 0
BBX 1 1 3 -2
BITMAP
80
ENDCHAR
STARTCHAR 07F3
ENCODING 2035
SWIDTH 0 0
DWIDTH 0 0
BBX 4 1 2 11
BITMAP
90
ENDCHAR
STARTCHAR 07F4
ENCODING 2036
SWIDTH 250 0
DWIDTH 4 0
BBX 2 3 1 9
BITMAP
C0
40
C0
ENDCHAR
STARTCHAR 07F5
ENCODING 2037
SWIDTH 250 0
DWIDTH 4 0
BBX 2 3 1 9
BITMAP
C0
80
C0
ENDCHAR
STARTCHAR 07F8
ENCODING 2040
SWIDTH 562 0
DWIDTH 9 0
BBX 7 7 1 0
BITMAP
10
00
00
00
00
00
FE
ENDCHAR
STARTCHAR 07F9
ENCODING 2041
SWIDTH 562 0
DWIDTH 9 0
BBX 7 7 1 0
BITMAP
FE
00
00
10
00
00
10
ENDCHAR
STARTCHAR 07FA
ENCODING 2042
SWIDTH 375 0
DWIDTH 6 0
BBX 6 1 0 0
BITMAP
FC
ENDCHAR
STARTCHAR 0E3F
ENCODING 3647
SWIDTH 625 0
DWIDTH 10 0
BBX 8 14 1 -2
BITMAP
10
10
FE
D3
D3
D2
FC
D3
D1
D1
D3
FE
10
10
ENDCHAR
STARTCHAR 0E81
ENCODING 3713
SWIDTH 687 0
DWIDTH 11 0
BBX 8 9 1 0
BITMAP
EE
B1
E1
21
21
21
E1
A1
E1
ENDCHAR
STARTCHAR 0E82
ENCODING 3714
SWIDTH 625 0
DWIDTH 10 0
BBX 9 9 1 -1
BITMAP
3E00
E300
A100
E100
0600
3800
C000
8700
7880
ENDCHAR
STARTCHAR 0E84
ENCODING 3716
SWIDTH 687 0
DWIDTH 11 0
BBX 9 9 1 0
BITMAP
3E00
C300
C180
F180
F180
E180
B180
F980
7980
ENDCHAR
STARTCHAR 0E87
ENCODING 3719
SWIDTH 500 0
DWIDTH 8 0
BBX 5 12 1 -3
BITMAP
F0
A8
E8
08
08
08
08
08
08
88
C8
70
ENDCHAR
STARTCHAR 0E88
ENCODING 3720
SWIDTH 625 0
DWIDTH 10 0
BBX 8 9 1 0
BITMAP
7C
C2
81
9F
17
1D
01
01
01
ENDCHAR
STARTCHAR 0E8A
ENCODING 3722
SWIDTH 687 0
DWIDTH 11 0
BBX 9 12 1 -3
BITMAP
3E00
E100
A100
E300
1C00
7000
8700
8700
7D00
0100
0180
0080
ENDCHAR
STARTCHAR 0E8D
ENCODING 3725
SWIDTH 687 0
DWIDTH 11 0
BBX 8 9 1 0
BITMAP
71
D1
F1
81
61
81
81
C2
7C
ENDCHAR
STARTCHAR 0E94
ENCODING 3732
SWIDTH 687 0
DWIDTH 11 0
BBX 8 9 1 0
BITMAP
7E
C3
81
81
81
81
E1
91
F1
ENDCHAR
STARTCHAR 0E95
ENCODING 3733
SWIDTH 625 0
DWIDTH 10 0
BBX 8 9 1 0
BITMAP
66
BD
99
81
81
81
E1
91
F1
ENDCHAR
STARTCHAR 0E96
ENCODING 3734
SWIDTH 687 0
DWIDTH 11 0
BBX 10 12 0 -3
BITMAP
EF80
9840
F040
1040
1040
1040
1C40
1240
1E40
0040
0040
0040
ENDCHAR
STARTCHAR 0E97
ENCODING 3735
SWIDTH 687 0
DWIDTH 11 0
BBX 9 9 1 0
BITMAP
F780
9480
F480
6480
C480
8480
8480
8480
7880
ENDCHAR
STARTCHAR 0E99
ENCODING 3737
SWIDTH 687 0
DWIDTH 11 0
BBX 9 9 1 1
BITMAP
F080
9080
7080
1080
1080
1080
1080
1880
7700
ENDCHAR
STARTCHAR 0E9A
ENCODING 3738
SWIDTH 625 0
DWIDTH 10 0
BBX 8 9 1 0
BITMAP
F1
91
F1
61
C1
81
81
C3
7C
ENDCHAR
STARTCHAR 0E9B
ENCODING 3739
SWIDTH 625 0
DWIDTH 10 0
BBX 8 12 1 0
BITMAP
01
01
01
F1
91
F1
61
C1
81
81
C3
7C
ENDCHAR
STARTCHAR 0E9C
ENCODING 3740
SWIDTH 750 0
DWIDTH 12 0
BBX 11 10 1 -1
BITMAP
0040
E3E0
A6C0
E3C0
C180
8880
8880
8880
DD80
FF00
ENDCHAR
STARTCHAR 0E9D
ENCODING 3741
SWIDTH 625 0
DWIDTH 10 0
BBX 8 12 1 0
BITMAP
01
01
01
F1
91
F1
81
89
89
89
89
7E
ENDCHAR
STARTCHAR 0E9E
ENCODING 3742
SWIDTH 687 0
DWIDTH 11 0
BBX 8 9 1 0
BITMAP
F1
91
F1
61
C9
89
89
89
7E
ENDCHAR
STARTCHAR 0E9F
ENCODING 3743
SWIDTH 687 0
DWIDTH 11 0
BBX 8 12 1 0
BITMAP
01
01
01
F1
91
F1
61
C9
89
89
89
7E
ENDCHAR
STARTCHAR 0EA1
ENCODING 3745
SWIDTH 687 0
DWIDTH 11 0
BBX 10 9 0 0
BITMAP
1040
1040
1040
1040
1040
1040
1040
F8C0
7F80
ENDCHAR
STARTCHAR 0EA2
ENCODING 3746
SWIDTH 687 0
DWIDTH 11 0
BBX 8 12 1 0
BITMAP
01
01
01
71
D1
F1
81
61
81
81
C2
7C
ENDCHAR
STARTCHAR 0EA3
ENCODING 3747
SWIDTH 687 0
DWIDTH 11 0
BBX 9 9 1 0
BITMAP
7E00
8380
8000
7E00
0300
E100
A100
E100
7E00
ENDCHAR
STARTCHAR 0EA5
ENCODING 3749
SWIDTH 750 0
DWIDTH 12 0
BBX 9 9 1 1
BITMAP
7E00
C180
8080
0080
7080
C880
F480
9480
7300
ENDCHAR
STARTCHAR 0EA7
ENCODING 3751
SWIDTH 625 0
DWIDTH 10 0
BBX 7 9 1 0
BITMAP
7C
C2
82
02
02
E2
A2
E2
7C
ENDCHAR
STARTCHAR 0EAA
ENCODING 3754
SWIDTH 687 0
DWIDTH 11 0
BBX 10 11 1 -1
BITMAP
0080
00C0
FF40
81C0
FF80
0100
6100
D900
E900
A900
EF00
ENDCHAR
STARTCHAR 0EAB
ENCODING 3755
SWIDTH 812 0
DWIDTH 13 0
BBX 11 9 1 0
BITMAP
EFE0
BB20
EE20
6220
4220
C220
C220
C220
7E20
ENDCHAR
STARTCHAR 0EAD
ENCODING 3757
SWIDTH 625 0
DWIDTH 10 0
BBX 8 9 1 0
BITMAP
7E
C3
81
C3
7F
01
F1
F1
7E
ENDCHAR
STARTCHAR 0EAE
ENCODING 3758
SWIDTH 687 0
DWIDTH 11 0
BBX 9 9 1 1
BITMAP
7880
8D80
8700
C000
3C00
0300
E100
A300
7E00
ENDCHAR
STARTCHAR 0EAF
ENCODING 3759
SWIDTH 812 0
DWIDTH 13 0
BBX 10 12 2 -2
BITMAP
FC00
B400
9980
86C0
CCC0
7980
0300
0600
0C00
1800
3000
2000
ENDCHAR
STARTCHAR 0EB0
ENCODING 3760
SWIDTH 625 0
DWIDTH 10 0
BBX 8 9 1 1
BITMAP
F1
91
F1
7E
00
F1
91
F1
7E
ENDCHAR
STARTCHAR 0EB1
ENCODING 3761
SWIDTH 0 0
DWIDTH 0 0
BBX 8 4 -9 11
BITMAP
F1
91
F1
7E
ENDCHAR
STARTCHAR 0EB2
ENCODING 3762
SWIDTH 562 0
DWIDTH 9 0
BBX 7 9 1 0
BITMAP
7C
E6
F2
92
F2
02
02
02
02
ENDCHAR
STARTCHAR 0EB3
ENCODING 3763
SWIDTH 562 0
DWIDTH 9 0
BBX 15 13 -7 0
BITMAP
E000
A000
E000
0000
007C
00E6
00F2
0092
00F2
0002
0002
0002
0002
ENDCHAR
STARTCHAR 0EB4
ENCODING 3764
SWIDTH 0 0
DWIDTH 0 0
BBX 9 5 -10 10
BITMAP
7F00
C180
8080
C180
7700
ENDCHAR
STARTCHAR 0EB5
ENCODING 3765
SWIDTH 0 0
DWIDTH 0 0
BBX 10 5 -10 10
BITMAP
7F00
C180
8080
C180
77C0
ENDCHAR
STARTCHAR 0EB6
ENCODING 3766
SWIDTH 0 0
DWIDTH 0 0
BBX 9 5 -10 10
BITMAP
7F00
C180
8880
C180
7700
ENDCHAR
STARTCHAR 0EB7
ENCODING 3767
SWIDTH 0 0
DWIDTH 0 0
BBX 10 5 -10 10
BITMAP
7F00
C180
8880
C180
77C0
ENDCHAR
STARTCHAR 0EB8
ENCODING 3768
SWIDTH 0 0
DWIDTH 0 0
BBX 3 4 -6 -5
BITMAP
E0
E0
20
20
ENDCHAR
STARTCHAR 0EB9
ENCODING 3769
SWIDTH 0 0
DWIDTH 0 0
BBX 4 4 -7 -5
BITMAP
D0
D0
90
F0
ENDCHAR
ENDFONT
